{
date = "2015-05-12 14:01:48 +0000";
familyName = "Rukiye";
fontMaster = (
{
alignmentZones = (
"{670, 15}",
"{450, 15}",
"{0, -15}"
);
ascender = 700;
capHeight = 670;
descender = -250;
id = "FABFC9D4-E17A-4CB6-8F8E-4923CD579275";
userData = {
GSCornerRadius = 15;
GSOffsetHorizontal = 16;
GSOffsetMakeStroke = 1;
GSOffsetVertical = 15;
};
xHeight = 450;
}
);
glyphs = (
{
glyphname = A;
lastChange = "2016-01-22 14:20:31 +0000";
layers = (
{
anchors = (
{
name = bottom;
position = "{341, 0}";
},
{
name = ogonek;
position = "{614, 10}";
},
{
name = top;
position = "{341, 770}";
}
);
background = {
paths = (
{
closed = 1;
nodes = (
"-2063 674 LINE",
"-1946 674 OFFCURVE",
"-1898 642 OFFCURVE",
"-1870 550 CURVE SMOOTH",
"-1710 35 LINE",
"-1610 35 LINE",
"-1610 0 LINE",
"-1875 0 LINE",
"-1992 395 LINE SMOOTH",
"-2015 476 OFFCURVE",
"-2035 502 OFFCURVE",
"-2137 502 CURVE"
);
},
{
closed = 1;
nodes = (
"-2044 521 LINE",
"-2021 517 LINE",
"-2140 19 LINE",
"-2274 19 LINE"
);
},
{
closed = 1;
nodes = (
"-2136 228 LINE",
"-1929 228 LINE",
"-1914 191 LINE",
"-2160 191 LINE"
);
},
{
closed = 1;
nodes = (
"-2082 33 LINE",
"-2082 0 LINE",
"-2339 0 LINE",
"-2339 33 LINE"
);
},
{
closed = 1;
nodes = (
"-1592 40 LINE",
"-1592 0 LINE",
"-1370 0 LINE",
"-1370 40 LINE",
"-1419 41 LINE",
"-1300 595 LINE",
"-1321 587 LINE",
"-1164 41 LINE",
"-1213 40 LINE",
"-1213 0 LINE",
"-915 0 LINE",
"-915 40 LINE",
"-964 41 LINE",
"-1184 672 LINE",
"-1310 665 LINE",
"-1545 41 LINE"
);
},
{
closed = 1;
nodes = (
"-1174 191 LINE",
"-1189 228 LINE",
"-1396 228 LINE",
"-1420 191 LINE"
);
},
{
closed = 1;
nodes = (
"-797 40 LINE",
"-797 0 LINE",
"-575 0 LINE",
"-575 40 LINE",
"-626 41 LINE",
"-507 591 LINE",
"-524 577 LINE",
"-374 41 LINE",
"-423 40 LINE",
"-423 0 LINE",
"-124 0 LINE",
"-124 40 LINE",
"-173 41 LINE",
"-389 672 LINE",
"-523 655 LINE",
"-748 41 LINE"
);
},
{
closed = 1;
nodes = (
"-374 191 LINE",
"-389 228 LINE",
"-596 228 LINE",
"-620 191 LINE"
);
},
{
closed = 1;
nodes = (
"-4 38 LINE",
"-4 -2 LINE",
"228 -2 LINE",
"228 38 LINE",
"177 39 LINE",
"292 589 LINE",
"265 575 LINE",
"418 39 LINE",
"369 38 LINE",
"369 -2 LINE",
"697 -2 LINE",
"697 38 LINE",
"648 39 LINE",
"400 670 LINE",
"276 653 LINE",
"45 39 LINE"
);
}
);
};
layerId = "FABFC9D4-E17A-4CB6-8F8E-4923CD579275";
name = Regular;
paths = (
{
closed = 1;
nodes = (
"426 200 LINE",
"411 237 LINE",
"204 237 LINE",
"180 200 LINE"
);
},
{
closed = 1;
nodes = (
"0 35 LINE",
"0 0 LINE",
"226 0 LINE",
"226 35 LINE",
"175 36 LINE",
"289 598 LINE",
"267 594 LINE",
"424 36 LINE",
"375 35 LINE",
"375 0 LINE",
"676 0 LINE",
"676 35 LINE",
"627 36 LINE",
"397 679 LINE",
"273 662 LINE",
"49 36 LINE"
);
}
);
width = 682;
}
);
unicode = 0041;
},
{
glyphname = Aring;
lastChange = "2016-01-22 15:01:27 +0000";
layers = (
{
components = (
{
name = A;
}
);
guideLines = (
{
angle = 270;
position = "{335, 719}";
}
);
layerId = "FABFC9D4-E17A-4CB6-8F8E-4923CD579275";
name = Regular;
paths = (
{
closed = 1;
nodes = (
"398 639 OFFCURVE",
"435 682 OFFCURVE",
"435 736 CURVE SMOOTH",
"435 791 OFFCURVE",
"398 836 OFFCURVE",
"335 836 CURVE SMOOTH",
"271 836 OFFCURVE",
"234 791 OFFCURVE",
"234 736 CURVE SMOOTH",
"234 682 OFFCURVE",
"271 639 OFFCURVE",
"335 639 CURVE SMOOTH"
);
},
{
closed = 1;
nodes = (
"298 672 OFFCURVE",
"272 697 OFFCURVE",
"272 736 CURVE SMOOTH",
"272 774 OFFCURVE",
"298 799 OFFCURVE",
"335 799 CURVE SMOOTH",
"372 799 OFFCURVE",
"398 774 OFFCURVE",
"398 736 CURVE SMOOTH",
"398 697 OFFCURVE",
"372 672 OFFCURVE",
"335 672 CURVE SMOOTH"
);
}
);
width = 682;
}
);
unicode = 00C5;
},
{
glyphname = AE;
lastChange = "2016-01-23 18:57:59 +0000";
layers = (
{
background = {
components = (
{
name = A;
}
);
};
layerId = "FABFC9D4-E17A-4CB6-8F8E-4923CD579275";
name = Regular;
paths = (
{
closed = 1;
nodes = (
"256 345 LINE",
"788 345 LINE",
"788 308 LINE",
"232 308 LINE"
);
},
{
closed = 1;
nodes = (
"185 36 LINE",
"236 35 LINE",
"236 0 LINE",
"0 0 LINE",
"0 35 LINE",
"49 36 LINE",
"405 656 LINE",
"871 673 LINE",
"871 491 LINE",
"832 492 LINE",
"830 542 LINE",
"749 581 OFFCURVE",
"668 613 OFFCURVE",
"587 638 CURVE",
"599 648 LINE",
"603 12 LINE",
"587 22 LINE",
"675 49 OFFCURVE",
"762 85 OFFCURVE",
"850 128 CURVE",
"852 178 LINE",
"891 179 LINE",
"891 0 LINE",
"384 0 LINE",
"384 35 LINE",
"433 36 LINE",
"433 636 LINE",
"444 641 LINE"
);
}
);
width = 916;
}
);
unicode = 00C6;
},
{
glyphname = B;
lastChange = "2016-01-22 12:37:59 +0000";
layers = (
{
background = {
paths = (
{
closed = 1;
nodes = (
"-2578 347 LINE",
"-2431 347 LINE SMOOTH",
"-2249 348 OFFCURVE",
"-2193 316 OFFCURVE",
"-2193 211 CURVE SMOOTH",
"-2193 75 OFFCURVE",
"-2283 0 OFFCURVE",
"-2560 0 CURVE SMOOTH",
"-2795 0 LINE",
"-2795 40 LINE",
"-2746 41 LINE",
"-2746 629 LINE",
"-2795 630 LINE",
"-2795 670 LINE",
"-2559 670 LINE",
"-2378 670 LINE",
"-2291 659 OFFCURVE",
"-2253 617 OFFCURVE",
"-2253 529 CURVE SMOOTH",
"-2253 400 OFFCURVE",
"-2380 318 OFFCURVE",
"-2579 318 CURVE",
"-2583 347 LINE",
"-2487 347 OFFCURVE",
"-2441 393 OFFCURVE",
"-2441 488 CURVE SMOOTH",
"-2441 581 OFFCURVE",
"-2481 628 OFFCURVE",
"-2560 628 CURVE",
"-2560 39 LINE",
"-2429 39 OFFCURVE",
"-2381 81 OFFCURVE",
"-2381 170 CURVE SMOOTH",
"-2381 263 OFFCURVE",
"-2432 310 OFFCURVE",
"-2530 310 CURVE SMOOTH",
"-2581 310 LINE"
);
},
{
closed = 1;
nodes = (
"-2075 35 LINE",
"-2026 36 LINE",
"-2026 634 LINE",
"-2075 635 LINE",
"-2075 670 LINE",
"-1678 670 LINE",
"-1581 659 OFFCURVE",
"-1538 614 OFFCURVE",
"-1538 529 CURVE SMOOTH",
"-1538 435 OFFCURVE",
"-1610 366 OFFCURVE",
"-1751 331 CURVE",
"-1751 347 LINE",
"-1549 350 OFFCURVE",
"-1488 320 OFFCURVE",
"-1488 211 CURVE SMOOTH",
"-1488 75 OFFCURVE",
"-1579 0 OFFCURVE",
"-1860 0 CURVE SMOOTH",
"-2075 0 LINE"
);
},
{
closed = 1;
nodes = (
"-1869 346 LINE",
"-1767 350 OFFCURVE",
"-1716 397 OFFCURVE",
"-1716 488 CURVE SMOOTH",
"-1716 586 OFFCURVE",
"-1764 635 OFFCURVE",
"-1860 635 CURVE",
"-1860 35 LINE",
"-1718 35 OFFCURVE",
"-1666 78 OFFCURVE",
"-1666 170 CURVE SMOOTH",
"-1666 263 OFFCURVE",
"-1722 311 OFFCURVE",
"-1830 311 CURVE SMOOTH",
"-1869 311 LINE"
);
},
{
closed = 1;
nodes = (
"-1375 35 LINE",
"-1326 36 LINE",
"-1326 634 LINE",
"-1375 635 LINE",
"-1375 670 LINE",
"-996 670 LINE",
"-893 659 OFFCURVE",
"-838 610 OFFCURVE",
"-838 529 CURVE SMOOTH",
"-838 434 OFFCURVE",
"-911 366 OFFCURVE",
"-1051 331 CURVE",
"-1051 347 LINE",
"-885 347 LINE",
"-825 327 OFFCURVE",
"-788 270 OFFCURVE",
"-788 198 CURVE SMOOTH",
"-788 76 OFFCURVE",
"-892 0 OFFCURVE",
"-1100 0 CURVE SMOOTH",
"-1375 0 LINE"
);
},
{
closed = 1;
nodes = (
"-1169 346 LINE",
"-1065 351 OFFCURVE",
"-1016 397 OFFCURVE",
"-1016 491 CURVE SMOOTH",
"-1016 586 OFFCURVE",
"-1065 635 OFFCURVE",
"-1160 635 CURVE",
"-1160 35 LINE",
"-1024 35 OFFCURVE",
"-966 75 OFFCURVE",
"-966 169 CURVE SMOOTH",
"-966 263 OFFCURVE",
"-1022 311 OFFCURVE",
"-1130 311 CURVE SMOOTH",
"-1169 311 LINE"
);
},
{
closed = 1;
nodes = (
"-675 35 LINE",
"-626 36 LINE",
"-626 634 LINE",
"-675 635 LINE",
"-675 670 LINE",
"-296 670 LINE",
"-193 659 OFFCURVE",
"-138 610 OFFCURVE",
"-138 529 CURVE SMOOTH",
"-138 434 OFFCURVE",
"-211 366 OFFCURVE",
"-351 331 CURVE",
"-351 347 LINE",
"-205 347 LINE",
"-145 327 OFFCURVE",
"-88 270 OFFCURVE",
"-88 198 CURVE SMOOTH",
"-88 76 OFFCURVE",
"-192 0 OFFCURVE",
"-400 0 CURVE SMOOTH",
"-675 0 LINE"
);
},
{
closed = 1;
nodes = (
"-469 346 LINE",
"-365 351 OFFCURVE",
"-316 397 OFFCURVE",
"-316 491 CURVE SMOOTH",
"-316 586 OFFCURVE",
"-365 635 OFFCURVE",
"-460 635 CURVE",
"-460 35 LINE",
"-324 35 OFFCURVE",
"-266 75 OFFCURVE",
"-266 169 CURVE SMOOTH",
"-266 263 OFFCURVE",
"-322 311 OFFCURVE",
"-430 311 CURVE SMOOTH",
"-469 311 LINE"
);
},
{
closed = 1;
nodes = (
"25 35 LINE",
"74 36 LINE",
"74 634 LINE",
"25 635 LINE",
"25 670 LINE",
"218 668 LINE",
"218 668 OFFCURVE",
"319 680 OFFCURVE",
"364 680 CURVE SMOOTH",
"497 680 OFFCURVE",
"562 616 OFFCURVE",
"562 529 CURVE SMOOTH",
"562 434 OFFCURVE",
"489 366 OFFCURVE",
"349 331 CURVE",
"349 347 LINE",
"413 347 LINE SMOOTH",
"558 347 OFFCURVE",
"612 270 OFFCURVE",
"612 198 CURVE SMOOTH",
"612 76 OFFCURVE",
"508 0 OFFCURVE",
"300 0 CURVE SMOOTH",
"25 0 LINE"
);
},
{
closed = 1;
nodes = (
"231 346 LINE",
"335 351 OFFCURVE",
"384 397 OFFCURVE",
"384 491 CURVE SMOOTH",
"384 586 OFFCURVE",
"335 635 OFFCURVE",
"240 635 CURVE",
"240 35 LINE",
"376 35 OFFCURVE",
"434 75 OFFCURVE",
"434 169 CURVE SMOOTH",
"434 263 OFFCURVE",
"378 311 OFFCURVE",
"270 311 CURVE SMOOTH",
"231 311 LINE"
);
}
);
};
layerId = "FABFC9D4-E17A-4CB6-8F8E-4923CD579275";
name = Regular;
paths = (
{
closed = 1;
nodes = (
"25 35 LINE",
"74 36 LINE",
"74 634 LINE",
"25 635 LINE",
"25 670 LINE",
"218 668 LINE",
"364 680 LINE",
"497 680 OFFCURVE",
"562 616 OFFCURVE",
"562 529 CURVE SMOOTH",
"562 434 OFFCURVE",
"489 366 OFFCURVE",
"349 331 CURVE",
"349 341 LINE",
"446 347 LINE",
"558 347 OFFCURVE",
"612 270 OFFCURVE",
"612 198 CURVE SMOOTH",
"612 76 OFFCURVE",
"508 0 OFFCURVE",
"300 0 CURVE SMOOTH",
"25 0 LINE"
);
},
{
closed = 1;
nodes = (
"231 346 LINE",
"335 351 OFFCURVE",
"384 397 OFFCURVE",
"384 491 CURVE SMOOTH",
"384 586 OFFCURVE",
"335 635 OFFCURVE",
"240 635 CURVE",
"240 35 LINE",
"376 35 OFFCURVE",
"434 75 OFFCURVE",
"434 169 CURVE SMOOTH",
"434 263 OFFCURVE",
"378 311 OFFCURVE",
"270 311 CURVE SMOOTH",
"231 311 LINE"
);
}
);
width = 642;
}
);
unicode = 0042;
},
{
glyphname = C;
lastChange = "2016-01-26 13:29:37 +0000";
layers = (
{
anchors = (
{
name = bottom;
position = "{323, -80}";
},
{
name = top;
position = "{341, 770}";
}
);
background = {
paths = (
{
closed = 1;
nodes = (
"-502 60 OFFCURVE",
"-586 163 OFFCURVE",
"-586 338 CURVE SMOOTH",
"-586 492 OFFCURVE",
"-518 622 OFFCURVE",
"-444 657 CURVE",
"-460 670 LINE",
"-313 453 LINE",
"-190 556 LINE",
"-232 622 OFFCURVE",
"-318 683 OFFCURVE",
"-437 683 CURVE SMOOTH",
"-507 683 OFFCURVE",
"-590 660 OFFCURVE",
"-656 625 CURVE",
"-725 551 OFFCURVE",
"-765 437 OFFCURVE",
"-765 322 CURVE SMOOTH",
"-765 111 OFFCURVE",
"-633 -15 OFFCURVE",
"-452 -15 CURVE SMOOTH",
"-317 -15 OFFCURVE",
"-204 69 OFFCURVE",
"-157 169 CURVE",
"-189 187 LINE",
"-237 107 OFFCURVE",
"-314 60 OFFCURVE",
"-393 60 CURVE SMOOTH"
);
},
{
closed = 1;
nodes = (
"587 167 LINE",
"544 124 OFFCURVE",
"486 100 OFFCURVE",
"424 100 CURVE SMOOTH",
"295 100 OFFCURVE",
"214 201 OFFCURVE",
"214 364 CURVE SMOOTH",
"214 502 OFFCURVE",
"273 624 OFFCURVE",
"356 658 CURVE",
"340 670 LINE",
"475 457 LINE",
"598 560 LINE",
"549 637 OFFCURVE",
"462 683 OFFCURVE",
"363 683 CURVE SMOOTH",
"290 683 OFFCURVE",
"212 659 OFFCURVE",
"144 615 CURVE",
"77 552 OFFCURVE",
"35 438 OFFCURVE",
"35 318 CURVE SMOOTH",
"35 120 OFFCURVE",
"154 -15 OFFCURVE",
"329 -15 CURVE SMOOTH",
"439 -15 OFFCURVE",
"544 43 OFFCURVE",
"615 143 CURVE"
);
}
);
};
layerId = "FABFC9D4-E17A-4CB6-8F8E-4923CD579275";
name = Regular;
paths = (
{
closed = 1;
nodes = (
"587 167 LINE",
"544 124 OFFCURVE",
"486 100 OFFCURVE",
"424 100 CURVE SMOOTH",
"295 100 OFFCURVE",
"214 201 OFFCURVE",
"214 364 CURVE SMOOTH",
"214 502 OFFCURVE",
"273 624 OFFCURVE",
"361 658 CURVE",
"345 670 LINE",
"480 457 LINE",
"603 560 LINE",
"554 637 OFFCURVE",
"464 683 OFFCURVE",
"363 683 CURVE SMOOTH",
"290 683 OFFCURVE",
"212 659 OFFCURVE",
"144 615 CURVE",
"77 552 OFFCURVE",
"35 438 OFFCURVE",
"35 318 CURVE SMOOTH",
"35 120 OFFCURVE",
"154 -15 OFFCURVE",
"329 -15 CURVE SMOOTH",
"439 -15 OFFCURVE",
"544 43 OFFCURVE",
"615 143 CURVE"
);
}
);
width = 645;
}
);
unicode = 0043;
},
{
glyphname = D;
lastChange = "2016-01-23 16:58:19 +0000";
layers = (
{
anchors = (
{
name = bottom;
position = "{359, 0}";
},
{
name = center;
position = "{359, 335}";
},
{
name = top;
position = "{329, 770}";
}
);
background = {
paths = (
{
closed = 1;
nodes = (
"-1205 35 OFFCURVE",
"-1113 128 OFFCURVE",
"-1113 338 CURVE SMOOTH",
"-1113 517 OFFCURVE",
"-1217 633 OFFCURVE",
"-1360 633 CURVE",
"-1360 30 LINE",
"-1372 35 LINE"
);
},
{
closed = 1;
nodes = (
"-1172 16 OFFCURVE",
"-1271 0 OFFCURVE",
"-1575 0 CURVE",
"-1575 35 LINE",
"-1526 36 LINE",
"-1526 634 LINE",
"-1575 635 LINE",
"-1575 670 LINE",
"-1302 670 LINE SMOOTH",
"-1036 670 OFFCURVE",
"-935 562 OFFCURVE",
"-935 341 CURVE SMOOTH",
"-935 162 OFFCURVE",
"-1000 78 OFFCURVE",
"-1089 40 CURVE"
);
},
{
closed = 1;
nodes = (
"-403 35 OFFCURVE",
"-313 118 OFFCURVE",
"-313 342 CURVE SMOOTH",
"-313 537 OFFCURVE",
"-416 633 OFFCURVE",
"-560 633 CURVE",
"-560 35 LINE",
"-542 35 LINE SMOOTH"
);
},
{
closed = 1;
nodes = (
"-775 0 LINE",
"-775 35 LINE",
"-726 36 LINE",
"-726 634 LINE",
"-775 635 LINE",
"-775 670 LINE",
"-363 670 LINE",
"-226 642 OFFCURVE",
"-135 527 OFFCURVE",
"-135 367 CURVE SMOOTH",
"-135 129 OFFCURVE",
"-269 0 OFFCURVE",
"-512 0 CURVE SMOOTH"
);
},
{
closed = 1;
nodes = (
"407 35 OFFCURVE",
"494 128 OFFCURVE",
"494 332 CURVE SMOOTH",
"494 537 OFFCURVE",
"384 633 OFFCURVE",
"240 633 CURVE",
"240 35 LINE",
"268 35 LINE SMOOTH"
);
},
{
closed = 1;
nodes = (
"25 0 LINE",
"25 35 LINE",
"74 36 LINE",
"74 634 LINE",
"25 635 LINE",
"25 670 LINE",
"218 668 LINE",
"218 668 OFFCURVE",
"294 680 OFFCURVE",
"340 680 CURVE SMOOTH",
"568 680 OFFCURVE",
"672 567 OFFCURVE",
"672 357 CURVE SMOOTH",
"672 149 OFFCURVE",
"551 0 OFFCURVE",
"308 0 CURVE SMOOTH"
);
}
);
};
layerId = "FABFC9D4-E17A-4CB6-8F8E-4923CD579275";
name = Regular;
paths = (
{
closed = 1;
nodes = (
"407 35 OFFCURVE",
"494 128 OFFCURVE",
"494 332 CURVE SMOOTH",
"494 537 OFFCURVE",
"380 633 OFFCURVE",
"240 633 CURVE",
"240 35 LINE",
"268 35 LINE SMOOTH"
);
},
{
closed = 1;
nodes = (
"25 0 LINE",
"25 35 LINE",
"74 36 LINE",
"74 634 LINE",
"25 635 LINE",
"25 670 LINE",
"218 668 LINE",
"360 680 LINE",
"558 680 OFFCURVE",
"672 567 OFFCURVE",
"672 357 CURVE SMOOTH",
"672 149 OFFCURVE",
"551 0 OFFCURVE",
"308 0 CURVE SMOOTH"
);
}
);
width = 717;
}
);
unicode = 0044;
},
{
glyphname = Eth;
lastChange = "2016-01-23 16:27:21 +0000";
layers = (
{
components = (
{
name = D;
}
);
layerId = "FABFC9D4-E17A-4CB6-8F8E-4923CD579275";
name = Regular;
paths = (
{
closed = 1;
nodes = (
"363 361 LINE",
"353 315 LINE",
"-5 315 LINE",
"0 353 LINE"
);
}
);
width = 717;
}
);
unicode = 00D0;
},
{
glyphname = E;
lastChange = "2016-01-24 17:03:59 +0000";
layers = (
{
anchors = (
{
name = bottom;
position = "{273, -80}";
},
{
name = top;
position = "{296, 770}";
}
);
background = {
paths = (
{
closed = 1;
nodes = (
"-88 441 LINE",
"-127 442 LINE",
"-129 492 LINE",
"-214 573 OFFCURVE",
"-297 621 OFFCURVE",
"-397 648 CURVE",
"-350 649 LINE",
"-350 20 LINE",
"-397 22 LINE",
"-290 49 OFFCURVE",
"-194 102 OFFCURVE",
"-109 178 CURVE",
"-107 228 LINE",
"-68 229 LINE",
"-68 0 LINE",
"-585 0 LINE",
"-585 40 LINE",
"-536 41 LINE",
"-536 629 LINE",
"-585 630 LINE",
"-585 670 LINE",
"-88 670 LINE"
);
},
{
closed = 1;
nodes = (
"-393 360 LINE",
"-171 360 LINE",
"-171 323 LINE",
"-417 323 LINE"
);
},
{
closed = 1;
nodes = (
"532 179 LINE",
"493 178 LINE",
"491 128 LINE",
"403 85 OFFCURVE",
"316 49 OFFCURVE",
"228 22 CURVE",
"244 12 LINE",
"240 658 LINE",
"228 648 LINE",
"309 621 OFFCURVE",
"390 585 OFFCURVE",
"471 542 CURVE",
"473 492 LINE",
"512 491 LINE",
"512 670 LINE",
"25 670 LINE",
"25 635 LINE",
"74 634 LINE",
"74 36 LINE",
"25 35 LINE",
"25 0 LINE",
"532 0 LINE"
);
},
{
closed = 1;
nodes = (
"429 328 LINE",
"429 365 LINE",
"197 365 LINE",
"173 328 LINE"
);
}
);
};
layerId = "FABFC9D4-E17A-4CB6-8F8E-4923CD579275";
name = Regular;
paths = (
{
closed = 1;
nodes = (
"532 199 LINE",
"493 198 LINE",
"491 148 LINE",
"403 95 OFFCURVE",
"316 54 OFFCURVE",
"228 22 CURVE",
"244 12 LINE",
"240 658 LINE",
"228 648 LINE",
"309 617 OFFCURVE",
"390 577 OFFCURVE",
"471 527 CURVE",
"473 477 LINE",
"512 476 LINE",
"512 670 LINE",
"25 670 LINE",
"25 635 LINE",
"74 634 LINE",
"74 36 LINE",
"25 35 LINE",
"25 0 LINE",
"532 0 LINE"
);
},
{
closed = 1;
nodes = (
"429 328 LINE",
"429 365 LINE",
"197 365 LINE",
"173 328 LINE"
);
}
);
width = 557;
}
);
unicode = 0045;
},
{
glyphname = F;
lastChange = "2016-01-24 17:04:12 +0000";
layers = (
{
background = {
paths = (
{
closed = 1;
nodes = (
"419 303 LINE",
"419 340 LINE",
"197 340 LINE",
"173 303 LINE"
);
},
{
closed = 1;
nodes = (
"240 649 LINE",
"193 648 LINE",
"297 648 OFFCURVE",
"430 564 OFFCURVE",
"471 492 CURVE",
"473 442 LINE",
"512 441 LINE",
"512 670 LINE",
"25 670 LINE",
"25 635 LINE",
"74 634 LINE",
"74 36 LINE",
"25 35 LINE",
"25 0 LINE",
"349 0 LINE",
"349 35 LINE",
"240 36 LINE"
);
}
);
};
layerId = "FABFC9D4-E17A-4CB6-8F8E-4923CD579275";
name = Regular;
paths = (
{
closed = 1;
nodes = (
"429 303 LINE",
"429 340 LINE",
"197 340 LINE",
"173 303 LINE"
);
},
{
closed = 1;
nodes = (
"349 0 LINE",
"349 35 LINE",
"242 36 LINE",
"242 658 LINE",
"228 648 LINE",
"309 616 OFFCURVE",
"390 573 OFFCURVE",
"471 522 CURVE",
"473 472 LINE",
"512 471 LINE",
"512 670 LINE",
"25 670 LINE",
"25 635 LINE",
"74 634 LINE",
"74 36 LINE",
"25 35 LINE",
"25 0 LINE"
);
}
);
width = 527;
}
);
unicode = 0046;
},
{
glyphname = G;
lastChange = "2016-01-26 14:19:09 +0000";
layers = (
{
anchors = (
{
name = bottom;
position = "{323, -80}";
},
{
name = top;
position = "{341, 770}";
}
);
background = {
components = (
{
name = C;
}
);
};
layerId = "FABFC9D4-E17A-4CB6-8F8E-4923CD579275";
name = Regular;
paths = (
{
closed = 1;
nodes = (
"662 312 LINE",
"662 347 LINE",
"398 347 LINE",
"398 312 LINE",
"447 311 LINE",
"447 88 LINE",
"581 0 LINE",
"613 0 LINE",
"613 311 LINE"
);
},
{
closed = 1;
nodes = (
"560 152 LINE",
"516 106 OFFCURVE",
"479 88 OFFCURVE",
"428 88 CURVE SMOOTH",
"297 88 OFFCURVE",
"214 198 OFFCURVE",
"214 370 CURVE SMOOTH",
"214 503 OFFCURVE",
"272 621 OFFCURVE",
"361 658 CURVE",
"345 670 LINE",
"480 457 LINE",
"603 560 LINE",
"554 637 OFFCURVE",
"464 683 OFFCURVE",
"363 683 CURVE SMOOTH",
"290 683 OFFCURVE",
"212 659 OFFCURVE",
"144 615 CURVE",
"77 552 OFFCURVE",
"35 437 OFFCURVE",
"35 318 CURVE SMOOTH",
"35 123 OFFCURVE",
"155 -15 OFFCURVE",
"325 -15 CURVE SMOOTH",
"426 -15 OFFCURVE",
"521 38 OFFCURVE",
"579 128 CURVE"
);
}
);
width = 692;
}
);
unicode = 0047;
},
{
glyphname = H;
lastChange = "2016-01-22 12:40:35 +0000";
layers = (
{
anchors = (
{
name = top;
position = "{341, 770}";
}
);
background = {
paths = (
{
closed = 1;
nodes = (
"-26 40 LINE",
"-26 0 LINE",
"196 0 LINE",
"196 40 LINE",
"147 41 LINE",
"266 595 LINE",
"245 587 LINE",
"402 41 LINE",
"353 40 LINE",
"353 0 LINE",
"651 0 LINE",
"651 40 LINE",
"602 41 LINE",
"382 672 LINE",
"256 665 LINE",
"21 41 LINE"
);
}
);
};
components = (
{
disableAlignment = 1;
name = I;
transform = "{1, 0, 0, 1, -5, 0}";
},
{
disableAlignment = 1;
name = I;
transform = "{1, 0, 0, 1, 385, 0}";
}
);
layerId = "FABFC9D4-E17A-4CB6-8F8E-4923CD579275";
name = Regular;
paths = (
{
closed = 1;
nodes = (
"488 314 LINE",
"473 351 LINE",
"236 351 LINE",
"212 314 LINE"
);
}
);
width = 704;
}
);
unicode = 0048;
},
{
glyphname = I;
lastChange = "2016-01-22 12:41:08 +0000";
layers = (
{
anchors = (
{
name = ogonek;
position = "{292, 10}";
},
{
name = top;
position = "{164, 770}";
}
);
guideLines = (
{
angle = 270;
position = "{164, 0}";
}
);
layerId = "FABFC9D4-E17A-4CB6-8F8E-4923CD579275";
name = Regular;
paths = (
{
closed = 1;
nodes = (
"245 634 LINE",
"294 635 LINE",
"294 670 LINE",
"30 670 LINE",
"30 635 LINE",
"79 634 LINE",
"79 36 LINE",
"30 35 LINE",
"30 0 LINE",
"294 0 LINE",
"294 35 LINE",
"245 36 LINE"
);
}
);
width = 324;
}
);
unicode = 0049;
},
{
glyphname = J;
lastChange = "2016-01-31 18:30:21 +0000";
layers = (
{
anchors = (
{
name = top;
position = "{164, 770}";
}
);
background = {
paths = (
{
closed = 1;
nodes = (
"245 634 LINE",
"294 635 LINE",
"294 670 LINE",
"30 670 LINE",
"30 635 LINE",
"79 634 LINE",
"79 -184 LINE",
"90 -175 LINE",
"-32 -20 LINE",
"-115 -153 LINE",
"-89 -178 OFFCURVE",
"-24 -203 OFFCURVE",
"29 -203 CURVE SMOOTH",
"158 -203 OFFCURVE",
"245 -98 OFFCURVE",
"245 215 CURVE SMOOTH"
);
}
);
};
guideLines = (
{
angle = 270;
position = "{164, 526}";
}
);
layerId = "FABFC9D4-E17A-4CB6-8F8E-4923CD579275";
name = Regular;
paths = (
{
closed = 1;
nodes = (
"245 634 LINE",
"294 635 LINE",
"294 670 LINE",
"30 670 LINE",
"30 635 LINE",
"79 634 LINE",
"79 -184 LINE",
"90 -175 LINE",
"-52 -30 LINE",
"-135 -153 LINE",
"-106 -176 OFFCURVE",
"-31 -203 OFFCURVE",
"29 -203 CURVE SMOOTH",
"158 -203 OFFCURVE",
"245 -98 OFFCURVE",
"245 215 CURVE SMOOTH"
);
}
);
width = 324;
}
);
unicode = 004A;
},
{
glyphname = K;
lastChange = "2016-01-26 14:18:19 +0000";
layers = (
{
anchors = (
{
name = bottom;
position = "{336, -80}";
},
{
name = top;
position = "{361, 770}";
}
);
background = {
components = (
{
name = I;
}
);
paths = (
{
closed = 1;
nodes = (
"-545 629 LINE",
"-496 630 LINE",
"-496 670 LINE",
"-780 670 LINE",
"-780 630 LINE",
"-731 629 LINE",
"-731 41 LINE",
"-780 40 LINE",
"-780 0 LINE",
"-496 0 LINE",
"-496 40 LINE",
"-545 41 LINE"
);
},
{
closed = 1;
nodes = (
"-433 391 LINE",
"-197 629 LINE",
"-138 630 LINE",
"-138 670 LINE",
"-386 670 LINE",
"-386 630 LINE",
"-322 629 LINE",
"-534 329 LINE",
"-381 41 LINE",
"-430 40 LINE",
"-430 0 LINE",
"-102 0 LINE",
"-102 40 LINE",
"-151 41 LINE",
"-399 435 LINE"
);
},
{
closed = 1;
nodes = (
"367 391 LINE",
"588 634 LINE",
"642 635 LINE",
"642 670 LINE",
"404 670 LINE",
"404 635 LINE",
"463 634 LINE",
"266 329 LINE",
"429 36 LINE",
"380 35 LINE",
"380 0 LINE",
"688 0 LINE",
"688 35 LINE",
"639 36 LINE",
"386 435 LINE"
);
}
);
};
components = (
{
name = I;
}
);
layerId = "FABFC9D4-E17A-4CB6-8F8E-4923CD579275";
name = Regular;
paths = (
{
closed = 1;
nodes = (
"367 391 LINE",
"598 634 LINE",
"652 635 LINE",
"652 670 LINE",
"414 670 LINE",
"414 635 LINE",
"473 634 LINE",
"266 329 LINE",
"439 36 LINE",
"390 35 LINE",
"390 0 LINE",
"698 0 LINE",
"698 35 LINE",
"649 36 LINE",
"386 435 LINE"
);
}
);
width = 721;
}
);
unicode = 004B;
},
{
glyphname = L;
lastChange = "2016-01-24 17:04:25 +0000";
layers = (
{
anchors = (
{
name = bottom;
position = "{274, -80}";
},
{
name = center;
position = "{151, 335}";
},
{
name = top;
position = "{244, 770}";
},
{
name = topright;
position = "{527, 670}";
}
);
background = {
paths = (
{
closed = 1;
nodes = (
"-580 0 LINE",
"-580 40 LINE",
"-531 41 LINE",
"-531 629 LINE",
"-580 630 LINE",
"-580 670 LINE",
"-296 670 LINE",
"-296 630 LINE",
"-345 629 LINE",
"-345 21 LINE",
"-392 22 LINE",
"-285 51 OFFCURVE",
"-189 107 OFFCURVE",
"-104 188 CURVE",
"-102 238 LINE",
"-63 239 LINE",
"-63 0 LINE"
);
},
{
closed = 1;
nodes = (
"344 635 LINE",
"344 670 LINE",
"20 670 LINE",
"20 635 LINE",
"69 634 LINE",
"69 36 LINE",
"20 35 LINE",
"20 0 LINE",
"527 0 LINE",
"527 179 LINE",
"488 178 LINE",
"486 128 LINE",
"387 85 OFFCURVE",
"287 49 OFFCURVE",
"188 22 CURVE",
"235 21 LINE",
"235 634 LINE"
);
}
);
};
layerId = "FABFC9D4-E17A-4CB6-8F8E-4923CD579275";
name = Regular;
paths = (
{
closed = 1;
nodes = (
"344 635 LINE",
"344 670 LINE",
"20 670 LINE",
"20 635 LINE",
"69 634 LINE",
"69 36 LINE",
"20 35 LINE",
"20 0 LINE",
"527 0 LINE",
"527 199 LINE",
"488 198 LINE",
"486 148 LINE",
"388 97 OFFCURVE",
"287 54 OFFCURVE",
"188 22 CURVE",
"235 21 LINE",
"235 634 LINE"
);
}
);
width = 547;
}
);
unicode = 004C;
},
{
glyphname = M;
lastChange = "2016-01-26 13:31:38 +0000";
layers = (
{
anchors = (
{
name = top;
position = "{484, 770}";
}
);
background = {
paths = (
{
closed = 1;
nodes = (
"503 308 LINE",
"320 670 LINE",
"151 670 LINE",
"59 36 LINE",
"10 35 LINE",
"10 0 LINE",
"234 0 LINE",
"234 35 LINE",
"185 36 LINE",
"200 625 LINE",
"166 619 LINE",
"410 112 LINE",
"437 112 LINE",
"661 617 LINE",
"629 614 LINE",
"666 36 LINE",
"617 35 LINE",
"617 0 LINE",
"899 0 LINE",
"899 35 LINE",
"850 36 LINE",
"779 670 LINE",
"630 670 LINE",
"466 281 LINE"
);
},
{
closed = 1;
nodes = (
"831 635 LINE",
"831 670 LINE",
"779 670 LINE",
"782 634 LINE"
);
},
{
closed = 1;
nodes = (
"151 670 LINE",
"100 670 LINE",
"100 635 LINE",
"149 634 LINE"
);
}
);
};
guideLines = (
{
angle = 270;
position = "{485, 552}";
},
{
position = "{131, 741}";
}
);
layerId = "FABFC9D4-E17A-4CB6-8F8E-4923CD579275";
name = Regular;
paths = (
{
closed = 1;
nodes = (
"501 308 LINE",
"326 670 LINE",
"161 670 LINE",
"59 36 LINE",
"10 35 LINE",
"10 0 LINE",
"234 0 LINE",
"234 35 LINE",
"185 36 LINE",
"196 625 LINE",
"162 619 LINE",
"400 112 LINE",
"431 112 LINE",
"661 617 LINE",
"629 614 LINE",
"666 36 LINE",
"617 35 LINE",
"617 0 LINE",
"899 0 LINE",
"899 35 LINE",
"850 36 LINE",
"779 670 LINE",
"630 670 LINE",
"460 281 LINE"
);
},
{
closed = 1;
nodes = (
"831 635 LINE",
"831 670 LINE",
"779 670 LINE",
"782 634 LINE"
);
},
{
closed = 1;
nodes = (
"161 670 LINE",
"100 670 LINE",
"100 635 LINE",
"159 634 LINE"
);
}
);
width = 909;
}
);
unicode = 004D;
},
{
glyphname = N;
lastChange = "2016-01-23 17:02:09 +0000";
layers = (
{
anchors = (
{
name = bottom;
position = "{332, -80}";
},
{
name = top;
position = "{356, 770}";
}
);
background = {
paths = (
{
closed = 1;
nodes = (
"-685 634 LINE",
"-636 635 LINE",
"-636 670 LINE",
"-770 670 LINE",
"-770 635 LINE",
"-721 634 LINE",
"-721 36 LINE",
"-770 35 LINE",
"-770 0 LINE",
"-636 0 LINE",
"-636 35 LINE",
"-685 36 LINE"
);
},
{
closed = 1;
nodes = (
"-236 158 LINE",
"-212 155 LINE",
"-536 670 LINE",
"-770 670 LINE",
"-770 635 LINE",
"-721 634 LINE",
"-295 0 LINE",
"-200 1 LINE",
"-200 634 LINE",
"-151 635 LINE",
"-151 670 LINE",
"-285 670 LINE",
"-285 635 LINE",
"-236 634 LINE"
);
},
{
closed = 1;
nodes = (
"115 634 LINE",
"164 635 LINE",
"164 670 LINE",
"30 670 LINE",
"30 635 LINE",
"79 634 LINE",
"79 36 LINE",
"30 35 LINE",
"30 0 LINE",
"204 0 LINE",
"204 35 LINE",
"115 36 LINE"
);
},
{
closed = 1;
nodes = (
"534 158 LINE",
"558 185 LINE",
"264 670 LINE",
"30 670 LINE",
"30 635 LINE",
"79 634 LINE",
"475 0 LINE",
"570 1 LINE",
"570 634 LINE",
"619 635 LINE",
"619 670 LINE",
"445 670 LINE",
"445 635 LINE",
"534 634 LINE"
);
}
);
};
guideLines = (
{
angle = 270;
position = "{342, 621}";
}
);
layerId = "FABFC9D4-E17A-4CB6-8F8E-4923CD579275";
name = Regular;
paths = (
{
closed = 1;
nodes = (
"160 36 LINE",
"209 35 LINE",
"209 0 LINE",
"15 0 LINE",
"15 35 LINE",
"64 36 LINE",
"79 634 LINE",
"30 635 LINE",
"30 670 LINE",
"264 670 LINE",
"568 165 LINE",
"552 158 LINE",
"509 634 LINE",
"460 635 LINE",
"460 670 LINE",
"654 670 LINE",
"654 635 LINE",
"605 634 LINE",
"580 1 LINE",
"455 0 LINE",
"86 623 LINE",
"115 634 LINE"
);
}
);
width = 664;
}
);
unicode = 004E;
},
{
glyphname = O;
lastChange = "2016-01-26 13:32:36 +0000";
layers = (
{
anchors = (
{
name = center;
position = "{376, 335}";
},
{
name = ogonek;
position = "{680, 10}";
},
{
name = top;
position = "{377, 770}";
}
);
background = {
paths = (
{
closed = 1;
nodes = (
"-2482 253 OFFCURVE",
"-2505 161 OFFCURVE",
"-2549 87 CURVE",
"-2597 45 OFFCURVE",
"-2737 -15 OFFCURVE",
"-2815 -15 CURVE SMOOTH",
"-2984 -15 OFFCURVE",
"-3099 103 OFFCURVE",
"-3099 301 CURVE SMOOTH",
"-3099 412 OFFCURVE",
"-3076 502 OFFCURVE",
"-3032 578 CURVE",
"-2984 619 OFFCURVE",
"-2844 679 OFFCURVE",
"-2766 679 CURVE SMOOTH",
"-2597 679 OFFCURVE",
"-2482 559 OFFCURVE",
"-2482 364 CURVE SMOOTH"
);
},
{
closed = 1;
nodes = (
"-2927 204 OFFCURVE",
"-2847 95 OFFCURVE",
"-2738 95 CURVE SMOOTH",
"-2643 95 LINE",
"-2674 68 LINE",
"-2658 125 OFFCURVE",
"-2654 231 OFFCURVE",
"-2654 308 CURVE SMOOTH",
"-2654 461 OFFCURVE",
"-2734 569 OFFCURVE",
"-2843 569 CURVE SMOOTH",
"-2938 569 LINE",
"-2907 596 LINE",
"-2923 540 OFFCURVE",
"-2927 434 OFFCURVE",
"-2927 356 CURVE SMOOTH"
);
},
{
closed = 1;
nodes = (
"-1996 566 OFFCURVE",
"-1876 494 OFFCURVE",
"-1876 284 CURVE SMOOTH",
"-1876 239 OFFCURVE",
"-1886 138 OFFCURVE",
"-1905 75 CURVE",
"-1865 105 LINE",
"-2061 105 OFFCURVE",
"-2182 176 OFFCURVE",
"-2182 386 CURVE SMOOTH",
"-2182 432 OFFCURVE",
"-2171 532 OFFCURVE",
"-2152 595 CURVE",
"-2188 566 LINE"
);
},
{
closed = 1;
nodes = (
"-2115 685 OFFCURVE",
"-2195 640 OFFCURVE",
"-2254 585 CURVE",
"-2318 507 OFFCURVE",
"-2350 401 OFFCURVE",
"-2350 316 CURVE SMOOTH",
"-2350 99 OFFCURVE",
"-2218 -15 OFFCURVE",
"-2034 -15 CURVE SMOOTH",
"-1942 -15 OFFCURVE",
"-1862 30 OFFCURVE",
"-1803 86 CURVE",
"-1738 163 OFFCURVE",
"-1708 270 OFFCURVE",
"-1708 354 CURVE SMOOTH",
"-1708 572 OFFCURVE",
"-1840 685 OFFCURVE",
"-2024 685 CURVE SMOOTH"
);
},
{
closed = 1;
nodes = (
"-1277 28 OFFCURVE",
"-1382 169 OFFCURVE",
"-1382 355 CURVE SMOOTH",
"-1382 521 OFFCURVE",
"-1323 639 OFFCURVE",
"-1246 639 CURVE SMOOTH",
"-1172 639 OFFCURVE",
"-1068 497 OFFCURVE",
"-1068 312 CURVE SMOOTH",
"-1068 146 OFFCURVE",
"-1127 28 OFFCURVE",
"-1204 28 CURVE SMOOTH"
);
},
{
closed = 1;
nodes = (
"-1570 186 OFFCURVE",
"-1513 75 OFFCURVE",
"-1410 11 CURVE",
"-1361 -5 OFFCURVE",
"-1288 -15 OFFCURVE",
"-1239 -15 CURVE SMOOTH",
"-1002 -15 OFFCURVE",
"-880 144 OFFCURVE",
"-880 361 CURVE SMOOTH",
"-880 481 OFFCURVE",
"-937 592 OFFCURVE",
"-1040 656 CURVE",
"-1089 672 OFFCURVE",
"-1163 682 OFFCURVE",
"-1212 682 CURVE SMOOTH",
"-1448 682 OFFCURVE",
"-1570 523 OFFCURVE",
"-1570 306 CURVE SMOOTH"
);
},
{
closed = 1;
nodes = (
"-494 20 OFFCURVE",
"-597 160 OFFCURVE",
"-597 345 CURVE SMOOTH",
"-597 543 OFFCURVE",
"-531 647 OFFCURVE",
"-446 647 CURVE SMOOTH",
"-355 647 OFFCURVE",
"-253 506 OFFCURVE",
"-253 322 CURVE SMOOTH",
"-253 124 OFFCURVE",
"-319 20 OFFCURVE",
"-404 20 CURVE SMOOTH"
);
},
{
closed = 1;
nodes = (
"-775 113 OFFCURVE",
"-645 -15 OFFCURVE",
"-429 -15 CURVE SMOOTH",
"-199 -15 OFFCURVE",
"-75 134 OFFCURVE",
"-75 351 CURVE SMOOTH",
"-75 555 OFFCURVE",
"-206 682 OFFCURVE",
"-422 682 CURVE SMOOTH",
"-651 682 OFFCURVE",
"-775 533 OFFCURVE",
"-775 316 CURVE SMOOTH"
);
},
{
closed = 1;
nodes = (
"425 616 OFFCURVE",
"539 531 OFFCURVE",
"539 284 CURVE SMOOTH",
"539 232 OFFCURVE",
"529 117 OFFCURVE",
"509 45 CURVE",
"540 55 LINE",
"326 55 OFFCURVE",
"213 139 OFFCURVE",
"213 386 CURVE SMOOTH",
"213 438 OFFCURVE",
"224 553 OFFCURVE",
"244 625 CURVE",
"217 616 LINE"
);
},
{
closed = 1;
nodes = (
"281 685 OFFCURVE",
"189 640 OFFCURVE",
"131 585 CURVE",
"67 507 OFFCURVE",
"35 401 OFFCURVE",
"35 316 CURVE SMOOTH",
"35 98 OFFCURVE",
"175 -15 OFFCURVE",
"370 -15 CURVE SMOOTH",
"471 -15 OFFCURVE",
"563 30 OFFCURVE",
"622 85 CURVE",
"687 163 OFFCURVE",
"716 269 OFFCURVE",
"716 354 CURVE SMOOTH",
"716 572 OFFCURVE",
"576 685 OFFCURVE",
"380 685 CURVE SMOOTH"
);
},
{
closed = 1;
nodes = (
"428 616 OFFCURVE",
"544 531 OFFCURVE",
"544 284 CURVE SMOOTH",
"544 232 OFFCURVE",
"534 117 OFFCURVE",
"514 45 CURVE",
"540 55 LINE",
"323 55 OFFCURVE",
"208 139 OFFCURVE",
"208 386 CURVE SMOOTH",
"208 438 OFFCURVE",
"219 553 OFFCURVE",
"239 625 CURVE",
"217 616 LINE"
);
},
{
closed = 1;
nodes = (
"279 685 OFFCURVE",
"184 640 OFFCURVE",
"126 585 CURVE",
"57 507 OFFCURVE",
"30 401 OFFCURVE",
"30 316 CURVE SMOOTH",
"30 98 OFFCURVE",
"172 -15 OFFCURVE",
"370 -15 CURVE SMOOTH",
"473 -15 OFFCURVE",
"568 30 OFFCURVE",
"627 85 CURVE",
"692 163 OFFCURVE",
"721 269 OFFCURVE",
"721 354 CURVE SMOOTH",
"721 572 OFFCURVE",
"579 685 OFFCURVE",
"380 685 CURVE SMOOTH"
);
}
);
};
guideLines = (
{
angle = 270;
position = "{376, 331}";
}
);
layerId = "FABFC9D4-E17A-4CB6-8F8E-4923CD579275";
name = Regular;
paths = (
{
closed = 1;
nodes = (
"422 616 OFFCURVE",
"534 531 OFFCURVE",
"534 284 CURVE SMOOTH",
"534 232 OFFCURVE",
"524 117 OFFCURVE",
"504 45 CURVE",
"540 55 LINE",
"329 55 OFFCURVE",
"218 139 OFFCURVE",
"218 386 CURVE SMOOTH",
"218 438 OFFCURVE",
"229 553 OFFCURVE",
"249 625 CURVE",
"217 616 LINE"
);
},
{
closed = 1;
nodes = (
"283 685 OFFCURVE",
"194 640 OFFCURVE",
"136 585 CURVE",
"72 507 OFFCURVE",
"40 401 OFFCURVE",
"40 316 CURVE SMOOTH",
"40 98 OFFCURVE",
"178 -15 OFFCURVE",
"370 -15 CURVE SMOOTH",
"469 -15 OFFCURVE",
"558 30 OFFCURVE",
"617 85 CURVE",
"682 163 OFFCURVE",
"711 269 OFFCURVE",
"711 354 CURVE SMOOTH",
"711 572 OFFCURVE",
"573 685 OFFCURVE",
"380 685 CURVE SMOOTH"
);
}
);
width = 751;
}
);
unicode = 004F;
},
{
glyphname = Oslash;
lastChange = "2016-01-22 13:09:11 +0000";
layers = (
{
anchors = (
{
name = _center;
position = "{380.5, 335}";
}
);
components = (
{
name = O;
}
);
layerId = "FABFC9D4-E17A-4CB6-8F8E-4923CD579275";
name = Regular;
paths = (
{
closed = 1;
nodes = (
"509 632 LINE",
"213 43 LINE",
"246 27 LINE",
"542 618 LINE"
);
}
);
width = 761;
}
);
unicode = 00D8;
},
{
glyphname = OE;
lastChange = "2016-01-22 19:47:13 +0000";
layers = (
{
anchors = (
{
name = top;
position = "{566, 770}";
}
);
background = {
paths = (
{
closed = 1;
nodes = (
"430 1416 OFFCURVE",
"544 1331 OFFCURVE",
"544 1084 CURVE SMOOTH",
"544 1032 OFFCURVE",
"534 917 OFFCURVE",
"514 845 CURVE",
"545 855 LINE",
"331 855 OFFCURVE",
"218 939 OFFCURVE",
"218 1186 CURVE SMOOTH",
"218 1238 OFFCURVE",
"229 1353 OFFCURVE",
"249 1425 CURVE",
"222 1416 LINE"
);
},
{
closed = 1;
nodes = (
"286 1485 OFFCURVE",
"194 1440 OFFCURVE",
"136 1385 CURVE",
"72 1307 OFFCURVE",
"40 1201 OFFCURVE",
"40 1116 CURVE SMOOTH",
"40 898 OFFCURVE",
"180 785 OFFCURVE",
"375 785 CURVE SMOOTH",
"476 785 OFFCURVE",
"568 830 OFFCURVE",
"627 885 CURVE",
"692 963 OFFCURVE",
"721 1069 OFFCURVE",
"721 1154 CURVE SMOOTH",
"721 1372 OFFCURVE",
"581 1485 OFFCURVE",
"385 1485 CURVE SMOOTH"
);
},
{
closed = 1;
nodes = (
"1002 979 LINE",
"963 978 LINE",
"961 928 LINE",
"873 885 OFFCURVE",
"786 849 OFFCURVE",
"698 822 CURVE",
"714 812 LINE",
"710 1458 LINE",
"698 1448 LINE",
"779 1421 OFFCURVE",
"860 1385 OFFCURVE",
"941 1342 CURVE",
"943 1292 LINE",
"982 1291 LINE",
"982 1470 LINE",
"495 1470 LINE",
"495 1435 LINE",
"544 1434 LINE",
"544 836 LINE",
"495 835 LINE",
"495 800 LINE",
"1002 800 LINE"
);
},
{
closed = 1;
nodes = (
"899 1128 LINE",
"899 1165 LINE",
"667 1165 LINE",
"643 1128 LINE"
);
},
{
closed = 1;
nodes = (
"876 328 LINE",
"876 365 LINE",
"644 365 LINE",
"620 328 LINE"
);
},
{
closed = 1;
nodes = (
"397 668 LINE",
"543 641 OFFCURVE",
"766 585 OFFCURVE",
"920 542 CURVE",
"922 492 LINE",
"961 491 LINE",
"961 670 LINE",
"406 673 LINE"
);
},
{
closed = 1;
nodes = (
"693 336 LINE SMOOTH",
"695 524 OFFCURVE",
"588 672 OFFCURVE",
"403 673 CURVE SMOOTH",
"286 674 OFFCURVE",
"194 640 OFFCURVE",
"136 585 CURVE",
"72 507 OFFCURVE",
"40 401 OFFCURVE",
"40 316 CURVE SMOOTH",
"40 113 OFFCURVE",
"167 -15 OFFCURVE",
"366 -15 CURVE SMOOTH",
"434 -15 OFFCURVE",
"500 13 OFFCURVE",
"558 75 CURVE",
"544 89 LINE",
"321 89 OFFCURVE",
"218 164 OFFCURVE",
"218 386 CURVE SMOOTH",
"218 436 OFFCURVE",
"229 547 OFFCURVE",
"249 617 CURVE",
"233 608 LINE",
"403 608 OFFCURVE",
"528 505 OFFCURVE",
"528 254 CURVE SMOOTH",
"528 0 LINE",
"981 0 LINE",
"981 179 LINE",
"942 178 LINE",
"940 128 LINE",
"852 85 OFFCURVE",
"765 49 OFFCURVE",
"677 22 CURVE",
"690 12 LINE"
);
}
);
};
layerId = "FABFC9D4-E17A-4CB6-8F8E-4923CD579275";
name = Regular;
paths = (
{
closed = 1;
nodes = (
"876 328 LINE",
"876 365 LINE",
"644 365 LINE",
"620 328 LINE"
);
},
{
closed = 1;
nodes = (
"691 658 LINE",
"679 648 LINE",
"760 621 OFFCURVE",
"841 585 OFFCURVE",
"922 542 CURVE",
"924 492 LINE",
"963 491 LINE",
"963 670 LINE",
"474 670 LINE",
"474 635 LINE",
"528 634 LINE",
"528 0 LINE",
"981 0 LINE",
"981 179 LINE",
"942 178 LINE",
"940 128 LINE",
"852 85 OFFCURVE",
"765 49 OFFCURVE",
"677 22 CURVE",
"691 12 LINE"
);
},
{
closed = 1;
nodes = (
"573 638 LINE",
"547 663 OFFCURVE",
"498 672 OFFCURVE",
"403 673 CURVE SMOOTH",
"286 674 OFFCURVE",
"194 640 OFFCURVE",
"136 585 CURVE",
"72 507 OFFCURVE",
"40 401 OFFCURVE",
"40 316 CURVE SMOOTH",
"40 113 OFFCURVE",
"167 -15 OFFCURVE",
"366 -15 CURVE SMOOTH",
"434 -15 OFFCURVE",
"500 15 OFFCURVE",
"558 80 CURVE",
"544 94 LINE",
"321 94 OFFCURVE",
"218 168 OFFCURVE",
"218 386 CURVE SMOOTH",
"218 436 OFFCURVE",
"229 547 OFFCURVE",
"249 617 CURVE",
"233 608 LINE",
"403 608 OFFCURVE",
"500 561 OFFCURVE",
"552 491 CURVE"
);
}
);
width = 1027;
}
);
unicode = 0152;
},
{
glyphname = P;
lastChange = "2016-01-26 14:15:58 +0000";
layers = (
{
background = {
paths = (
{
closed = 1;
nodes = (
"-1160 36 LINE",
"-1051 35 LINE",
"-1051 0 LINE",
"-1375 0 LINE",
"-1375 35 LINE",
"-1326 36 LINE",
"-1326 634 LINE",
"-1375 635 LINE",
"-1375 670 LINE",
"-963 670 LINE",
"-868 654 OFFCURVE",
"-805 581 OFFCURVE",
"-805 493 CURVE SMOOTH",
"-805 329 OFFCURVE",
"-932 246 OFFCURVE",
"-1183 246 CURVE",
"-1183 284 LINE",
"-1047 284 OFFCURVE",
"-983 338 OFFCURVE",
"-983 452 CURVE SMOOTH",
"-983 555 OFFCURVE",
"-1057 635 OFFCURVE",
"-1160 635 CURVE"
);
},
{
closed = 1;
nodes = (
"-460 36 LINE",
"-351 35 LINE",
"-351 0 LINE",
"-675 0 LINE",
"-675 35 LINE",
"-626 36 LINE",
"-626 634 LINE",
"-675 635 LINE",
"-675 670 LINE",
"-482 668 LINE",
"-482 668 OFFCURVE",
"-393 680 OFFCURVE",
"-333 680 CURVE",
"-183 680 OFFCURVE",
"-105 581 OFFCURVE",
"-105 493 CURVE SMOOTH",
"-105 329 OFFCURVE",
"-232 246 OFFCURVE",
"-483 246 CURVE",
"-483 284 LINE",
"-347 284 OFFCURVE",
"-283 338 OFFCURVE",
"-283 452 CURVE SMOOTH",
"-283 555 OFFCURVE",
"-357 635 OFFCURVE",
"-460 635 CURVE"
);
},
{
closed = 1;
nodes = (
"240 36 LINE",
"349 35 LINE",
"349 0 LINE",
"25 0 LINE",
"25 35 LINE",
"74 36 LINE",
"74 634 LINE",
"25 635 LINE",
"25 670 LINE",
"218 668 LINE",
"367 680 LINE",
"517 680 OFFCURVE",
"595 581 OFFCURVE",
"595 493 CURVE SMOOTH",
"595 329 OFFCURVE",
"468 246 OFFCURVE",
"217 246 CURVE",
"217 284 LINE",
"353 284 OFFCURVE",
"417 338 OFFCURVE",
"417 452 CURVE SMOOTH",
"417 555 OFFCURVE",
"343 635 OFFCURVE",
"240 635 CURVE"
);
}
);
};
layerId = "FABFC9D4-E17A-4CB6-8F8E-4923CD579275";
name = Regular;
paths = (
{
closed = 1;
nodes = (
"240 36 LINE",
"349 35 LINE",
"349 0 LINE",
"25 0 LINE",
"25 35 LINE",
"74 36 LINE",
"74 634 LINE",
"25 635 LINE",
"25 670 LINE",
"218 668 LINE",
"367 680 LINE",
"517 680 OFFCURVE",
"595 587 OFFCURVE",
"595 479 CURVE SMOOTH",
"595 339 OFFCURVE",
"474 251 OFFCURVE",
"236 246 CURVE SMOOTH",
"217 246 LINE",
"217 284 LINE",
"341 284 OFFCURVE",
"417 345 OFFCURVE",
"417 450 CURVE SMOOTH",
"417 556 OFFCURVE",
"343 635 OFFCURVE",
"240 635 CURVE"
);
}
);
width = 625;
}
);
unicode = 0050;
},
{
glyphname = Thorn;
lastChange = "2016-01-22 15:10:06 +0000";
layers = (
{
background = {
paths = (
{
closed = 1;
nodes = (
"240 36 LINE",
"349 35 LINE",
"349 0 LINE",
"25 0 LINE",
"25 35 LINE",
"74 36 LINE",
"74 634 LINE",
"25 635 LINE",
"25 670 LINE",
"218 668 LINE",
"367 680 LINE",
"517 680 OFFCURVE",
"595 581 OFFCURVE",
"595 493 CURVE SMOOTH",
"595 329 OFFCURVE",
"468 246 OFFCURVE",
"217 246 CURVE",
"217 284 LINE",
"353 284 OFFCURVE",
"417 338 OFFCURVE",
"417 452 CURVE SMOOTH",
"417 555 OFFCURVE",
"343 635 OFFCURVE",
"240 635 CURVE"
);
}
);
};
layerId = "FABFC9D4-E17A-4CB6-8F8E-4923CD579275";
name = Regular;
paths = (
{
closed = 1;
nodes = (
"343 525 OFFCURVE",
"417 445 OFFCURVE",
"417 342 CURVE SMOOTH",
"417 228 OFFCURVE",
"353 174 OFFCURVE",
"217 174 CURVE",
"217 136 LINE",
"468 136 OFFCURVE",
"595 219 OFFCURVE",
"595 383 CURVE SMOOTH",
"595 471 OFFCURVE",
"517 570 OFFCURVE",
"367 570 CURVE",
"218 558 LINE",
"219 526 LINE",
"240 525 LINE"
);
},
{
closed = 1;
nodes = (
"241 634 LINE",
"310 635 LINE",
"310 670 LINE",
"26 670 LINE",
"26 635 LINE",
"75 634 LINE",
"75 36 LINE",
"26 35 LINE",
"26 0 LINE",
"310 0 LINE",
"310 35 LINE",
"241 36 LINE"
);
}
);
width = 600;
}
);
unicode = 00DE;
},
{
glyphname = Q;
lastChange = "2016-01-22 12:46:16 +0000";
layers = (
{
background = {
components = (
{
name = O;
}
);
paths = (
{
closed = 1;
nodes = (
"-850 -100 LINE",
"-838 -137 LINE",
"-660 -137 OFFCURVE",
"-505 -264 OFFCURVE",
"-384 -264 CURVE",
"-163 -112 LINE",
"-189 -79 LINE",
"-237 -101 OFFCURVE",
"-281 -111 OFFCURVE",
"-325 -111 CURVE SMOOTH",
"-417 -111 OFFCURVE",
"-550 -57 OFFCURVE",
"-648 -59 CURVE",
"-469 23 LINE",
"-491 56 LINE"
);
},
{
closed = 1;
nodes = (
"188 -84 LINE",
"162 -137 LINE",
"301 -188 OFFCURVE",
"599 -244 OFFCURVE",
"720 -244 CURVE",
"781 -84 LINE",
"641 -97 OFFCURVE",
"422 -97 OFFCURVE",
"287 -89 CURVE",
"531 23 LINE",
"509 56 LINE"
);
}
);
};
components = (
{
name = O;
}
);
layerId = "FABFC9D4-E17A-4CB6-8F8E-4923CD579275";
name = Regular;
paths = (
{
closed = 1;
nodes = (
"217 -52 LINE",
"217 -114 LINE",
"341 -174 OFFCURVE",
"579 -242 OFFCURVE",
"696 -250 CURVE",
"748 -84 LINE",
"608 -95 OFFCURVE",
"398 -91 OFFCURVE",
"273 -73 CURVE",
"503 9 LINE",
"481 42 LINE"
);
}
);
width = 750;
}
);
unicode = 0051;
},
{
glyphname = R;
lastChange = "2016-01-26 14:17:35 +0000";
layers = (
{
anchors = (
{
name = top;
position = "{341, 770}";
}
);
background = {
paths = (
{
closed = 1;
nodes = (
"-2860 36 LINE",
"-2751 35 LINE",
"-2751 0 LINE",
"-3075 0 LINE",
"-3075 35 LINE",
"-3026 36 LINE",
"-3026 634 LINE",
"-3075 635 LINE",
"-3075 670 LINE",
"-2859 670 LINE",
"-2663 670 LINE",
"-2570 655 OFFCURVE",
"-2515 595 OFFCURVE",
"-2515 509 CURVE SMOOTH",
"-2515 362 OFFCURVE",
"-2649 278 OFFCURVE",
"-2883 278 CURVE",
"-2883 316 LINE",
"-2754 316 OFFCURVE",
"-2693 365 OFFCURVE",
"-2693 468 CURVE SMOOTH",
"-2693 565 OFFCURVE",
"-2759 633 OFFCURVE",
"-2860 633 CURVE"
);
},
{
closed = 1;
nodes = (
"-2762 291 LINE",
"-2619 334 LINE",
"-2603 301 LINE SMOOTH",
"-2560 214 OFFCURVE",
"-2499 138 OFFCURVE",
"-2447 113 CURVE",
"-2404 135 LINE",
"-2389 106 LINE",
"-2566 -11 LINE",
"-2627 19 OFFCURVE",
"-2693 107 OFFCURVE",
"-2732 211 CURVE SMOOTH"
);
},
{
closed = 1;
nodes = (
"-2060 36 LINE",
"-2011 35 LINE",
"-2011 0 LINE",
"-2275 0 LINE",
"-2275 35 LINE",
"-2226 36 LINE",
"-2226 634 LINE",
"-2275 635 LINE",
"-2275 670 LINE",
"-1863 670 LINE",
"-1768 654 OFFCURVE",
"-1705 581 OFFCURVE",
"-1705 493 CURVE SMOOTH",
"-1705 329 OFFCURVE",
"-1832 246 OFFCURVE",
"-2083 246 CURVE",
"-2083 284 LINE",
"-1947 284 OFFCURVE",
"-1883 338 OFFCURVE",
"-1883 452 CURVE SMOOTH",
"-1883 555 OFFCURVE",
"-1957 635 OFFCURVE",
"-2060 635 CURVE"
);
},
{
closed = 1;
nodes = (
"-1670 36 LINE",
"-1621 35 LINE",
"-1621 0 LINE",
"-1929 0 LINE",
"-1929 35 LINE",
"-1880 36 LINE",
"-1998 268 LINE",
"-1878 344 LINE"
);
},
{
closed = 1;
nodes = (
"-970 36 LINE",
"-921 35 LINE",
"-921 0 LINE",
"-1229 0 LINE",
"-1229 35 LINE",
"-1180 36 LINE",
"-1298 268 LINE",
"-1178 344 LINE"
);
},
{
closed = 1;
nodes = (
"-1360 36 LINE",
"-1311 35 LINE",
"-1311 0 LINE",
"-1575 0 LINE",
"-1575 35 LINE",
"-1526 36 LINE",
"-1526 634 LINE",
"-1575 635 LINE",
"-1575 670 LINE",
"-1382 668 LINE",
"-1382 668 OFFCURVE",
"-1293 680 OFFCURVE",
"-1233 680 CURVE SMOOTH",
"-1083 680 OFFCURVE",
"-1005 581 OFFCURVE",
"-1005 493 CURVE SMOOTH",
"-1005 329 OFFCURVE",
"-1132 246 OFFCURVE",
"-1383 246 CURVE",
"-1383 284 LINE",
"-1247 284 OFFCURVE",
"-1183 338 OFFCURVE",
"-1183 452 CURVE SMOOTH",
"-1183 555 OFFCURVE",
"-1257 635 OFFCURVE",
"-1360 635 CURVE"
);
},
{
closed = 1;
nodes = (
"-170 36 LINE",
"-121 35 LINE",
"-121 0 LINE",
"-429 0 LINE",
"-429 35 LINE",
"-380 36 LINE",
"-498 268 LINE",
"-378 344 LINE"
);
},
{
closed = 1;
nodes = (
"-560 36 LINE",
"-511 35 LINE",
"-511 0 LINE",
"-775 0 LINE",
"-775 35 LINE",
"-726 36 LINE",
"-726 634 LINE",
"-775 635 LINE",
"-775 670 LINE",
"-582 668 LINE",
"-433 680 LINE",
"-283 680 OFFCURVE",
"-205 581 OFFCURVE",
"-205 493 CURVE SMOOTH",
"-205 329 OFFCURVE",
"-332 246 OFFCURVE",
"-583 246 CURVE",
"-583 284 LINE",
"-447 284 OFFCURVE",
"-383 338 OFFCURVE",
"-383 452 CURVE SMOOTH",
"-383 555 OFFCURVE",
"-457 635 OFFCURVE",
"-560 635 CURVE"
);
},
{
closed = 1;
nodes = (
"630 36 LINE",
"679 35 LINE",
"679 0 LINE",
"438 0 LINE",
"302 268 LINE",
"422 344 LINE"
);
},
{
closed = 1;
nodes = (
"240 36 LINE",
"289 35 LINE",
"289 0 LINE",
"25 0 LINE",
"25 35 LINE",
"74 36 LINE",
"74 634 LINE",
"25 635 LINE",
"25 670 LINE",
"218 668 LINE",
"367 680 LINE",
"517 680 OFFCURVE",
"595 581 OFFCURVE",
"595 493 CURVE SMOOTH",
"595 329 OFFCURVE",
"468 246 OFFCURVE",
"217 246 CURVE",
"217 284 LINE",
"353 284 OFFCURVE",
"417 338 OFFCURVE",
"417 452 CURVE SMOOTH",
"417 555 OFFCURVE",
"343 635 OFFCURVE",
"240 635 CURVE"
);
}
);
};
layerId = "FABFC9D4-E17A-4CB6-8F8E-4923CD579275";
name = Regular;
paths = (
{
closed = 1;
nodes = (
"630 36 LINE",
"679 35 LINE",
"679 0 LINE",
"438 0 LINE",
"302 268 LINE",
"422 344 LINE"
);
},
{
closed = 1;
nodes = (
"289 35 LINE",
"289 0 LINE",
"25 0 LINE",
"25 35 LINE",
"74 36 LINE",
"74 634 LINE",
"25 635 LINE",
"25 670 LINE",
"218 668 LINE",
"367 680 LINE",
"517 680 OFFCURVE",
"595 589 OFFCURVE",
"595 484 CURVE SMOOTH",
"595 347 OFFCURVE",
"474 261 OFFCURVE",
"236 256 CURVE SMOOTH",
"217 256 LINE",
"217 294 LINE",
"341 294 OFFCURVE",
"417 353 OFFCURVE",
"417 455 CURVE SMOOTH",
"417 558 OFFCURVE",
"343 635 OFFCURVE",
"240 635 CURVE",
"240 36 LINE"
);
}
);
width = 699;
}
);
unicode = 0052;
},
{
glyphname = S;
lastChange = "2016-01-22 12:47:16 +0000";
layers = (
{
anchors = (
{
name = bottom;
position = "{268, -80}";
},
{
name = top;
position = "{289, 770}";
}
);
background = {
paths = (
{
closed = 1;
nodes = (
"338 71 OFFCURVE",
"274 10 OFFCURVE",
"251 5 CURVE",
"295 8 LINE",
"231 68 OFFCURVE",
"177 129 OFFCURVE",
"140 205 CURVE",
"25 115 LINE",
"67 33 OFFCURVE",
"145 -15 OFFCURVE",
"258 -15 CURVE SMOOTH",
"415 -15 OFFCURVE",
"516 87 OFFCURVE",
"516 201 CURVE SMOOTH",
"516 378 OFFCURVE",
"219 424 OFFCURVE",
"219 548 CURVE SMOOTH",
"219 611 OFFCURVE",
"248 657 OFFCURVE",
"282 672 CURVE",
"227 661 LINE",
"303 604 OFFCURVE",
"362 551 OFFCURVE",
"419 480 CURVE",
"522 591 LINE",
"479 643 OFFCURVE",
"406 685 OFFCURVE",
"322 685 CURVE SMOOTH",
"154 685 OFFCURVE",
"45 575 OFFCURVE",
"45 470 CURVE SMOOTH",
"45 294 OFFCURVE",
"338 262 OFFCURVE",
"338 131 CURVE SMOOTH"
);
}
);
};
layerId = "FABFC9D4-E17A-4CB6-8F8E-4923CD579275";
name = Regular;
paths = (
{
closed = 1;
nodes = (
"343 71 OFFCURVE",
"298 20 OFFCURVE",
"236 20 CURVE",
"128 212 LINE",
"15 125 LINE",
"57 43 OFFCURVE",
"140 -15 OFFCURVE",
"258 -15 CURVE SMOOTH",
"438 -15 OFFCURVE",
"521 87 OFFCURVE",
"521 181 CURVE SMOOTH",
"521 382 OFFCURVE",
"219 424 OFFCURVE",
"219 556 CURVE SMOOTH",
"219 614 OFFCURVE",
"248 650 OFFCURVE",
"309 650 CURVE",
"419 480 LINE",
"522 591 LINE",
"479 643 OFFCURVE",
"406 685 OFFCURVE",
"322 685 CURVE SMOOTH",
"135 685 OFFCURVE",
"47 595 OFFCURVE",
"47 480 CURVE SMOOTH",
"47 294 OFFCURVE",
"343 267 OFFCURVE",
"343 131 CURVE SMOOTH"
);
}
);
width = 542;
}
);
unicode = 0053;
},
{
glyphname = T;
lastChange = "2016-01-24 17:04:45 +0000";
layers = (
{
anchors = (
{
name = bottom;
position = "{298, -80}";
},
{
name = center;
position = "{320, 335}";
},
{
name = top;
position = "{319, 770}";
}
);
background = {
paths = (
{
closed = 1;
nodes = (
"261 648 LINE",
"193 621 OFFCURVE",
"124 585 OFFCURVE",
"56 542 CURVE",
"54 492 LINE",
"15 491 LINE",
"15 670 LINE",
"625 670 LINE",
"625 491 LINE",
"586 492 LINE",
"584 542 LINE",
"516 585 OFFCURVE",
"447 621 OFFCURVE",
"379 648 CURVE",
"403 648 LINE",
"403 36 LINE",
"452 35 LINE",
"452 0 LINE",
"188 0 LINE",
"188 35 LINE",
"237 36 LINE",
"237 648 LINE"
);
}
);
};
guideLines = (
{
angle = 270;
position = "{319, 574}";
}
);
layerId = "FABFC9D4-E17A-4CB6-8F8E-4923CD579275";
name = Regular;
paths = (
{
closed = 1;
nodes = (
"261 648 LINE",
"193 617 OFFCURVE",
"124 576 OFFCURVE",
"56 527 CURVE",
"54 477 LINE",
"15 476 LINE",
"15 670 LINE",
"625 670 LINE",
"625 476 LINE",
"586 477 LINE",
"584 527 LINE",
"516 576 OFFCURVE",
"447 617 OFFCURVE",
"379 648 CURVE",
"403 648 LINE",
"403 36 LINE",
"482 35 LINE",
"482 0 LINE",
"158 0 LINE",
"158 35 LINE",
"237 36 LINE",
"237 648 LINE"
);
}
);
width = 640;
}
);
unicode = 0054;
},
{
glyphname = U;
lastChange = "2016-01-26 13:32:58 +0000";
layers = (
{
anchors = (
{
name = ogonek;
position = "{647, 10}";
},
{
name = top;
position = "{359, 770}";
}
);
background = {
paths = (
{
closed = 1;
nodes = (
"-188 -15 OFFCURVE",
"-96 95 OFFCURVE",
"-96 266 CURVE SMOOTH",
"-96 389 OFFCURVE",
"-86 511 OFFCURVE",
"-86 634 CURVE",
"-37 635 LINE",
"-37 670 LINE",
"-201 670 LINE",
"-201 635 LINE",
"-152 634 LINE",
"-142 504 OFFCURVE",
"-132 335 OFFCURVE",
"-132 245 CURVE SMOOTH",
"-132 121 OFFCURVE",
"-228 22 OFFCURVE",
"-318 22 CURVE SMOOTH",
"-394 22 OFFCURVE",
"-470 91 OFFCURVE",
"-470 295 CURVE SMOOTH",
"-470 634 LINE",
"-421 635 LINE",
"-421 670 LINE",
"-685 670 LINE",
"-685 635 LINE",
"-636 634 LINE",
"-636 266 LINE SMOOTH",
"-636 85 OFFCURVE",
"-534 -15 OFFCURVE",
"-341 -15 CURVE SMOOTH"
);
},
{
closed = 1;
nodes = (
"494 147 LINE",
"470 104 OFFCURVE",
"431 74 OFFCURVE",
"386 74 CURVE SMOOTH",
"302 74 OFFCURVE",
"230 141 OFFCURVE",
"230 311 CURVE SMOOTH",
"230 634 LINE",
"279 635 LINE",
"279 670 LINE",
"15 670 LINE",
"15 635 LINE",
"64 634 LINE",
"64 286 LINE SMOOTH",
"64 81 OFFCURVE",
"169 -15 OFFCURVE",
"312 -15 CURVE SMOOTH",
"420 -15 OFFCURVE",
"491 53 OFFCURVE",
"524 119 CURVE"
);
},
{
closed = 1;
nodes = (
"645 634 LINE",
"694 635 LINE",
"694 670 LINE",
"430 670 LINE",
"430 635 LINE",
"479 634 LINE",
"479 0 LINE",
"694 0 LINE",
"694 35 LINE",
"645 36 LINE"
);
}
);
};
guideLines = (
{
angle = 270;
position = "{359, 434}";
}
);
layerId = "FABFC9D4-E17A-4CB6-8F8E-4923CD579275";
name = Regular;
paths = (
{
closed = 1;
nodes = (
"494 147 LINE",
"465 97 OFFCURVE",
"429 74 OFFCURVE",
"380 74 CURVE SMOOTH",
"284 74 OFFCURVE",
"230 149 OFFCURVE",
"230 301 CURVE SMOOTH",
"230 634 LINE",
"279 635 LINE",
"279 670 LINE",
"15 670 LINE",
"15 635 LINE",
"64 634 LINE",
"64 286 LINE SMOOTH",
"64 94 OFFCURVE",
"146 -15 OFFCURVE",
"308 -15 CURVE SMOOTH",
"402 -15 OFFCURVE",
"480 33 OFFCURVE",
"524 119 CURVE"
);
},
{
closed = 1;
nodes = (
"694 635 LINE",
"694 670 LINE",
"430 670 LINE",
"430 635 LINE",
"479 634 LINE",
"479 88 LINE",
"613 0 LINE",
"645 0 LINE",
"645 634 LINE"
);
}
);
width = 719;
}
);
unicode = 0055;
},
{
glyphname = Uogonek;
lastChange = "2016-01-23 17:08:29 +0000";
layers = (
{
anchors = (
{
name = ogonek;
position = "{647, 10}";
},
{
name = top;
position = "{359, 770}";
}
);
components = (
{
disableAlignment = 1;
name = ogonekcomb.case;
transform = "{1, 0, 0, 1, 208, 0}";
}
);
layerId = "FABFC9D4-E17A-4CB6-8F8E-4923CD579275";
name = Regular;
paths = (
{
closed = 1;
nodes = (
"494 147 LINE",
"465 97 OFFCURVE",
"429 74 OFFCURVE",
"380 74 CURVE SMOOTH",
"284 74 OFFCURVE",
"230 159 OFFCURVE",
"230 311 CURVE SMOOTH",
"230 634 LINE",
"279 635 LINE",
"279 670 LINE",
"15 670 LINE",
"15 635 LINE",
"64 634 LINE",
"64 286 LINE SMOOTH",
"64 94 OFFCURVE",
"156 -15 OFFCURVE",
"308 -15 CURVE SMOOTH",
"402 -15 OFFCURVE",
"480 33 OFFCURVE",
"524 119 CURVE"
);
},
{
closed = 1;
nodes = (
"694 635 LINE",
"694 670 LINE",
"430 670 LINE",
"430 635 LINE",
"479 634 LINE",
"479 88 LINE",
"590 0 LINE",
"645 0 LINE",
"645 634 LINE"
);
}
);
width = 719;
}
);
unicode = 0172;
},
{
glyphname = V;
lastChange = "2016-01-22 12:49:00 +0000";
layers = (
{
background = {
paths = (
{
closed = 1;
nodes = (
"671 632 LINE",
"671 672 LINE",
"449 672 LINE",
"449 632 LINE",
"498 631 LINE",
"386 77 LINE",
"407 85 LINE",
"250 631 LINE",
"299 632 LINE",
"299 672 LINE",
"1 672 LINE",
"1 632 LINE",
"50 631 LINE",
"270 0 LINE",
"396 7 LINE",
"624 631 LINE"
);
}
);
};
guideLines = (
{
position = "{287, 540}";
}
);
layerId = "FABFC9D4-E17A-4CB6-8F8E-4923CD579275";
name = Regular;
paths = (
{
closed = 1;
nodes = (
"676 635 LINE",
"676 670 LINE",
"450 670 LINE",
"450 635 LINE",
"501 634 LINE",
"387 72 LINE",
"409 76 LINE",
"252 634 LINE",
"301 635 LINE",
"301 670 LINE",
"0 670 LINE",
"0 635 LINE",
"49 634 LINE",
"279 -9 LINE",
"403 8 LINE",
"627 634 LINE"
);
}
);
width = 682;
}
);
unicode = 0056;
},
{
glyphname = W;
lastChange = "2016-01-26 14:22:05 +0000";
layers = (
{
anchors = (
{
name = top;
position = "{586, 770}";
}
);
background = {
paths = (
{
closed = 1;
nodes = (
"-536 630 LINE",
"-536 670 LINE",
"-758 670 LINE",
"-758 630 LINE",
"-707 629 LINE",
"-818 79 LINE",
"-801 93 LINE",
"-948 629 LINE",
"-899 630 LINE",
"-899 670 LINE",
"-1182 670 LINE",
"-1182 630 LINE",
"-1133 629 LINE",
"-926 -2 LINE",
"-802 15 LINE",
"-585 629 LINE"
);
},
{
closed = 1;
nodes = (
"-111 630 LINE",
"-111 670 LINE",
"-333 670 LINE",
"-333 630 LINE",
"-282 629 LINE",
"-393 79 LINE",
"-376 93 LINE",
"-523 629 LINE",
"-474 630 LINE",
"-474 670 LINE",
"-757 670 LINE",
"-757 630 LINE",
"-708 629 LINE",
"-501 -2 LINE",
"-377 15 LINE",
"-160 629 LINE"
);
},
{
closed = 1;
nodes = (
"661 635 LINE",
"661 670 LINE",
"435 670 LINE",
"435 635 LINE",
"486 634 LINE",
"382 72 LINE",
"404 76 LINE",
"257 634 LINE",
"306 635 LINE",
"306 670 LINE",
"5 670 LINE",
"5 635 LINE",
"54 634 LINE",
"274 -9 LINE",
"398 8 LINE",
"612 634 LINE"
);
},
{
closed = 1;
nodes = (
"1093 635 LINE",
"1093 670 LINE",
"867 670 LINE",
"867 635 LINE",
"918 634 LINE",
"814 72 LINE",
"836 76 LINE",
"689 634 LINE",
"738 635 LINE",
"738 670 LINE",
"437 670 LINE",
"437 635 LINE",
"486 634 LINE",
"706 -9 LINE",
"830 8 LINE",
"1044 634 LINE"
);
}
);
};
layerId = "FABFC9D4-E17A-4CB6-8F8E-4923CD579275";
name = Regular;
paths = (
{
closed = 1;
nodes = (
"403 8 LINE",
"279 -9 LINE",
"59 634 LINE",
"10 635 LINE",
"10 670 LINE",
"311 670 LINE",
"311 635 LINE",
"262 634 LINE",
"409 76 LINE",
"387 72 LINE",
"491 634 LINE",
"442 635 LINE",
"442 670 LINE",
"733 670 LINE",
"733 635 LINE",
"684 634 LINE",
"831 76 LINE",
"809 72 LINE",
"913 634 LINE",
"862 635 LINE",
"862 670 LINE",
"1088 670 LINE",
"1088 635 LINE",
"1039 634 LINE",
"825 8 LINE",
"701 -9 LINE",
"521 534 LINE",
"612 634 LINE"
);
}
);
width = 1093;
}
);
unicode = 0057;
},
{
glyphname = X;
lastChange = "2016-01-22 12:49:34 +0000";
layers = (
{
background = {
paths = (
{
closed = 1;
nodes = (
"-1336 629 LINE",
"-1287 630 LINE",
"-1287 670 LINE",
"-1605 670 LINE",
"-1605 630 LINE",
"-1556 629 LINE",
"-1194 41 LINE",
"-1243 40 LINE",
"-1243 0 LINE",
"-925 0 LINE",
"-925 40 LINE",
"-974 41 LINE"
);
},
{
closed = 1;
nodes = (
"-1295 339 LINE",
"-1292 378 LINE",
"-1540 41 LINE",
"-1589 40 LINE",
"-1589 0 LINE",
"-1336 0 LINE",
"-1336 40 LINE",
"-1385 41 LINE"
);
},
{
closed = 1;
nodes = (
"-961 630 LINE",
"-961 670 LINE",
"-1209 670 LINE",
"-1209 630 LINE",
"-1160 629 LINE",
"-1259 360 LINE",
"-1262 322 LINE",
"-1010 629 LINE"
);
},
{
closed = 1;
nodes = (
"-519 629 LINE",
"-470 630 LINE",
"-470 670 LINE",
"-781 670 LINE",
"-781 630 LINE",
"-732 629 LINE",
"-416 41 LINE",
"-465 40 LINE",
"-465 0 LINE",
"-154 0 LINE",
"-154 40 LINE",
"-203 41 LINE"
);
},
{
closed = 1;
nodes = (
"-495 379 LINE",
"-492 418 LINE",
"-729 41 LINE",
"-788 40 LINE",
"-788 0 LINE",
"-535 0 LINE",
"-535 40 LINE",
"-599 41 LINE"
);
},
{
closed = 1;
nodes = (
"-163 630 LINE",
"-163 670 LINE",
"-411 670 LINE",
"-411 630 LINE",
"-347 629 LINE",
"-449 350 LINE",
"-452 312 LINE",
"-222 629 LINE"
);
},
{
closed = 1;
nodes = (
"271 634 LINE",
"320 635 LINE",
"320 670 LINE",
"12 670 LINE",
"12 635 LINE",
"61 634 LINE",
"397 36 LINE",
"348 35 LINE",
"348 0 LINE",
"656 0 LINE",
"656 35 LINE",
"607 36 LINE"
);
},
{
closed = 1;
nodes = (
"305 389 LINE",
"308 428 LINE",
"61 36 LINE",
"2 35 LINE",
"2 0 LINE",
"255 0 LINE",
"255 35 LINE",
"191 36 LINE"
);
},
{
closed = 1;
nodes = (
"647 635 LINE",
"647 670 LINE",
"399 670 LINE",
"399 635 LINE",
"463 634 LINE",
"341 347 LINE",
"338 309 LINE",
"588 634 LINE"
);
}
);
};
guideLines = (
{
angle = 270;
position = "{22, 630}";
},
{
angle = 270;
position = "{637, 630}";
}
);
layerId = "FABFC9D4-E17A-4CB6-8F8E-4923CD579275";
name = Regular;
paths = (
{
closed = 1;
nodes = (
"267 634 LINE",
"316 635 LINE",
"316 670 LINE",
"15 670 LINE",
"15 635 LINE",
"64 634 LINE",
"400 36 LINE",
"351 35 LINE",
"351 0 LINE",
"652 0 LINE",
"652 35 LINE",
"603 36 LINE"
);
},
{
closed = 1;
nodes = (
"308 389 LINE",
"311 428 LINE",
"64 36 LINE",
"5 35 LINE",
"5 0 LINE",
"258 0 LINE",
"258 35 LINE",
"194 36 LINE"
);
},
{
closed = 1;
nodes = (
"644 635 LINE",
"644 670 LINE",
"396 670 LINE",
"396 635 LINE",
"460 634 LINE",
"338 347 LINE",
"335 309 LINE",
"585 634 LINE"
);
}
);
width = 657;
}
);
unicode = 0058;
},
{
glyphname = Y;
lastChange = "2016-01-22 13:09:44 +0000";
layers = (
{
anchors = (
{
name = top;
position = "{361, 770}";
}
);
layerId = "FABFC9D4-E17A-4CB6-8F8E-4923CD579275";
name = Regular;
paths = (
{
closed = 1;
nodes = (
"646 635 LINE",
"646 670 LINE",
"420 670 LINE",
"420 635 LINE",
"471 634 LINE",
"372 312 LINE",
"394 316 LINE",
"252 634 LINE",
"301 635 LINE",
"301 670 LINE",
"0 670 LINE",
"0 635 LINE",
"49 634 LINE",
"264 231 LINE",
"388 248 LINE",
"597 634 LINE"
);
},
{
closed = 1;
nodes = (
"409 294 LINE",
"243 294 LINE",
"243 36 LINE",
"194 35 LINE",
"194 0 LINE",
"458 0 LINE",
"458 35 LINE",
"409 36 LINE"
);
}
);
width = 652;
}
);
unicode = 0059;
},
{
glyphname = Z;
lastChange = "2016-01-24 17:16:22 +0000";
layers = (
{
anchors = (
{
name = top;
position = "{286, 770}";
}
);
background = {
paths = (
{
closed = 1;
nodes = (
"-694 20 LINE",
"-681 0 LINE",
"-159 0 LINE",
"-159 199 LINE",
"-198 198 LINE",
"-200 148 LINE",
"-503 28 LINE",
"-498 14 LINE",
"-170 650 LINE",
"-188 670 LINE",
"-675 670 LINE",
"-675 471 LINE",
"-636 472 LINE",
"-634 522 LINE",
"-350 660 LINE",
"-363 660 LINE"
);
},
{
closed = 1;
nodes = (
"15 34 LINE",
"15 0 LINE",
"541 0 LINE",
"541 177 LINE",
"502 176 LINE",
"500 126 LINE",
"399 85 OFFCURVE",
"298 53 OFFCURVE",
"197 28 CURVE",
"198 14 LINE",
"523 626 LINE",
"523 670 LINE",
"28 670 LINE",
"28 493 LINE",
"67 494 LINE",
"69 544 LINE",
"165 586 OFFCURVE",
"261 621 OFFCURVE",
"357 647 CURVE",
"348 660 LINE"
);
}
);
};
layerId = "FABFC9D4-E17A-4CB6-8F8E-4923CD579275";
name = Regular;
paths = (
{
closed = 1;
nodes = (
"10 34 LINE",
"10 0 LINE",
"531 0 LINE",
"531 197 LINE",
"492 196 LINE",
"490 146 LINE",
"389 97 OFFCURVE",
"291 58 OFFCURVE",
"192 28 CURVE",
"193 14 LINE",
"518 626 LINE",
"518 670 LINE",
"28 670 LINE",
"28 478 LINE",
"67 479 LINE",
"69 529 LINE",
"165 577 OFFCURVE",
"261 617 OFFCURVE",
"357 647 CURVE",
"343 660 LINE"
);
}
);
width = 556;
}
);
unicode = 005A;
},
{
glyphname = Q.alt;
lastChange = "2016-01-23 18:42:56 +0000";
layers = (
{
background = {
components = (
{
name = O;
}
);
paths = (
{
closed = 1;
nodes = (
"-850 -100 LINE",
"-838 -137 LINE",
"-660 -137 OFFCURVE",
"-505 -264 OFFCURVE",
"-384 -264 CURVE",
"-163 -112 LINE",
"-189 -79 LINE",
"-237 -101 OFFCURVE",
"-281 -111 OFFCURVE",
"-325 -111 CURVE SMOOTH",
"-417 -111 OFFCURVE",
"-550 -57 OFFCURVE",
"-648 -59 CURVE",
"-469 23 LINE",
"-491 56 LINE"
);
},
{
closed = 1;
nodes = (
"188 -84 LINE",
"162 -137 LINE",
"301 -188 OFFCURVE",
"599 -244 OFFCURVE",
"720 -244 CURVE",
"781 -84 LINE",
"641 -97 OFFCURVE",
"422 -97 OFFCURVE",
"287 -89 CURVE",
"531 23 LINE",
"509 56 LINE"
);
}
);
};
components = (
{
name = O;
}
);
layerId = "FABFC9D4-E17A-4CB6-8F8E-4923CD579275";
name = Regular;
paths = (
{
closed = 1;
nodes = (
"385 31 CURVE",
"385 -1 LINE",
"462 -111 OFFCURVE",
"610 -242 OFFCURVE",
"696 -250 CURVE",
"748 -84 LINE",
"602 -62 OFFCURVE",
"521 -39 OFFCURVE"
);
}
);
width = 750;
}
);
},
{
glyphname = a;
lastChange = "2016-01-23 16:43:09 +0000";
layers = (
{
anchors = (
{
name = bottom;
position = "{230, 0}";
},
{
name = ogonek;
position = "{413, 10}";
},
{
name = top;
position = "{240, 574}";
}
);
background = {
paths = (
{
closed = 1;
nodes = (
"-40 58 LINE",
"-49 91 LINE",
"-83 78 LINE",
"-96 97 OFFCURVE",
"-100 117 OFFCURVE",
"-95 173 CURVE SMOOTH",
"-82 320 LINE SMOOTH",
"-70 455 OFFCURVE",
"-150 513 OFFCURVE",
"-252 513 CURVE SMOOTH",
"-304 513 OFFCURVE",
"-357 499 OFFCURVE",
"-411 475 CURVE",
"-463 310 LINE",
"-434 298 LINE",
"-414 344 LINE",
"-389 355 OFFCURVE",
"-356 361 OFFCURVE",
"-325 361 CURVE SMOOTH",
"-257 361 OFFCURVE",
"-229 323 OFFCURVE",
"-234 256 CURVE SMOOTH",
"-244 125 LINE SMOOTH",
"-249 58 OFFCURVE",
"-236 13 OFFCURVE",
"-197 -16 CURVE"
);
},
{
closed = 1;
nodes = (
"-197 230 LINE",
"-461 187 LINE",
"-471 166 OFFCURVE",
"-479 128 OFFCURVE",
"-479 97 CURVE SMOOTH",
"-479 33 OFFCURVE",
"-436 -15 OFFCURVE",
"-378 -15 CURVE SMOOTH",
"-327 -15 OFFCURVE",
"-252 22 OFFCURVE",
"-196 65 CURVE",
"-209 101 LINE",
"-234 77 OFFCURVE",
"-261 65 OFFCURVE",
"-279 65 CURVE SMOOTH",
"-298 65 OFFCURVE",
"-321 83 OFFCURVE",
"-321 127 CURVE SMOOTH",
"-321 142 OFFCURVE",
"-319 157 OFFCURVE",
"-316 167 CURVE",
"-201 195 LINE"
);
},
{
closed = 1;
nodes = (
"447 52 LINE",
"435 81 LINE",
"404 69 LINE",
"392 88 OFFCURVE",
"389 101 OFFCURVE",
"393 155 CURVE SMOOTH",
"403 290 LINE SMOOTH",
"412 418 OFFCURVE",
"335 465 OFFCURVE",
"246 465 CURVE SMOOTH",
"201 465 OFFCURVE",
"152 453 OFFCURVE",
"103 432 CURVE",
"57 288 LINE",
"84 278 LINE",
"100 312 LINE",
"122 322 OFFCURVE",
"154 328 OFFCURVE",
"180 328 CURVE SMOOTH",
"243 328 OFFCURVE",
"267 290 OFFCURVE",
"264 232 CURVE SMOOTH",
"257 112 LINE SMOOTH",
"253 51 OFFCURVE",
"264 9 OFFCURVE",
"300 -17 CURVE"
);
},
{
closed = 1;
nodes = (
"298 208 LINE",
"56 169 LINE",
"47 150 OFFCURVE",
"40 114 OFFCURVE",
"40 88 CURVE SMOOTH",
"40 28 OFFCURVE",
"79 -15 OFFCURVE",
"133 -15 CURVE SMOOTH",
"179 -15 OFFCURVE",
"248 18 OFFCURVE",
"299 57 CURVE",
"287 90 LINE",
"264 68 OFFCURVE",
"239 57 OFFCURVE",
"223 57 CURVE SMOOTH",
"205 57 OFFCURVE",
"185 72 OFFCURVE",
"185 116 CURVE SMOOTH",
"185 126 OFFCURVE",
"186 141 OFFCURVE",
"189 151 CURVE",
"294 176 LINE"
);
}
);
};
guideLines = (
{
angle = 269.648;
position = "{244, 498}";
}
);
layerId = "FABFC9D4-E17A-4CB6-8F8E-4923CD579275";
name = Regular;
paths = (
{
closed = 1;
nodes = (
"447 52 LINE",
"435 81 LINE",
"404 69 LINE",
"392 88 OFFCURVE",
"389 101 OFFCURVE",
"393 155 CURVE SMOOTH",
"403 290 LINE SMOOTH",
"412 418 OFFCURVE",
"335 465 OFFCURVE",
"246 465 CURVE SMOOTH",
"201 465 OFFCURVE",
"152 453 OFFCURVE",
"103 432 CURVE",
"57 288 LINE",
"84 278 LINE",
"100 312 LINE",
"122 322 OFFCURVE",
"154 328 OFFCURVE",
"180 328 CURVE SMOOTH",
"243 328 OFFCURVE",
"267 290 OFFCURVE",
"264 232 CURVE SMOOTH",
"257 112 LINE SMOOTH",
"253 51 OFFCURVE",
"264 9 OFFCURVE",
"300 -17 CURVE"
);
},
{
closed = 1;
nodes = (
"298 208 LINE",
"56 169 LINE",
"47 150 OFFCURVE",
"40 114 OFFCURVE",
"40 88 CURVE SMOOTH",
"40 28 OFFCURVE",
"79 -15 OFFCURVE",
"133 -15 CURVE SMOOTH",
"179 -15 OFFCURVE",
"248 18 OFFCURVE",
"299 57 CURVE",
"287 90 LINE",
"264 68 OFFCURVE",
"239 57 OFFCURVE",
"223 57 CURVE SMOOTH",
"205 57 OFFCURVE",
"185 72 OFFCURVE",
"185 116 CURVE SMOOTH",
"185 126 OFFCURVE",
"186 141 OFFCURVE",
"189 151 CURVE",
"294 176 LINE"
);
}
);
width = 459;
}
);
unicode = 0061;
},
{
glyphname = aogonek;
lastChange = "2016-01-23 17:13:38 +0000";
layers = (
{
anchors = (
{
name = _ogonek;
position = "{411, -37}";
}
);
components = (
{
name = a;
}
);
layerId = "FABFC9D4-E17A-4CB6-8F8E-4923CD579275";
name = Regular;
paths = (
{
closed = 1;
nodes = (
"302 12 OFFCURVE",
"243 -61 OFFCURVE",
"243 -133 CURVE SMOOTH",
"243 -202 OFFCURVE",
"290 -251 OFFCURVE",
"355 -251 CURVE SMOOTH",
"394 -251 OFFCURVE",
"427 -237 OFFCURVE",
"453 -218 CURVE",
"445 -193 LINE",
"378 -201 OFFCURVE",
"346 -157 OFFCURVE",
"346 -102 CURVE SMOOTH",
"346 -44 OFFCURVE",
"382 20 OFFCURVE",
"446 52 CURVE",
"431 52 LINE"
);
}
);
width = 459;
}
);
unicode = 0105;
},
{
glyphname = ae;
lastChange = "2016-01-22 14:49:17 +0000";
layers = (
{
background = {
paths = (
{
closed = 1;
nodes = (
"437 425 LINE",
"481 424 OFFCURVE",
"515 355 OFFCURVE",
"517 263 CURVE",
"390 252 LINE",
"390 220 LINE",
"674 230 LINE",
"675 374 OFFCURVE",
"602 465 OFFCURVE",
"486 465 CURVE SMOOTH",
"438 465 OFFCURVE",
"377 450 OFFCURVE",
"342 430 CURVE",
"292 378 OFFCURVE",
"260 292 OFFCURVE",
"260 209 CURVE SMOOTH",
"260 76 OFFCURVE",
"340 -15 OFFCURVE",
"458 -15 CURVE SMOOTH",
"544 -15 OFFCURVE",
"627 36 OFFCURVE",
"674 117 CURVE",
"656 133 LINE",
"625 114 OFFCURVE",
"584 103 OFFCURVE",
"544 103 CURVE SMOOTH",
"453 103 OFFCURVE",
"405 156 OFFCURVE",
"405 255 CURVE SMOOTH",
"405 325 OFFCURVE",
"426 395 OFFCURVE",
"457 428 CURVE"
);
},
{
closed = 1;
nodes = (
"447 52 LINE",
"435 81 LINE",
"404 69 LINE",
"392 88 OFFCURVE",
"389 101 OFFCURVE",
"393 155 CURVE SMOOTH",
"403 290 LINE SMOOTH",
"412 418 OFFCURVE",
"335 465 OFFCURVE",
"246 465 CURVE SMOOTH",
"201 465 OFFCURVE",
"152 453 OFFCURVE",
"103 432 CURVE",
"57 288 LINE",
"84 278 LINE",
"100 312 LINE",
"122 322 OFFCURVE",
"154 328 OFFCURVE",
"180 328 CURVE SMOOTH",
"243 328 OFFCURVE",
"267 290 OFFCURVE",
"264 232 CURVE SMOOTH",
"257 112 LINE SMOOTH",
"253 51 OFFCURVE",
"264 9 OFFCURVE",
"300 -17 CURVE"
);
},
{
closed = 1;
nodes = (
"298 208 LINE",
"56 169 LINE",
"47 150 OFFCURVE",
"40 114 OFFCURVE",
"40 88 CURVE SMOOTH",
"40 28 OFFCURVE",
"79 -15 OFFCURVE",
"133 -15 CURVE SMOOTH",
"179 -15 OFFCURVE",
"248 18 OFFCURVE",
"299 57 CURVE",
"287 90 LINE",
"264 68 OFFCURVE",
"239 57 OFFCURVE",
"223 57 CURVE SMOOTH",
"205 57 OFFCURVE",
"185 72 OFFCURVE",
"185 116 CURVE SMOOTH",
"185 126 OFFCURVE",
"186 141 OFFCURVE",
"189 151 CURVE",
"294 176 LINE"
);
}
);
};
layerId = "FABFC9D4-E17A-4CB6-8F8E-4923CD579275";
name = Regular;
paths = (
{
closed = 1;
nodes = (
"298 208 LINE",
"56 169 LINE",
"47 150 OFFCURVE",
"40 114 OFFCURVE",
"40 88 CURVE SMOOTH",
"40 28 OFFCURVE",
"79 -15 OFFCURVE",
"133 -15 CURVE SMOOTH",
"185 -15 OFFCURVE",
"268 14 OFFCURVE",
"321 52 CURVE",
"307 83 LINE",
"281 66 OFFCURVE",
"252 57 OFFCURVE",
"225 57 CURVE SMOOTH",
"199 57 OFFCURVE",
"185 79 OFFCURVE",
"185 116 CURVE SMOOTH",
"185 126 OFFCURVE",
"186 141 OFFCURVE",
"189 151 CURVE",
"294 176 LINE"
);
},
{
closed = 1;
nodes = (
"403 325 OFFCURVE",
"426 395 OFFCURVE",
"460 428 CURVE",
"440 425 LINE",
"484 424 OFFCURVE",
"518 355 OFFCURVE",
"520 263 CURVE",
"393 252 LINE",
"393 220 LINE",
"677 230 LINE",
"678 374 OFFCURVE",
"605 465 OFFCURVE",
"489 465 CURVE SMOOTH",
"333 465 OFFCURVE",
"268 355 OFFCURVE",
"268 209 CURVE",
"268 186 LINE SMOOTH",
"268 66 OFFCURVE",
"332 -15 OFFCURVE",
"459 -15 CURVE SMOOTH",
"545 -15 OFFCURVE",
"628 36 OFFCURVE",
"675 117 CURVE",
"657 133 LINE",
"626 114 OFFCURVE",
"585 103 OFFCURVE",
"545 103 CURVE SMOOTH",
"451 103 OFFCURVE",
"401 156 OFFCURVE",
"401 255 CURVE SMOOTH"
);
},
{
closed = 1;
nodes = (
"412 418 OFFCURVE",
"335 465 OFFCURVE",
"246 465 CURVE SMOOTH",
"201 465 OFFCURVE",
"152 453 OFFCURVE",
"103 432 CURVE",
"57 288 LINE",
"84 278 LINE",
"100 312 LINE",
"122 322 OFFCURVE",
"154 328 OFFCURVE",
"180 328 CURVE SMOOTH",
"247 328 OFFCURVE",
"272 290 OFFCURVE",
"268 209 CURVE",
"403 290 LINE"
);
}
);
width = 712;
}
);
unicode = 00E6;
},
{
glyphname = b;
lastChange = "2016-01-18 13:42:10 +0000";
layers = (
{
background = {
paths = (
{
closed = 1;
nodes = (
"-400 707 LINE",
"-583 647 LINE",
"-574 619 LINE",
"-536 627 LINE",
"-536 0 LINE",
"-511 0 LINE",
"-459 89 LINE",
"-400 142 LINE"
);
},
{
closed = 1;
nodes = (
"-137 121 OFFCURVE",
"-119 193 OFFCURVE",
"-119 262 CURVE SMOOTH",
"-119 388 OFFCURVE",
"-179 465 OFFCURVE",
"-301 465 CURVE",
"-423 322 LINE",
"-409 296 LINE",
"-355 350 LINE",
"-301 350 OFFCURVE",
"-259 310 OFFCURVE",
"-259 202 CURVE SMOOTH",
"-259 146 OFFCURVE",
"-270 86 OFFCURVE",
"-287 44 CURVE",
"-261 58 LINE",
"-305 68 OFFCURVE",
"-371 111 OFFCURVE",
"-420 177 CURVE",
"-473 66 LINE",
"-432 14 OFFCURVE",
"-347 -15 OFFCURVE",
"-311 -15 CURVE SMOOTH",
"-268 -15 OFFCURVE",
"-185 44 OFFCURVE",
"-161 83 CURVE SMOOTH"
);
},
{
closed = 1;
nodes = (
"200 707 LINE",
"17 647 LINE",
"26 619 LINE",
"64 627 LINE",
"64 37 LINE",
"200 58 LINE"
);
},
{
closed = 1;
nodes = (
"469 115 OFFCURVE",
"494 192 OFFCURVE",
"494 260 CURVE SMOOTH",
"494 378 OFFCURVE",
"415 465 OFFCURVE",
"299 465 CURVE",
"177 322 LINE",
"191 296 LINE",
"245 350 LINE",
"301 350 OFFCURVE",
"354 296 OFFCURVE",
"354 200 CURVE SMOOTH",
"354 145 OFFCURVE",
"343 85 OFFCURVE",
"318 44 CURVE",
"344 58 LINE",
"285 65 OFFCURVE",
"196 100 OFFCURVE",
"146 136 CURVE",
"65 37 LINE",
"111 12 OFFCURVE",
"227 -15 OFFCURVE",
"285 -15 CURVE SMOOTH",
"331 -15 OFFCURVE",
"413 38 OFFCURVE",
"438 73 CURVE"
);
}
);
};
layerId = "FABFC9D4-E17A-4CB6-8F8E-4923CD579275";
name = Regular;
paths = (
{
closed = 1;
nodes = (
"470 105 OFFCURVE",
"496 192 OFFCURVE",
"496 260 CURVE SMOOTH",
"496 378 OFFCURVE",
"416 465 OFFCURVE",
"299 465 CURVE",
"177 322 LINE",
"191 296 LINE",
"245 350 LINE",
"300 350 OFFCURVE",
"352 296 OFFCURVE",
"352 200 CURVE SMOOTH",
"352 145 OFFCURVE",
"342 85 OFFCURVE",
"318 44 CURVE",
"344 58 LINE",
"285 65 OFFCURVE",
"196 100 OFFCURVE",
"146 136 CURVE",
"61 37 LINE",
"108 12 OFFCURVE",
"226 -15 OFFCURVE",
"285 -15 CURVE SMOOTH",
"331 -15 OFFCURVE",
"413 28 OFFCURVE",
"438 63 CURVE"
);
},
{
closed = 1;
nodes = (
"202 59 LINE",
"209 684 LINE",
"195 708 LINE",
"10 652 LINE",
"20 623 LINE",
"58 631 LINE",
"61 37 LINE"
);
}
);
width = 536;
}
);
unicode = 0062;
},
{
glyphname = c;
lastChange = "2016-01-24 20:02:10 +0000";
layers = (
{
anchors = (
{
name = bottom;
position = "{237, -80}";
},
{
name = top;
position = "{259, 574}";
}
);
background = {
paths = (
{
closed = 1;
nodes = (
"-2062 -15 OFFCURVE",
"-1975 55 OFFCURVE",
"-1930 121 CURVE",
"-1952 142 LINE",
"-2000 123 OFFCURVE",
"-2037 116 OFFCURVE",
"-2074 116 CURVE SMOOTH",
"-2147 116 OFFCURVE",
"-2208 170 OFFCURVE",
"-2208 291 CURVE SMOOTH",
"-2208 368 OFFCURVE",
"-2188 435 OFFCURVE",
"-2167 468 CURVE",
"-2135 458 OFFCURVE",
"-2093 359 OFFCURVE",
"-2078 285 CURVE",
"-1926 339 LINE",
"-1946 441 OFFCURVE",
"-2011 512 OFFCURVE",
"-2122 510 CURVE SMOOTH",
"-2272 507 OFFCURVE",
"-2372 402 OFFCURVE",
"-2372 231 CURVE SMOOTH",
"-2372 78 OFFCURVE",
"-2276 -15 OFFCURVE",
"-2158 -15 CURVE SMOOTH"
);
},
{
closed = 1;
nodes = (
"-1456 -15 OFFCURVE",
"-1363 59 OFFCURVE",
"-1322 128 CURVE",
"-1346 148 LINE",
"-1388 126 OFFCURVE",
"-1420 116 OFFCURVE",
"-1460 116 CURVE SMOOTH",
"-1543 116 OFFCURVE",
"-1608 170 OFFCURVE",
"-1608 291 CURVE SMOOTH",
"-1608 368 OFFCURVE",
"-1588 435 OFFCURVE",
"-1567 468 CURVE",
"-1536 446 OFFCURVE",
"-1488 371 OFFCURVE",
"-1458 303 CURVE",
"-1332 381 LINE",
"-1366 451 OFFCURVE",
"-1441 510 OFFCURVE",
"-1522 510 CURVE SMOOTH",
"-1672 507 OFFCURVE",
"-1772 402 OFFCURVE",
"-1772 231 CURVE SMOOTH",
"-1772 78 OFFCURVE",
"-1676 -15 OFFCURVE",
"-1549 -15 CURVE SMOOTH"
);
},
{
closed = 1;
nodes = (
"-956 105 OFFCURVE",
"-1020 154 OFFCURVE",
"-1020 265 CURVE SMOOTH",
"-1020 335 OFFCURVE",
"-999 396 OFFCURVE",
"-969 427 CURVE",
"-941 407 OFFCURVE",
"-898 338 OFFCURVE",
"-871 276 CURVE",
"-756 347 LINE",
"-787 411 OFFCURVE",
"-855 465 OFFCURVE",
"-928 465 CURVE SMOOTH",
"-987 465 OFFCURVE",
"-1038 451 OFFCURVE",
"-1090 425 CURVE",
"-1136 374 OFFCURVE",
"-1165 299 OFFCURVE",
"-1165 210 CURVE SMOOTH",
"-1165 71 OFFCURVE",
"-1075 -15 OFFCURVE",
"-962 -15 CURVE SMOOTH",
"-856 -15 OFFCURVE",
"-775 55 OFFCURVE",
"-737 124 CURVE",
"-756 140 LINE",
"-788 118 OFFCURVE",
"-834 105 OFFCURVE",
"-879 105 CURVE SMOOTH"
);
},
{
closed = 1;
nodes = (
"-359 105 OFFCURVE",
"-416 154 OFFCURVE",
"-416 265 CURVE SMOOTH",
"-416 347 OFFCURVE",
"-389 417 OFFCURVE",
"-354 440 CURVE",
"-381 434 LINE",
"-358 429 OFFCURVE",
"-301 343 OFFCURVE",
"-274 276 CURVE",
"-161 347 LINE",
"-192 411 OFFCURVE",
"-257 465 OFFCURVE",
"-328 465 CURVE SMOOTH",
"-385 465 OFFCURVE",
"-433 451 OFFCURVE",
"-485 425 CURVE",
"-531 374 OFFCURVE",
"-560 299 OFFCURVE",
"-560 210 CURVE SMOOTH",
"-560 71 OFFCURVE",
"-472 -15 OFFCURVE",
"-362 -15 CURVE SMOOTH",
"-258 -15 OFFCURVE",
"-180 55 OFFCURVE",
"-142 124 CURVE",
"-161 140 LINE",
"-193 118 OFFCURVE",
"-239 105 OFFCURVE",
"-284 105 CURVE SMOOTH"
);
},
{
closed = 1;
nodes = (
"227 107 OFFCURVE",
"182 165 OFFCURVE",
"185 267 CURVE SMOOTH",
"187 343 OFFCURVE",
"217 418 OFFCURVE",
"254 440 CURVE",
"226 435 LINE",
"248 429 OFFCURVE",
"302 343 OFFCURVE",
"328 273 CURVE",
"443 340 LINE",
"406 421 OFFCURVE",
"343 465 OFFCURVE",
"264 465 CURVE SMOOTH",
"219 465 OFFCURVE",
"167 452 OFFCURVE",
"122 430 CURVE",
"72 379 OFFCURVE",
"40 293 OFFCURVE",
"40 209 CURVE SMOOTH",
"40 75 OFFCURVE",
"119 -15 OFFCURVE",
"237 -15 CURVE SMOOTH",
"323 -15 OFFCURVE",
"407 36 OFFCURVE",
"454 117 CURVE",
"436 133 LINE",
"402 112 OFFCURVE",
"356 101 OFFCURVE",
"312 103 CURVE SMOOTH"
);
}
);
};
backgroundImage = {
crop = "{{0, 0}, {3024, 4032}}";
imagePath = ../../../../var/folders/xp/9k2g5rln0g3214w24ld01r0h0000gn/T/com.apple.iChat/Messages/Transfers/IMG_0293.JPG;
locked = "1";
transform = "{0.465, 0, 0, 0.465, -721, -193}";
};
guideLines = (
{
position = "{23, 495}";
}
);
layerId = "FABFC9D4-E17A-4CB6-8F8E-4923CD579275";
name = Regular;
paths = (
{
closed = 1;
nodes = (
"227 107 OFFCURVE",
"182 165 OFFCURVE",
"185 267 CURVE SMOOTH",
"187 343 OFFCURVE",
"217 418 OFFCURVE",
"254 440 CURVE",
"226 435 LINE",
"248 429 OFFCURVE",
"302 343 OFFCURVE",
"328 273 CURVE",
"443 340 LINE",
"406 421 OFFCURVE",
"343 465 OFFCURVE",
"264 465 CURVE SMOOTH",
"219 465 OFFCURVE",
"167 452 OFFCURVE",
"122 430 CURVE",
"72 379 OFFCURVE",
"40 293 OFFCURVE",
"40 209 CURVE SMOOTH",
"40 75 OFFCURVE",
"119 -15 OFFCURVE",
"237 -15 CURVE SMOOTH",
"323 -15 OFFCURVE",
"407 36 OFFCURVE",
"454 117 CURVE",
"436 133 LINE",
"402 112 OFFCURVE",
"356 101 OFFCURVE",
"312 103 CURVE SMOOTH"
);
}
);
width = 483;
}
);
unicode = 0063;
},
{
glyphname = d;
lastChange = "2016-01-23 17:23:20 +0000";
layers = (
{
anchors = (
{
name = bottom;
position = "{281, -80}";
},
{
name = center;
position = "{268, 245}";
},
{
name = top;
position = "{394, 770}";
},
{
name = topright;
position = "{521, 670}";
}
);
background = {
paths = (
{
closed = 1;
nodes = (
"1584 1503 OFFCURVE",
"1533 1513 OFFCURVE",
"1477 1513 CURVE SMOOTH",
"1401 1513 OFFCURVE",
"1332 1471 OFFCURVE",
"1281 1415 CURVE",
"1257 1362 OFFCURVE",
"1244 1306 OFFCURVE",
"1244 1224 CURVE SMOOTH",
"1244 1067 OFFCURVE",
"1313 993 OFFCURVE",
"1401 993 CURVE SMOOTH",
"1470 993 OFFCURVE",
"1555 1066 OFFCURVE",
"1616 1138 CURVE",
"1604 1170 LINE",
"1584 1148 OFFCURVE",
"1538 1105 OFFCURVE",
"1506 1105 CURVE SMOOTH",
"1453 1105 OFFCURVE",
"1407 1144 OFFCURVE",
"1407 1283 CURVE SMOOTH",
"1407 1385 OFFCURVE",
"1412 1432 OFFCURVE",
"1418 1465 CURVE",
"1484 1471 OFFCURVE",
"1545 1462 OFFCURVE",
"1595 1432 CURVE",
"1637 1486 LINE"
);
},
{
closed = 1;
nodes = (
"1758 1077 LINE",
"1746 1109 LINE",
"1713 1093 LINE",
"1699 1111 OFFCURVE",
"1693 1131 OFFCURVE",
"1693 1187 CURVE SMOOTH",
"1693 1775 LINE",
"1548 1697 LINE",
"1548 1126 LINE SMOOTH",
"1548 1058 OFFCURVE",
"1566 1015 OFFCURVE",
"1608 990 CURVE"
);
},
{
closed = 1;
nodes = (
"-934 1467 OFFCURVE",
"-984 1497 OFFCURVE",
"-1043 1513 CURVE",
"-1210 1476 LINE",
"-1235 1391 OFFCURVE",
"-1246 1315 OFFCURVE",
"-1246 1235 CURVE SMOOTH",
"-1246 1065 OFFCURVE",
"-1176 993 OFFCURVE",
"-1107 993 CURVE SMOOTH",
"-1036 993 OFFCURVE",
"-949 1064 OFFCURVE",
"-884 1138 CURVE",
"-896 1167 LINE",
"-918 1142 OFFCURVE",
"-966 1102 OFFCURVE",
"-1007 1102 CURVE SMOOTH",
"-1050 1102 OFFCURVE",
"-1083 1152 OFFCURVE",
"-1083 1269 CURVE SMOOTH",
"-1083 1344 OFFCURVE",
"-1075 1405 OFFCURVE",
"-1059 1467 CURVE",
"-1003 1455 OFFCURVE",
"-947 1429 OFFCURVE",
"-902 1396 CURVE",
"-882 1421 LINE"
);
},
{
closed = 1;
nodes = (
"-807 1685 OFFCURVE",
"-811 1751 OFFCURVE",
"-820 1800 CURVE",
"-1030 1694 LINE",
"-1020 1662 LINE",
"-965 1679 LINE",
"-957 1651 OFFCURVE",
"-952 1595 OFFCURVE",
"-952 1529 CURVE SMOOTH",
"-952 1126 LINE SMOOTH",
"-952 1058 OFFCURVE",
"-934 1015 OFFCURVE",
"-892 990 CURVE",
"-742 1077 LINE",
"-754 1109 LINE",
"-787 1093 LINE",
"-801 1111 OFFCURVE",
"-807 1131 OFFCURVE",
"-807 1187 CURVE SMOOTH",
"-807 1595 LINE SMOOTH"
);
},
{
closed = 1;
nodes = (
"-2159 1516 OFFCURVE",
"-2292 1514 OFFCURVE",
"-2410 1504 CURVE",
"-2435 1409 OFFCURVE",
"-2446 1324 OFFCURVE",
"-2446 1235 CURVE SMOOTH",
"-2446 1065 OFFCURVE",
"-2376 993 OFFCURVE",
"-2307 993 CURVE SMOOTH",
"-2236 993 OFFCURVE",
"-2149 1064 OFFCURVE",
"-2084 1138 CURVE",
"-2096 1167 LINE",
"-2118 1142 OFFCURVE",
"-2166 1102 OFFCURVE",
"-2207 1102 CURVE SMOOTH",
"-2250 1102 OFFCURVE",
"-2283 1152 OFFCURVE",
"-2283 1269 CURVE SMOOTH",
"-2283 1344 OFFCURVE",
"-2275 1405 OFFCURVE",
"-2259 1467 CURVE",
"-2203 1468 OFFCURVE",
"-2150 1467 OFFCURVE",
"-2098 1464 CURVE",
"-2090 1502 LINE"
);
},
{
closed = 1;
nodes = (
"-2007 1685 OFFCURVE",
"-2011 1751 OFFCURVE",
"-2020 1800 CURVE",
"-2230 1694 LINE",
"-2220 1662 LINE",
"-2165 1679 LINE",
"-2157 1654 OFFCURVE",
"-2152 1603 OFFCURVE",
"-2152 1544 CURVE SMOOTH",
"-2152 1126 LINE SMOOTH",
"-2152 1058 OFFCURVE",
"-2134 1015 OFFCURVE",
"-2092 990 CURVE",
"-1942 1077 LINE",
"-1954 1109 LINE",
"-1987 1093 LINE",
"-2001 1111 OFFCURVE",
"-2007 1131 OFFCURVE",
"-2007 1187 CURVE SMOOTH",
"-2007 1595 LINE SMOOTH"
);
},
{
closed = 1;
nodes = (
"-1543 1186 LINE",
"-1572 1150 OFFCURVE",
"-1603 1125 OFFCURVE",
"-1626 1113 CURVE",
"-1656 1113 OFFCURVE",
"-1683 1153 OFFCURVE",
"-1683 1269 CURVE SMOOTH",
"-1683 1344 OFFCURVE",
"-1675 1405 OFFCURVE",
"-1659 1467 CURVE",
"-1619 1470 OFFCURVE",
"-1546 1461 OFFCURVE",
"-1493 1443 CURVE",
"-1483 1474 LINE",
"-1530 1498 OFFCURVE",
"-1579 1513 OFFCURVE",
"-1643 1513 CURVE SMOOTH",
"-1699 1513 OFFCURVE",
"-1772 1494 OFFCURVE",
"-1810 1476 CURVE",
"-1835 1391 OFFCURVE",
"-1846 1315 OFFCURVE",
"-1846 1235 CURVE SMOOTH",
"-1846 1065 OFFCURVE",
"-1776 993 OFFCURVE",
"-1707 993 CURVE",
"-1639 1036 OFFCURVE",
"-1574 1092 OFFCURVE",
"-1526 1153 CURVE"
);
},
{
closed = 1;
nodes = (
"-1407 1685 OFFCURVE",
"-1411 1751 OFFCURVE",
"-1420 1800 CURVE",
"-1630 1694 LINE",
"-1620 1662 LINE",
"-1565 1679 LINE",
"-1557 1651 OFFCURVE",
"-1552 1595 OFFCURVE",
"-1552 1529 CURVE SMOOTH",
"-1552 1126 LINE SMOOTH",
"-1552 1058 OFFCURVE",
"-1534 1015 OFFCURVE",
"-1492 990 CURVE",
"-1342 1077 LINE",
"-1354 1109 LINE",
"-1387 1093 LINE",
"-1401 1111 OFFCURVE",
"-1407 1131 OFFCURVE",
"-1407 1187 CURVE SMOOTH",
"-1407 1595 LINE SMOOTH"
);
},
{
closed = 1;
nodes = (
"2141 1126 LINE SMOOTH",
"2141 1058 OFFCURVE",
"2161 1015 OFFCURVE",
"2208 990 CURVE",
"2358 1077 LINE",
"2346 1109 LINE",
"2313 1093 LINE",
"2299 1111 OFFCURVE",
"2293 1131 OFFCURVE",
"2293 1187 CURVE SMOOTH",
"2293 1790 LINE",
"2079 1709 LINE",
"2089 1677 LINE",
"2141 1688 LINE"
);
},
{
closed = 1;
nodes = (
"1982 1511 LINE",
"1848 1400 LINE",
"1833 1362 OFFCURVE",
"1826 1328 OFFCURVE",
"1826 1270 CURVE SMOOTH",
"1826 1118 OFFCURVE",
"1945 1017 OFFCURVE",
"2037 990 CURVE",
"2108 1034 OFFCURVE",
"2176 1097 OFFCURVE",
"2239 1155 CURVE",
"2218 1178 LINE",
"2182 1146 OFFCURVE",
"2147 1123 OFFCURVE",
"2111 1108 CURVE",
"2025 1170 OFFCURVE",
"1985 1242 OFFCURVE",
"1985 1359 CURVE SMOOTH",
"1985 1369 OFFCURVE",
"1987 1380 OFFCURVE",
"1988 1390 CURVE",
"2202 1394 LINE",
"2177 1513 LINE"
);
},
{
closed = 1;
nodes = (
"2784 1503 OFFCURVE",
"2723 1515 OFFCURVE",
"2662 1515 CURVE SMOOTH",
"2643 1515 OFFCURVE",
"2623 1514 OFFCURVE",
"2605 1511 CURVE",
"2471 1412 LINE",
"2459 1353 OFFCURVE",
"2451 1294 OFFCURVE",
"2451 1225 CURVE SMOOTH",
"2451 1065 OFFCURVE",
"2524 993 OFFCURVE",
"2593 993 CURVE SMOOTH",
"2644 993 OFFCURVE",
"2751 1060 OFFCURVE",
"2816 1125 CURVE",
"2804 1156 LINE",
"2782 1134 OFFCURVE",
"2734 1098 OFFCURVE",
"2693 1098 CURVE SMOOTH",
"2650 1098 OFFCURVE",
"2614 1152 OFFCURVE",
"2614 1269 CURVE SMOOTH",
"2614 1342 OFFCURVE",
"2625 1393 OFFCURVE",
"2640 1455 CURVE",
"2600 1395 LINE",
"2674 1399 OFFCURVE",
"2735 1394 OFFCURVE",
"2798 1379 CURVE",
"2814 1483 LINE"
);
},
{
closed = 1;
nodes = (
"2893 1685 OFFCURVE",
"2889 1751 OFFCURVE",
"2880 1800 CURVE",
"2670 1694 LINE",
"2680 1662 LINE",
"2735 1679 LINE",
"2743 1654 OFFCURVE",
"2748 1603 OFFCURVE",
"2748 1544 CURVE SMOOTH",
"2748 1126 LINE SMOOTH",
"2748 1058 OFFCURVE",
"2766 1015 OFFCURVE",
"2808 990 CURVE",
"2960 1079 LINE",
"2946 1109 LINE",
"2913 1093 LINE",
"2899 1111 OFFCURVE",
"2893 1131 OFFCURVE",
"2893 1187 CURVE SMOOTH",
"2893 1595 LINE SMOOTH"
);
},
{
closed = 1;
nodes = (
"3150 1342 OFFCURVE",
"3143 1269 OFFCURVE",
"3143 1225 CURVE SMOOTH",
"3143 1061 OFFCURVE",
"3218 986 OFFCURVE",
"3329 986 CURVE",
"3491 1128 LINE",
"3484 1159 LINE",
"3407 1105 LINE",
"3340 1105 OFFCURVE",
"3288 1158 OFFCURVE",
"3288 1293 CURVE SMOOTH",
"3288 1333 OFFCURVE",
"3292 1380 OFFCURVE",
"3297 1418 CURVE",
"3236 1382 LINE",
"3339 1394 OFFCURVE",
"3409 1384 OFFCURVE",
"3496 1348 CURVE",
"3516 1492 LINE",
"3474 1507 OFFCURVE",
"3430 1516 OFFCURVE",
"3386 1516 CURVE SMOOTH",
"3328 1516 OFFCURVE",
"3273 1505 OFFCURVE",
"3236 1490 CURVE",
"3161 1394 LINE"
);
},
{
closed = 1;
nodes = (
"3593 1790 LINE",
"3389 1724 LINE",
"3399 1692 LINE",
"3441 1701 LINE",
"3441 1125 LINE",
"3441 1057 OFFCURVE",
"3459 1015 OFFCURVE",
"3501 990 CURVE",
"3660 1079 LINE",
"3646 1109 LINE",
"3613 1093 LINE",
"3599 1111 OFFCURVE",
"3593 1131 OFFCURVE",
"3593 1187 CURVE"
);
},
{
closed = 1;
nodes = (
"660 1314 OFFCURVE",
"654 1243 OFFCURVE",
"654 1200 CURVE SMOOTH",
"654 1053 OFFCURVE",
"727 986 OFFCURVE",
"836 986 CURVE",
"981 1113 LINE",
"975 1141 LINE",
"906 1096 LINE",
"838 1096 OFFCURVE",
"786 1139 OFFCURVE",
"786 1264 CURVE SMOOTH",
"786 1296 OFFCURVE",
"789 1339 OFFCURVE",
"794 1373 CURVE",
"744 1357 LINE",
"811 1353 OFFCURVE",
"911 1336 OFFCURVE",
"985 1310 CURVE",
"1003 1440 LINE",
"961 1453 OFFCURVE",
"905 1461 OFFCURVE",
"878 1461 CURVE SMOOTH",
"802 1461 OFFCURVE",
"694 1398 OFFCURVE",
"670 1364 CURVE"
);
},
{
closed = 1;
nodes = (
"1072 1707 LINE",
"889 1647 LINE",
"898 1619 LINE",
"936 1627 LINE",
"936 1111 LINE",
"936 1050 OFFCURVE",
"952 1012 OFFCURVE",
"990 990 CURVE",
"1132 1069 LINE",
"1120 1096 LINE",
"1090 1082 LINE",
"1078 1098 OFFCURVE",
"1072 1116 OFFCURVE",
"1072 1166 CURVE"
);
},
{
closed = 1;
nodes = (
"-128 1707 LINE",
"-311 1647 LINE",
"-302 1619 LINE",
"-264 1627 LINE",
"-264 1111 LINE",
"-264 1050 OFFCURVE",
"-248 1012 OFFCURVE",
"-210 990 CURVE",
"-68 1069 LINE",
"-80 1096 LINE",
"-110 1082 LINE",
"-122 1098 OFFCURVE",
"-128 1116 OFFCURVE",
"-128 1166 CURVE"
);
},
{
closed = 1;
nodes = (
"-529 1327 OFFCURVE",
"-545 1246 OFFCURVE",
"-545 1196 CURVE SMOOTH",
"-545 1058 OFFCURVE",
"-485 985 OFFCURVE",
"-363 985 CURVE",
"-241 1128 LINE",
"-255 1154 LINE",
"-309 1100 LINE",
"-363 1100 OFFCURVE",
"-405 1143 OFFCURVE",
"-405 1244 CURVE SMOOTH",
"-405 1308 OFFCURVE",
"-394 1363 OFFCURVE",
"-377 1406 CURVE",
"-403 1392 LINE",
"-359 1382 OFFCURVE",
"-293 1339 OFFCURVE",
"-244 1273 CURVE",
"-191 1384 LINE",
"-232 1434 OFFCURVE",
"-305 1465 OFFCURVE",
"-367 1465 CURVE SMOOTH",
"-393 1465 OFFCURVE",
"-483 1401 OFFCURVE",
"-503 1367 CURVE"
);
},
{
closed = 1;
nodes = (
"67 1331 OFFCURVE",
"45 1263 OFFCURVE",
"45 1198 CURVE SMOOTH",
"45 1066 OFFCURVE",
"108 985 OFFCURVE",
"237 985 CURVE",
"359 1128 LINE",
"345 1154 LINE",
"291 1100 LINE",
"231 1100 OFFCURVE",
"185 1143 OFFCURVE",
"185 1258 CURVE SMOOTH",
"185 1310 OFFCURVE",
"200 1367 OFFCURVE",
"223 1406 CURVE",
"197 1392 LINE",
"256 1385 OFFCURVE",
"341 1350 OFFCURVE",
"390 1314 CURVE",
"471 1413 LINE",
"426 1438 OFFCURVE",
"314 1465 OFFCURVE",
"256 1465 CURVE SMOOTH",
"210 1465 OFFCURVE",
"122 1406 OFFCURVE",
"97 1367 CURVE SMOOTH"
);
},
{
closed = 1;
nodes = (
"472 1707 LINE",
"289 1647 LINE",
"298 1619 LINE",
"336 1627 LINE",
"336 1111 LINE",
"336 1050 OFFCURVE",
"352 1012 OFFCURVE",
"390 990 CURVE",
"532 1069 LINE",
"520 1096 LINE",
"490 1082 LINE",
"478 1098 OFFCURVE",
"472 1116 OFFCURVE",
"472 1166 CURVE"
);
},
{
closed = 1;
nodes = (
"472 707 LINE",
"289 647 LINE",
"298 619 LINE",
"336 627 LINE",
"336 111 LINE",
"336 50 OFFCURVE",
"352 12 OFFCURVE",
"390 -10 CURVE",
"532 69 LINE",
"520 96 LINE",
"490 82 LINE",
"478 98 OFFCURVE",
"472 116 OFFCURVE",
"472 166 CURVE"
);
},
{
closed = 1;
nodes = (
"67 335 OFFCURVE",
"42 258 OFFCURVE",
"42 190 CURVE SMOOTH",
"42 72 OFFCURVE",
"121 -15 OFFCURVE",
"237 -15 CURVE",
"359 128 LINE",
"345 154 LINE",
"291 100 LINE",
"235 100 OFFCURVE",
"182 154 OFFCURVE",
"182 250 CURVE SMOOTH",
"182 305 OFFCURVE",
"193 365 OFFCURVE",
"218 406 CURVE",
"192 392 LINE",
"251 385 OFFCURVE",
"340 350 OFFCURVE",
"390 314 CURVE",
"471 413 LINE",
"425 438 OFFCURVE",
"309 465 OFFCURVE",
"251 465 CURVE SMOOTH",
"205 465 OFFCURVE",
"123 412 OFFCURVE",
"98 377 CURVE"
);
}
);
};
backgroundImage = {
crop = "{{0, 0}, {1080, 720}}";
imagePath = "../../Pictures/Photo Booth Library/Pictures/Photo on 03-09-2015 at 17.42.jpg";
locked = "1";
transform = "{-3.088, -0, 0, 3.088, 2084, -804}";
};
layerId = "FABFC9D4-E17A-4CB6-8F8E-4923CD579275";
name = Regular;
paths = (
{
closed = 1;
nodes = (
"336 50 OFFCURVE",
"352 12 OFFCURVE",
"390 -10 CURVE",
"536 69 LINE",
"524 96 LINE",
"494 82 LINE",
"482 98 OFFCURVE",
"476 116 OFFCURVE",
"476 166 CURVE",
"482 684 LINE",
"468 708 LINE",
"283 652 LINE",
"293 623 LINE",
"331 631 LINE",
"336 111 LINE"
);
},
{
closed = 1;
nodes = (
"66 345 OFFCURVE",
"40 258 OFFCURVE",
"40 190 CURVE SMOOTH",
"40 72 OFFCURVE",
"120 -15 OFFCURVE",
"237 -15 CURVE",
"359 128 LINE",
"345 154 LINE",
"291 100 LINE",
"236 100 OFFCURVE",
"184 154 OFFCURVE",
"184 250 CURVE SMOOTH",
"184 305 OFFCURVE",
"194 365 OFFCURVE",
"218 406 CURVE",
"192 392 LINE",
"251 385 OFFCURVE",
"340 350 OFFCURVE",
"390 314 CURVE",
"471 413 LINE",
"425 438 OFFCURVE",
"309 465 OFFCURVE",
"251 465 CURVE SMOOTH",
"205 465 OFFCURVE",
"123 422 OFFCURVE",
"98 387 CURVE"
);
}
);
width = 541;
}
);
unicode = 0064;
},
{
glyphname = eth;
lastChange = "2016-01-22 15:40:43 +0000";
layers = (
{
background = {
paths = (
{
closed = 1;
nodes = (
"31 581 LINE",
"69 625 OFFCURVE",
"142 668 OFFCURVE",
"248 668 CURVE SMOOTH",
"308 668 OFFCURVE",
"370 643 OFFCURVE",
"418 599 CURVE",
"470 540 OFFCURVE",
"519 419 OFFCURVE",
"519 285 CURVE SMOOTH",
"519 97 OFFCURVE",
"428 -17 OFFCURVE",
"266 -17 CURVE SMOOTH",
"205 -17 OFFCURVE",
"137 5 OFFCURVE",
"92 36 CURVE",
"41 83 OFFCURVE",
"9 140 OFFCURVE",
"9 208 CURVE SMOOTH",
"9 325 OFFCURVE",
"105 391 OFFCURVE",
"233 391 CURVE SMOOTH",
"285 391 OFFCURVE",
"327 381 OFFCURVE",
"370 366 CURVE",
"356 342 LINE",
"233 342 OFFCURVE",
"187 274 OFFCURVE",
"187 151 CURVE SMOOTH",
"187 118 OFFCURVE",
"204 30 OFFCURVE",
"224 -3 CURVE",
"175 22 LINE",
"276 22 OFFCURVE",
"341 96 OFFCURVE",
"341 299 CURVE SMOOTH",
"341 492 OFFCURVE",
"300 622 OFFCURVE",
"248 654 CURVE",
"267 652 LINE",
"120 496 LINE"
);
}
);
};
layerId = "FABFC9D4-E17A-4CB6-8F8E-4923CD579275";
name = Regular;
paths = (
{
closed = 1;
nodes = (
"321 466 LINE",
"234 466 OFFCURVE",
"156 434 OFFCURVE",
"104 396 CURVE",
"60 343 OFFCURVE",
"38 270 OFFCURVE",
"38 212 CURVE SMOOTH",
"38 63 OFFCURVE",
"133 -15 OFFCURVE",
"265 -15 CURVE SMOOTH",
"333 -15 OFFCURVE",
"394 16 OFFCURVE",
"434 54 CURVE",
"483 107 OFFCURVE",
"505 180 OFFCURVE",
"505 268 CURVE SMOOTH",
"505 459 OFFCURVE",
"338 671 OFFCURVE",
"118 705 CURVE",
"110 670 LINE",
"251 592 OFFCURVE",
"355 415 OFFCURVE",
"355 222 CURVE SMOOTH",
"355 140 OFFCURVE",
"348 86 OFFCURVE",
"338 47 CURVE",
"381 67 LINE",
"258 67 OFFCURVE",
"182 116 OFFCURVE",
"182 260 CURVE SMOOTH",
"182 291 OFFCURVE",
"190 360 OFFCURVE",
"204 403 CURVE",
"160 383 LINE",
"217 388 OFFCURVE",
"313 383 OFFCURVE",
"375 375 CURVE"
);
},
{
closed = 1;
nodes = (
"161 493 LINE",
"396 658 LINE",
"377 702 LINE",
"143 527 LINE"
);
}
);
width = 600;
}
);
unicode = 00F0;
},
{
glyphname = e;
lastChange = "2016-01-22 20:12:34 +0000";
layers = (
{
anchors = (
{
name = bottom;
position = "{237, -80}";
},
{
name = ogonek;
position = "{423, 50}";
},
{
name = top;
position = "{259, 574}";
}
);
background = {
paths = (
{
closed = 1;
nodes = (
"-1034 1313 OFFCURVE",
"-1138 1205 OFFCURVE",
"-1138 1043 CURVE SMOOTH",
"-1138 878 OFFCURVE",
"-1031 785 OFFCURVE",
"-883 785 CURVE SMOOTH",
"-822 785 OFFCURVE",
"-766 801 OFFCURVE",
"-738 813 CURVE",
"-706 983 LINE",
"-738 993 LINE",
"-756 930 LINE",
"-772 925 OFFCURVE",
"-800 921 OFFCURVE",
"-823 921 CURVE SMOOTH",
"-909 921 OFFCURVE",
"-975 988 OFFCURVE",
"-975 1128 CURVE SMOOTH",
"-975 1223 OFFCURVE",
"-945 1265 OFFCURVE",
"-922 1265 CURVE SMOOTH",
"-883 1265 OFFCURVE",
"-866 1136 OFFCURVE",
"-866 1091 CURVE",
"-996 1071 LINE",
"-997 1030 LINE",
"-695 1075 LINE",
"-695 1216 OFFCURVE",
"-767 1313 OFFCURVE",
"-897 1313 CURVE SMOOTH"
);
},
{
closed = 1;
nodes = (
"868 1313 OFFCURVE",
"756 1309 OFFCURVE",
"718 1274 CURVE",
"679 1228 OFFCURVE",
"642 1156 OFFCURVE",
"642 1047 CURVE SMOOTH",
"642 871 OFFCURVE",
"739 785 OFFCURVE",
"880 785 CURVE SMOOTH",
"1011 785 OFFCURVE",
"1078 862 OFFCURVE",
"1105 909 CURVE",
"1080 929 LINE",
"1056 898 OFFCURVE",
"1013 853 OFFCURVE",
"952 853 CURVE SMOOTH",
"863 853 OFFCURVE",
"815 940 OFFCURVE",
"815 1058 CURVE SMOOTH",
"815 1173 OFFCURVE",
"860 1252 OFFCURVE",
"878 1265 CURVE",
"908 1265 OFFCURVE",
"925 1224 OFFCURVE",
"925 1142 CURVE SMOOTH",
"925 1107 OFFCURVE",
"921 1069 OFFCURVE",
"918 1054 CURVE",
"805 1048 LINE",
"801 1011 LINE",
"1075 1024 LINE",
"1084 1051 OFFCURVE",
"1089 1093 OFFCURVE",
"1089 1130 CURVE SMOOTH",
"1089 1235 OFFCURVE",
"1048 1313 OFFCURVE",
"901 1313 CURVE SMOOTH"
);
},
{
closed = 1;
nodes = (
"1583 785 OFFCURVE",
"1672 842 OFFCURVE",
"1714 925 CURVE",
"1687 943 LINE",
"1650 886 OFFCURVE",
"1598 853 OFFCURVE",
"1549 853 CURVE SMOOTH",
"1466 853 OFFCURVE",
"1415 934 OFFCURVE",
"1415 1065 CURVE SMOOTH",
"1415 1119 OFFCURVE",
"1422 1168 OFFCURVE",
"1441 1197 CURVE",
"1445 1200 OFFCURVE",
"1453 1202 OFFCURVE",
"1461 1202 CURVE SMOOTH",
"1497 1202 OFFCURVE",
"1522 1152 OFFCURVE",
"1521 1101 CURVE SMOOTH",
"1521 1092 OFFCURVE",
"1520 1083 OFFCURVE",
"1518 1074 CURVE",
"1405 1068 LINE",
"1401 1031 LINE",
"1675 1044 LINE",
"1684 1069 OFFCURVE",
"1689 1105 OFFCURVE",
"1689 1137 CURVE SMOOTH",
"1689 1245 OFFCURVE",
"1623 1313 OFFCURVE",
"1520 1313 CURVE SMOOTH",
"1441 1313 OFFCURVE",
"1342 1266 OFFCURVE",
"1279 1208 CURVE",
"1252 1155 OFFCURVE",
"1242 1112 OFFCURVE",
"1242 1050 CURVE SMOOTH",
"1242 883 OFFCURVE",
"1331 785 OFFCURVE",
"1475 785 CURVE SMOOTH"
);
},
{
closed = 1;
nodes = (
"-1309 785 OFFCURVE",
"-1214 881 OFFCURVE",
"-1184 978 CURVE",
"-1212 993 LINE",
"-1252 934 OFFCURVE",
"-1294 916 OFFCURVE",
"-1353 916 CURVE SMOOTH",
"-1436 916 OFFCURVE",
"-1494 974 OFFCURVE",
"-1494 1084 CURVE SMOOTH",
"-1494 1119 OFFCURVE",
"-1489 1208 OFFCURVE",
"-1481 1237 CURVE",
"-1440 1237 OFFCURVE",
"-1406 1145 OFFCURVE",
"-1406 1100 CURVE",
"-1500 1083 LINE",
"-1499 1046 LINE",
"-1233 1079 LINE",
"-1228 1227 OFFCURVE",
"-1310 1312 OFFCURVE",
"-1418 1310 CURVE SMOOTH",
"-1494 1309 OFFCURVE",
"-1582 1275 OFFCURVE",
"-1629 1214 CURVE",
"-1645 1172 OFFCURVE",
"-1658 1110 OFFCURVE",
"-1658 1034 CURVE SMOOTH",
"-1658 883 OFFCURVE",
"-1572 785 OFFCURVE",
"-1434 785 CURVE SMOOTH"
);
},
{
closed = 1;
nodes = (
"2161 785 OFFCURVE",
"2271 881 OFFCURVE",
"2316 978 CURVE",
"2288 993 LINE",
"2258 949 OFFCURVE",
"2198 916 OFFCURVE",
"2157 916 CURVE SMOOTH",
"2084 916 OFFCURVE",
"2016 970 OFFCURVE",
"2016 1071 CURVE SMOOTH",
"2016 1153 OFFCURVE",
"2035 1209 OFFCURVE",
"2059 1237 CURVE",
"2092 1208 OFFCURVE",
"2114 1155 OFFCURVE",
"2127 1102 CURVE",
"1986 1079 LINE",
"1987 1042 LINE",
"2287 1079 LINE",
"2287 1207 OFFCURVE",
"2210 1312 OFFCURVE",
"2102 1310 CURVE SMOOTH",
"2049 1309 OFFCURVE",
"1956 1277 OFFCURVE",
"1911 1237 CURVE",
"1882 1188 OFFCURVE",
"1852 1116 OFFCURVE",
"1852 1021 CURVE SMOOTH",
"1852 878 OFFCURVE",
"1948 785 OFFCURVE",
"2066 785 CURVE SMOOTH"
);
},
{
closed = 1;
nodes = (
"-1937 785 OFFCURVE",
"-1851 859 OFFCURVE",
"-1808 928 CURVE",
"-1832 948 LINE",
"-1873 926 OFFCURVE",
"-1905 916 OFFCURVE",
"-1944 916 CURVE SMOOTH",
"-2032 916 OFFCURVE",
"-2094 970 OFFCURVE",
"-2094 1094 CURVE SMOOTH",
"-2094 1167 OFFCURVE",
"-2069 1235 OFFCURVE",
"-2043 1268 CURVE",
"-2011 1258 OFFCURVE",
"-1968 1179 OFFCURVE",
"-1968 1101 CURVE",
"-2124 1094 LINE",
"-2123 1059 LINE",
"-1804 1061 LINE",
"-1808 1198 OFFCURVE",
"-1876 1310 OFFCURVE",
"-2007 1310 CURVE SMOOTH",
"-2146 1310 OFFCURVE",
"-2258 1212 OFFCURVE",
"-2258 1034 CURVE SMOOTH",
"-2258 877 OFFCURVE",
"-2157 785 OFFCURVE",
"-2037 785 CURVE SMOOTH"
);
},
{
closed = 1;
nodes = (
"-220 785 OFFCURVE",
"-134 861 OFFCURVE",
"-93 937 CURVE",
"-114 954 LINE",
"-147 930 OFFCURVE",
"-196 916 OFFCURVE",
"-243 916 CURVE SMOOTH",
"-332 916 OFFCURVE",
"-394 966 OFFCURVE",
"-394 1099 CURVE SMOOTH",
"-394 1165 OFFCURVE",
"-379 1245 OFFCURVE",
"-363 1268 CURVE",
"-379 1265 LINE",
"-326 1265 OFFCURVE",
"-285 1189 OFFCURVE",
"-285 1091 CURVE",
"-424 1074 LINE",
"-423 1039 LINE",
"-107 1061 LINE",
"-111 1195 OFFCURVE",
"-179 1310 OFFCURVE",
"-318 1310 CURVE SMOOTH",
"-450 1310 OFFCURVE",
"-558 1205 OFFCURVE",
"-558 1031 CURVE SMOOTH",
"-558 869 OFFCURVE",
"-457 785 OFFCURVE",
"-334 785 CURVE SMOOTH"
);
},
{
closed = 1;
nodes = (
"40 871 OFFCURVE",
"131 785 OFFCURVE",
"245 785 CURVE SMOOTH",
"352 785 OFFCURVE",
"434 855 OFFCURVE",
"472 924 CURVE",
"453 940 LINE",
"421 918 OFFCURVE",
"374 905 OFFCURVE",
"328 905 CURVE SMOOTH",
"250 905 OFFCURVE",
"185 954 OFFCURVE",
"185 1065 CURVE SMOOTH",
"185 1135 OFFCURVE",
"204 1196 OFFCURVE",
"230 1227 CURVE",
"210 1224 LINE",
"258 1224 OFFCURVE",
"296 1154 OFFCURVE",
"301 1065 CURVE",
"169 1049 LINE",
"170 1017 LINE",
"459 1037 LINE",
"455 1160 OFFCURVE",
"393 1265 OFFCURVE",
"266 1265 CURVE SMOOTH",
"221 1265 OFFCURVE",
"155 1250 OFFCURVE",
"120 1230 CURVE",
"68 1174 OFFCURVE",
"40 1099 OFFCURVE",
"40 1010 CURVE SMOOTH"
);
},
{
closed = 1;
nodes = (
"210 424 LINE",
"255 424 OFFCURVE",
"291 354 OFFCURVE",
"296 265 CURVE",
"169 249 LINE",
"170 217 LINE",
"454 237 LINE",
"450 360 OFFCURVE",
"390 465 OFFCURVE",
"266 465 CURVE SMOOTH",
"219 465 OFFCURVE",
"151 448 OFFCURVE",
"115 425 CURVE",
"69 374 OFFCURVE",
"40 299 OFFCURVE",
"40 210 CURVE SMOOTH",
"40 71 OFFCURVE",
"128 -15 OFFCURVE",
"238 -15 CURVE SMOOTH",
"342 -15 OFFCURVE",
"420 55 OFFCURVE",
"458 124 CURVE",
"439 140 LINE",
"407 118 OFFCURVE",
"361 105 OFFCURVE",
"316 105 CURVE SMOOTH",
"241 105 OFFCURVE",
"184 154 OFFCURVE",
"184 265 CURVE SMOOTH",
"184 335 OFFCURVE",
"203 397 OFFCURVE",
"230 427 CURVE"
);
}
);
};
layerId = "FABFC9D4-E17A-4CB6-8F8E-4923CD579275";
name = Regular;
paths = (
{
closed = 1;
nodes = (
"217 425 LINE",
"261 424 OFFCURVE",
"295 355 OFFCURVE",
"297 263 CURVE",
"170 252 LINE",
"170 220 LINE",
"454 230 LINE",
"455 374 OFFCURVE",
"382 465 OFFCURVE",
"266 465 CURVE SMOOTH",
"218 465 OFFCURVE",
"157 450 OFFCURVE",
"122 430 CURVE",
"72 378 OFFCURVE",
"40 292 OFFCURVE",
"40 209 CURVE SMOOTH",
"40 76 OFFCURVE",
"120 -15 OFFCURVE",
"238 -15 CURVE SMOOTH",
"324 -15 OFFCURVE",
"407 36 OFFCURVE",
"454 117 CURVE",
"436 133 LINE",
"405 114 OFFCURVE",
"364 103 OFFCURVE",
"324 103 CURVE SMOOTH",
"233 103 OFFCURVE",
"185 156 OFFCURVE",
"185 255 CURVE SMOOTH",
"185 325 OFFCURVE",
"206 395 OFFCURVE",
"237 428 CURVE"
);
}
);
width = 490;
}
);
unicode = 0065;
},
{
glyphname = eogonek;
lastChange = "2016-01-23 17:17:49 +0000";
layers = (
{
background = {
paths = (
{
closed = 1;
nodes = (
"302 12 OFFCURVE",
"243 -61 OFFCURVE",
"243 -133 CURVE SMOOTH",
"243 -202 OFFCURVE",
"290 -251 OFFCURVE",
"355 -251 CURVE SMOOTH",
"394 -251 OFFCURVE",
"427 -237 OFFCURVE",
"453 -218 CURVE",
"445 -193 LINE",
"378 -201 OFFCURVE",
"346 -157 OFFCURVE",
"346 -102 CURVE SMOOTH",
"346 -44 OFFCURVE",
"382 20 OFFCURVE",
"446 52 CURVE",
"431 52 LINE"
);
}
);
};
components = (
{
name = e;
}
);
layerId = "FABFC9D4-E17A-4CB6-8F8E-4923CD579275";
name = Regular;
paths = (
{
closed = 1;
nodes = (
"364 61 OFFCURVE",
"243 -47 OFFCURVE",
"243 -139 CURVE SMOOTH",
"243 -203 OFFCURVE",
"290 -251 OFFCURVE",
"355 -251 CURVE SMOOTH",
"394 -251 OFFCURVE",
"427 -237 OFFCURVE",
"453 -218 CURVE",
"445 -193 LINE",
"378 -201 OFFCURVE",
"346 -157 OFFCURVE",
"346 -102 CURVE SMOOTH",
"346 -30 OFFCURVE",
"410 48 OFFCURVE",
"451 112 CURVE",
"441 116 LINE"
);
}
);
width = 490;
}
);
unicode = 0119;
},
{
glyphname = f;
lastChange = "2016-01-19 09:50:18 +0000";
layers = (
{
background = {
paths = (
{
closed = 1;
nodes = (
"-1270 460 LINE",
"-1183 460 LINE",
"-1183 498 LINE",
"-1278 498 LINE",
"-1310 524 OFFCURVE",
"-1333 579 OFFCURVE",
"-1333 611 CURVE SMOOTH",
"-1333 643 OFFCURVE",
"-1313 659 OFFCURVE",
"-1283 659 CURVE SMOOTH",
"-1268 659 OFFCURVE",
"-1249 653 OFFCURVE",
"-1241 648 CURVE",
"-1258 600 LINE",
"-1226 591 LINE",
"-1139 750 LINE",
"-1173 776 OFFCURVE",
"-1232 801 OFFCURVE",
"-1303 801 CURVE SMOOTH",
"-1398 801 OFFCURVE",
"-1489 752 OFFCURVE",
"-1489 641 CURVE SMOOTH",
"-1489 575 OFFCURVE",
"-1434 514 OFFCURVE",
"-1372 498 CURVE",
"-1493 498 LINE",
"-1493 460 LINE",
"-1432 460 LINE",
"-1432 39 LINE",
"-1497 32 LINE",
"-1497 0 LINE",
"-1205 0 LINE",
"-1205 32 LINE",
"-1270 39 LINE"
);
},
{
closed = 1;
nodes = (
"-770 460 LINE",
"-683 460 LINE",
"-683 498 LINE",
"-778 498 LINE",
"-810 524 OFFCURVE",
"-833 579 OFFCURVE",
"-833 611 CURVE SMOOTH",
"-833 636 OFFCURVE",
"-816 648 OFFCURVE",
"-786 648 CURVE SMOOTH",
"-762 648 OFFCURVE",
"-729 639 OFFCURVE",
"-721 634 CURVE",
"-735 597 LINE",
"-703 588 LINE",
"-615 750 LINE",
"-649 774 OFFCURVE",
"-722 801 OFFCURVE",
"-803 801 CURVE SMOOTH",
"-898 801 OFFCURVE",
"-989 752 OFFCURVE",
"-989 641 CURVE SMOOTH",
"-989 575 OFFCURVE",
"-958 524 OFFCURVE",
"-932 498 CURVE",
"-993 498 LINE",
"-993 460 LINE",
"-932 460 LINE",
"-932 39 LINE",
"-997 32 LINE",
"-997 0 LINE",
"-705 0 LINE",
"-705 32 LINE",
"-770 39 LINE"
);
},
{
closed = 1;
nodes = (
"-421 32 LINE",
"-458 29 LINE",
"-458 0 LINE",
"-225 0 LINE",
"-225 29 LINE",
"-282 32 LINE",
"-282 416 LINE",
"-193 416 LINE",
"-193 450 LINE",
"-280 450 LINE",
"-306 486 OFFCURVE",
"-346 596 OFFCURVE",
"-346 669 CURVE",
"-380 664 LINE",
"-337 645 OFFCURVE",
"-253 582 OFFCURVE",
"-214 537 CURVE",
"-131 656 LINE",
"-164 678 OFFCURVE",
"-233 702 OFFCURVE",
"-307 702 CURVE SMOOTH",
"-353 702 OFFCURVE",
"-404 692 OFFCURVE",
"-434 672 CURVE",
"-442 647 OFFCURVE",
"-449 605 OFFCURVE",
"-449 560 CURVE SMOOTH",
"-449 518 OFFCURVE",
"-438 478 OFFCURVE",
"-421 450 CURVE",
"-477 450 LINE",
"-477 416 LINE",
"-421 416 LINE"
);
},
{
closed = 1;
nodes = (
"78 32 LINE",
"41 29 LINE",
"41 0 LINE",
"276 0 LINE",
"276 29 LINE",
"219 32 LINE",
"219 416 LINE",
"308 416 LINE",
"308 450 LINE",
"221 450 LINE",
"195 486 OFFCURVE",
"154 596 OFFCURVE",
"154 669 CURVE",
"120 664 LINE",
"163 645 OFFCURVE",
"247 582 OFFCURVE",
"286 537 CURVE",
"369 656 LINE",
"340 678 OFFCURVE",
"279 702 OFFCURVE",
"216 702 CURVE SMOOTH",
"127 702 OFFCURVE",
"71 662 OFFCURVE",
"53 608 CURVE",
"52 599 OFFCURVE",
"52 590 OFFCURVE",
"52 580 CURVE SMOOTH",
"52 538 OFFCURVE",
"62 485 OFFCURVE",
"78 450 CURVE",
"22 450 LINE",
"22 416 LINE",
"78 416 LINE"
);
}
);
};
layerId = "FABFC9D4-E17A-4CB6-8F8E-4923CD579275";
name = Regular;
paths = (
{
closed = 1;
nodes = (
"78 32 LINE",
"41 29 LINE",
"41 0 LINE",
"296 0 LINE",
"296 29 LINE",
"219 32 LINE",
"221 416 LINE",
"310 416 LINE",
"310 450 LINE",
"223 450 LINE",
"197 486 OFFCURVE",
"154 606 OFFCURVE",
"154 669 CURVE",
"120 664 LINE",
"163 645 OFFCURVE",
"244 579 OFFCURVE",
"283 534 CURVE",
"366 653 LINE",
"321 682 OFFCURVE",
"258 702 OFFCURVE",
"198 702 CURVE SMOOTH",
"147 702 OFFCURVE",
"71 662 OFFCURVE",
"53 608 CURVE",
"52 599 OFFCURVE",
"52 590 OFFCURVE",
"52 580 CURVE SMOOTH",
"52 538 OFFCURVE",
"62 484 OFFCURVE",
"76 450 CURVE",
"20 450 LINE",
"20 416 LINE",
"76 416 LINE"
);
}
);
width = 311;
}
);
unicode = 0066;
},
{
glyphname = g;
lastChange = "2016-01-22 12:27:07 +0000";
layers = (
{
anchors = (
{
name = bottom;
position = "{237, -80}";
},
{
name = top;
position = "{244, 574}";
}
);
background = {
paths = (
{
closed = 1;
nodes = (
"-2172 244 OFFCURVE",
"-2186 198 OFFCURVE",
"-2215 160 CURVE",
"-2246 133 OFFCURVE",
"-2320 94 OFFCURVE",
"-2363 94 CURVE SMOOTH",
"-2458 94 OFFCURVE",
"-2523 156 OFFCURVE",
"-2523 259 CURVE SMOOTH",
"-2523 316 OFFCURVE",
"-2509 361 OFFCURVE",
"-2480 400 CURVE",
"-2449 426 OFFCURVE",
"-2375 465 OFFCURVE",
"-2332 465 CURVE SMOOTH",
"-2237 465 OFFCURVE",
"-2172 402 OFFCURVE",
"-2172 300 CURVE SMOOTH"
);
},
{
closed = 1;
nodes = (
"-2413 219 OFFCURVE",
"-2371 165 OFFCURVE",
"-2314 165 CURVE SMOOTH",
"-2275 165 LINE",
"-2295 147 LINE",
"-2285 184 OFFCURVE",
"-2282 227 OFFCURVE",
"-2282 264 CURVE SMOOTH",
"-2282 341 OFFCURVE",
"-2324 394 OFFCURVE",
"-2381 394 CURVE SMOOTH",
"-2420 394 LINE",
"-2400 412 LINE",
"-2410 375 OFFCURVE",
"-2413 333 OFFCURVE",
"-2413 295 CURVE SMOOTH"
);
},
{
closed = 1;
nodes = (
"-2410 142 LINE",
"-2442 56 LINE",
"-2435 56 OFFCURVE",
"-2422 56 OFFCURVE",
"-2416 56 CURVE SMOOTH",
"-2255 56 OFFCURVE",
"-2166 2 OFFCURVE",
"-2166 -89 CURVE",
"-2184 -138 OFFCURVE",
"-2252 -222 OFFCURVE",
"-2306 -255 CURVE",
"-2331 -257 OFFCURVE",
"-2354 -260 OFFCURVE",
"-2379 -260 CURVE SMOOTH",
"-2487 -260 OFFCURVE",
"-2569 -223 OFFCURVE",
"-2583 -185 CURVE",
"-2475 -19 LINE",
"-2448 -29 LINE",
"-2493 -111 LINE",
"-2465 -141 OFFCURVE",
"-2416 -171 OFFCURVE",
"-2376 -171 CURVE SMOOTH",
"-2274 -171 OFFCURVE",
"-2242 -160 OFFCURVE",
"-2242 -136 CURVE SMOOTH",
"-2242 -112 OFFCURVE",
"-2394 -61 OFFCURVE",
"-2470 -61 CURVE SMOOTH",
"-2498 -61 OFFCURVE",
"-2527 -62 OFFCURVE",
"-2556 -61 CURVE",
"-2435 151 LINE"
);
},
{
closed = 1;
nodes = (
"-1558 251 OFFCURVE",
"-1577 207 OFFCURVE",
"-1615 170 CURVE",
"-1646 143 OFFCURVE",
"-1720 104 OFFCURVE",
"-1763 104 CURVE SMOOTH",
"-1866 104 OFFCURVE",
"-1937 164 OFFCURVE",
"-1937 264 CURVE SMOOTH",
"-1937 321 OFFCURVE",
"-1918 362 OFFCURVE",
"-1880 400 CURVE",
"-1849 426 OFFCURVE",
"-1775 465 OFFCURVE",
"-1732 465 CURVE SMOOTH",
"-1629 465 OFFCURVE",
"-1558 407 OFFCURVE",
"-1558 305 CURVE SMOOTH"
);
},
{
closed = 1;
nodes = (
"-1811 223 OFFCURVE",
"-1770 169 OFFCURVE",
"-1714 169 CURVE SMOOTH",
"-1675 169 LINE",
"-1709 157 LINE",
"-1689 192 OFFCURVE",
"-1682 234 OFFCURVE",
"-1682 269 CURVE SMOOTH",
"-1682 350 OFFCURVE",
"-1724 400 OFFCURVE",
"-1781 400 CURVE SMOOTH",
"-1820 400 LINE",
"-1784 412 LINE",
"-1804 382 OFFCURVE",
"-1811 338 OFFCURVE",
"-1811 300 CURVE SMOOTH"
);
},
{
closed = 1;
nodes = (
"-1830 131 LINE",
"-1865 89 LINE",
"-1854 74 OFFCURVE",
"-1828 66 OFFCURVE",
"-1796 62 CURVE SMOOTH",
"-1765 57 OFFCURVE",
"-1728 55 OFFCURVE",
"-1693 53 CURVE SMOOTH",
"-1620 48 OFFCURVE",
"-1563 44 OFFCURVE",
"-1526 -13 CURVE",
"-1563 -111 OFFCURVE",
"-1652 -250 OFFCURVE",
"-1799 -250 CURVE SMOOTH",
"-1880 -250 OFFCURVE",
"-1948 -194 OFFCURVE",
"-1919 -83 CURVE",
"-1875 11 LINE",
"-1848 1 LINE",
"-1870 -56 LINE",
"-1863 -105 OFFCURVE",
"-1815 -145 OFFCURVE",
"-1736 -145 CURVE SMOOTH",
"-1684 -145 OFFCURVE",
"-1632 -120 OFFCURVE",
"-1622 -103 CURVE",
"-1622 -95 OFFCURVE",
"-1656 -73 OFFCURVE",
"-1713 -70 CURVE SMOOTH",
"-1749 -68 OFFCURVE",
"-1795 -65 OFFCURVE",
"-1834 -62 CURVE SMOOTH",
"-1903 -56 OFFCURVE",
"-1938 -50 OFFCURVE",
"-1970 16 CURVE",
"-1850 151 LINE"
);
},
{
closed = 1;
nodes = (
"-1591 547 LINE",
"-1555 552 OFFCURVE",
"-1506 544 OFFCURVE",
"-1470 524 CURVE",
"-1531 438 LINE",
"-1560 452 OFFCURVE",
"-1591 458 OFFCURVE",
"-1617 456 CURVE",
"-1668 407 LINE",
"-1690 419 LINE"
);
},
{
closed = 1;
nodes = (
"-858 251 OFFCURVE",
"-877 207 OFFCURVE",
"-915 170 CURVE",
"-946 143 OFFCURVE",
"-1020 104 OFFCURVE",
"-1063 104 CURVE SMOOTH",
"-1166 104 OFFCURVE",
"-1237 164 OFFCURVE",
"-1237 264 CURVE SMOOTH",
"-1237 321 OFFCURVE",
"-1218 362 OFFCURVE",
"-1180 400 CURVE",
"-1149 426 OFFCURVE",
"-1075 465 OFFCURVE",
"-1032 465 CURVE SMOOTH",
"-929 465 OFFCURVE",
"-858 407 OFFCURVE",
"-858 305 CURVE SMOOTH"
);
},
{
closed = 1;
nodes = (
"-1111 223 OFFCURVE",
"-1070 169 OFFCURVE",
"-1014 169 CURVE SMOOTH",
"-975 169 LINE",
"-1009 157 LINE",
"-989 192 OFFCURVE",
"-982 234 OFFCURVE",
"-982 269 CURVE SMOOTH",
"-982 350 OFFCURVE",
"-1024 400 OFFCURVE",
"-1081 400 CURVE SMOOTH",
"-1120 400 LINE",
"-1084 412 LINE",
"-1104 382 OFFCURVE",
"-1111 338 OFFCURVE",
"-1111 300 CURVE SMOOTH"
);
},
{
closed = 1;
nodes = (
"-1130 131 LINE",
"-1165 89 LINE",
"-1154 74 OFFCURVE",
"-1129 65 OFFCURVE",
"-1096 62 CURVE SMOOTH",
"-973 52 LINE SMOOTH",
"-899 46 OFFCURVE",
"-854 24 OFFCURVE",
"-826 -13 CURVE",
"-863 -111 OFFCURVE",
"-952 -250 OFFCURVE",
"-1099 -250 CURVE SMOOTH",
"-1166 -250 OFFCURVE",
"-1224 -212 OFFCURVE",
"-1226 -136 CURVE SMOOTH",
"-1226 -120 OFFCURVE",
"-1224 -102 OFFCURVE",
"-1219 -83 CURVE",
"-1175 11 LINE",
"-1148 1 LINE",
"-1170 -56 LINE",
"-1163 -105 OFFCURVE",
"-1115 -145 OFFCURVE",
"-1036 -145 CURVE SMOOTH",
"-995 -145 OFFCURVE",
"-951 -134 OFFCURVE",
"-932 -120 CURVE",
"-925 -108 LINE",
"-925 -100 OFFCURVE",
"-959 -74 OFFCURVE",
"-1013 -70 CURVE SMOOTH",
"-1134 -62 LINE SMOOTH",
"-1213 -56 OFFCURVE",
"-1241 -38 OFFCURVE",
"-1270 16 CURVE",
"-1150 151 LINE"
);
},
{
closed = 1;
nodes = (
"-903 566 LINE",
"-868 574 OFFCURVE",
"-819 570 OFFCURVE",
"-781 553 CURVE",
"-834 462 LINE",
"-864 474 OFFCURVE",
"-896 477 OFFCURVE",
"-921 473 CURVE",
"-968 420 LINE",
"-991 430 LINE"
);
},
{
closed = 1;
nodes = (
"-435 131 LINE",
"-470 89 LINE",
"-460 75 OFFCURVE",
"-433 65 OFFCURVE",
"-396 62 CURVE SMOOTH",
"-273 52 LINE SMOOTH",
"-197 46 OFFCURVE",
"-149 20 OFFCURVE",
"-121 -17 CURVE",
"-157 -125 OFFCURVE",
"-253 -255 OFFCURVE",
"-394 -255 CURVE SMOOTH",
"-477 -255 OFFCURVE",
"-531 -206 OFFCURVE",
"-531 -135 CURVE SMOOTH",
"-531 -121 OFFCURVE",
"-529 -102 OFFCURVE",
"-524 -83 CURVE",
"-480 11 LINE",
"-453 1 LINE",
"-475 -56 LINE",
"-468 -105 OFFCURVE",
"-418 -145 OFFCURVE",
"-337 -145 CURVE SMOOTH",
"-276 -145 OFFCURVE",
"-227 -123 OFFCURVE",
"-220 -112 CURVE",
"-226 -99 OFFCURVE",
"-256 -71 OFFCURVE",
"-333 -67 CURVE SMOOTH",
"-434 -62 LINE SMOOTH",
"-509 -58 OFFCURVE",
"-546 -38 OFFCURVE",
"-575 16 CURVE",
"-455 151 LINE"
);
},
{
closed = 1;
nodes = (
"-203 566 LINE",
"-168 574 OFFCURVE",
"-119 570 OFFCURVE",
"-81 553 CURVE",
"-134 462 LINE",
"-164 474 OFFCURVE",
"-196 477 OFFCURVE",
"-226 473 CURVE",
"-266 420 LINE",
"-291 430 LINE"
);
},
{
closed = 1;
nodes = (
"-402 419 LINE",
"-414 389 OFFCURVE",
"-426 345 OFFCURVE",
"-426 302 CURVE SMOOTH",
"-426 206 OFFCURVE",
"-362 164 OFFCURVE",
"-257 164 CURVE",
"-303 149 LINE",
"-287 183 OFFCURVE",
"-279 228 OFFCURVE",
"-279 264 CURVE SMOOTH",
"-279 362 OFFCURVE",
"-343 404 OFFCURVE",
"-445 404 CURVE"
);
},
{
closed = 1;
nodes = (
"-234 465 OFFCURVE",
"-158 402 OFFCURVE",
"-158 297 CURVE SMOOTH",
"-158 248 OFFCURVE",
"-184 187 OFFCURVE",
"-215 154 CURVE",
"-247 125 OFFCURVE",
"-307 103 OFFCURVE",
"-365 103 CURVE SMOOTH",
"-470 103 OFFCURVE",
"-547 165 OFFCURVE",
"-547 270 CURVE SMOOTH",
"-547 320 OFFCURVE",
"-520 381 OFFCURVE",
"-490 414 CURVE",
"-459 440 OFFCURVE",
"-401 465 OFFCURVE",
"-339 465 CURVE SMOOTH"
);
},
{
closed = 1;
nodes = (
"165 131 LINE",
"130 89 LINE",
"138 77 OFFCURVE",
"164 65 OFFCURVE",
"204 62 CURVE SMOOTH",
"327 53 LINE SMOOTH",
"402 48 OFFCURVE",
"451 20 OFFCURVE",
"479 -17 CURVE",
"443 -125 OFFCURVE",
"346 -255 OFFCURVE",
"208 -255 CURVE SMOOTH",
"123 -255 OFFCURVE",
"69 -205 OFFCURVE",
"69 -140 CURVE SMOOTH",
"69 -98 OFFCURVE",
"91 -27 OFFCURVE",
"120 11 CURVE",
"147 1 LINE",
"125 -56 LINE",
"132 -105 OFFCURVE",
"182 -145 OFFCURVE",
"263 -145 CURVE SMOOTH",
"324 -145 OFFCURVE",
"373 -123 OFFCURVE",
"380 -112 CURVE",
"374 -99 OFFCURVE",
"344 -71 OFFCURVE",
"267 -67 CURVE SMOOTH",
"166 -62 LINE SMOOTH",
"91 -58 OFFCURVE",
"54 -38 OFFCURVE",
"25 16 CURVE",
"145 151 LINE"
);
},
{
closed = 1;
nodes = (
"397 566 LINE",
"409 569 OFFCURVE",
"423 570 OFFCURVE",
"435 570 CURVE SMOOTH",
"464 570 OFFCURVE",
"494 564 OFFCURVE",
"519 553 CURVE",
"461 454 LINE",
"439 463 OFFCURVE",
"416 467 OFFCURVE",
"395 467 CURVE SMOOTH",
"385 467 OFFCURVE",
"377 466 OFFCURVE",
"369 465 CURVE",
"334 420 LINE",
"309 430 LINE"
);
},
{
closed = 1;
nodes = (
"203 419 LINE",
"191 389 OFFCURVE",
"179 345 OFFCURVE",
"179 302 CURVE SMOOTH",
"179 206 OFFCURVE",
"241 164 OFFCURVE",
"343 164 CURVE",
"292 149 LINE",
"308 183 OFFCURVE",
"316 228 OFFCURVE",
"316 264 CURVE SMOOTH",
"316 362 OFFCURVE",
"254 404 OFFCURVE",
"155 404 CURVE"
);
},
{
closed = 1;
nodes = (
"366 465 OFFCURVE",
"442 399 OFFCURVE",
"442 301 CURVE SMOOTH",
"442 244 OFFCURVE",
"416 188 OFFCURVE",
"385 154 CURVE",
"353 125 OFFCURVE",
"294 103 OFFCURVE",
"234 103 CURVE SMOOTH",
"130 103 OFFCURVE",
"53 168 OFFCURVE",
"53 265 CURVE SMOOTH",
"53 322 OFFCURVE",
"79 379 OFFCURVE",
"110 414 CURVE",
"141 440 OFFCURVE",
"198 465 OFFCURVE",
"262 465 CURVE SMOOTH"
);
}
);
};
guideLines = (
{
angle = 270;
position = "{76, 100}";
},
{
angle = 270;
position = "{428, 126}";
}
);
layerId = "FABFC9D4-E17A-4CB6-8F8E-4923CD579275";
name = Regular;
paths = (
{
closed = 1;
nodes = (
"165 131 LINE",
"130 89 LINE",
"138 77 OFFCURVE",
"164 65 OFFCURVE",
"204 62 CURVE SMOOTH",
"327 53 LINE SMOOTH",
"404 48 OFFCURVE",
"456 20 OFFCURVE",
"484 -17 CURVE",
"448 -125 OFFCURVE",
"349 -255 OFFCURVE",
"208 -255 CURVE SMOOTH",
"120 -255 OFFCURVE",
"64 -205 OFFCURVE",
"64 -140 CURVE SMOOTH",
"64 -98 OFFCURVE",
"86 -27 OFFCURVE",
"115 11 CURVE",
"142 1 LINE",
"120 -56 LINE",
"127 -105 OFFCURVE",
"179 -145 OFFCURVE",
"263 -145 CURVE SMOOTH",
"327 -145 OFFCURVE",
"378 -123 OFFCURVE",
"385 -112 CURVE",
"379 -99 OFFCURVE",
"347 -71 OFFCURVE",
"267 -67 CURVE SMOOTH",
"166 -62 LINE SMOOTH",
"91 -58 OFFCURVE",
"54 -38 OFFCURVE",
"25 16 CURVE",
"145 151 LINE"
);
},
{
closed = 1;
nodes = (
"396 571 LINE",
"408 574 OFFCURVE",
"422 575 OFFCURVE",
"434 575 CURVE SMOOTH",
"463 575 OFFCURVE",
"493 569 OFFCURVE",
"518 558 CURVE",
"460 456 LINE",
"438 465 OFFCURVE",
"415 469 OFFCURVE",
"394 469 CURVE SMOOTH",
"384 469 OFFCURVE",
"376 468 OFFCURVE",
"368 467 CURVE",
"334 420 LINE",
"309 430 LINE"
);
},
{
closed = 1;
nodes = (
"198 419 LINE",
"186 389 OFFCURVE",
"174 345 OFFCURVE",
"174 302 CURVE SMOOTH",
"174 206 OFFCURVE",
"238 164 OFFCURVE",
"343 164 CURVE",
"297 149 LINE",
"313 183 OFFCURVE",
"321 228 OFFCURVE",
"321 264 CURVE SMOOTH",
"321 362 OFFCURVE",
"257 404 OFFCURVE",
"155 404 CURVE"
);
},
{
closed = 1;
nodes = (
"369 465 OFFCURVE",
"447 399 OFFCURVE",
"447 301 CURVE SMOOTH",
"447 244 OFFCURVE",
"416 188 OFFCURVE",
"390 154 CURVE",
"358 125 OFFCURVE",
"296 103 OFFCURVE",
"234 103 CURVE SMOOTH",
"127 103 OFFCURVE",
"48 168 OFFCURVE",
"48 265 CURVE SMOOTH",
"48 322 OFFCURVE",
"74 379 OFFCURVE",
"105 414 CURVE",
"136 440 OFFCURVE",
"196 465 OFFCURVE",
"262 465 CURVE SMOOTH"
);
}
);
width = 488;
}
);
unicode = 0067;
},
{
glyphname = h;
lastChange = "2016-01-18 13:37:12 +0000";
layers = (
{
background = {
paths = (
{
closed = 1;
nodes = (
"-378 595 LINE SMOOTH",
"-378 685 OFFCURVE",
"-382 751 OFFCURVE",
"-391 800 CURVE",
"-601 694 LINE",
"-591 662 LINE",
"-547 677 LINE",
"-539 649 OFFCURVE",
"-534 593 OFFCURVE",
"-534 527 CURVE SMOOTH",
"-534 38 LINE",
"-588 32 LINE",
"-588 0 LINE",
"-324 0 LINE",
"-324 32 LINE",
"-378 38 LINE"
);
},
{
closed = 1;
nodes = (
"-244 38 LINE",
"-298 32 LINE",
"-298 0 LINE",
"-34 0 LINE",
"-34 32 LINE",
"-88 38 LINE",
"-88 300 LINE SMOOTH",
"-88 436 OFFCURVE",
"-133 491 OFFCURVE",
"-227 525 CURVE",
"-397 333 LINE",
"-385 301 LINE",
"-307 371 LINE",
"-273 362 OFFCURVE",
"-244 318 OFFCURVE",
"-244 249 CURVE SMOOTH"
);
},
{
closed = 1;
nodes = (
"216 286 LINE",
"216 307 LINE",
"216 790 LINE",
"2 709 LINE",
"12 677 LINE",
"64 687 LINE",
"64 38 LINE",
"10 32 LINE",
"10 0 LINE",
"270 0 LINE",
"270 32 LINE",
"216 38 LINE"
);
},
{
closed = 1;
nodes = (
"350 38 LINE",
"296 32 LINE",
"296 0 LINE",
"556 0 LINE",
"556 32 LINE",
"502 38 LINE",
"502 300 LINE SMOOTH",
"502 436 OFFCURVE",
"443 525 OFFCURVE",
"315 525 CURVE",
"191 267 LINE",
"204 250 LINE",
"279 354 LINE",
"321 354 OFFCURVE",
"350 318 OFFCURVE",
"350 236 CURVE SMOOTH"
);
}
);
};
components = (
{
name = _part.shoulder;
transform = "{1, 0, 0, 1, -45, 0}";
},
{
name = _part.tallstem;
transform = "{1, 0, 0, 1, -10, 0}";
}
);
layerId = "FABFC9D4-E17A-4CB6-8F8E-4923CD579275";
name = Regular;
width = 534;
}
);
unicode = 0068;
},
{
glyphname = i;
lastChange = "2016-01-23 17:21:33 +0000";
layers = (
{
anchors = (
{
name = bottom;
position = "{135, 0}";
},
{
name = top;
position = "{138, 574}";
}
);
background = {
components = (
{
name = _part.tallstem;
transform = "{1, 0, 0, 1, -308, 0}";
piece = {
XHeight = 100;
};
},
{
name = _part.tallstem;
transform = "{1, 0, 0, 1, -8, 0}";
piece = {
XHeight = 100;
};
}
);
paths = (
{
closed = 1;
nodes = (
"-969 125 LINE SMOOTH",
"-977 58 OFFCURVE",
"-961 13 OFFCURVE",
"-922 -16 CURVE",
"-765 58 LINE",
"-774 91 LINE",
"-808 78 LINE",
"-821 97 OFFCURVE",
"-827 117 OFFCURVE",
"-820 173 CURVE SMOOTH",
"-805 300 LINE SMOOTH",
"-795 387 OFFCURVE",
"-811 453 OFFCURVE",
"-842 505 CURVE",
"-1027 399 LINE",
"-1017 367 LINE",
"-973 382 LINE",
"-957 356 OFFCURVE",
"-949 302 OFFCURVE",
"-957 232 CURVE SMOOTH"
);
},
{
closed = 1;
nodes = (
"-969 713 OFFCURVE",
"-969 706 OFFCURVE",
"-969 695 CURVE SMOOTH",
"-969 626 OFFCURVE",
"-935 575 OFFCURVE",
"-872 575 CURVE SMOOTH",
"-841 574 OFFCURVE",
"-809 587 OFFCURVE",
"-784 605 CURVE",
"-784 613 OFFCURVE",
"-784 622 OFFCURVE",
"-784 630 CURVE SMOOTH",
"-784 701 OFFCURVE",
"-819 750 OFFCURVE",
"-883 750 CURVE SMOOTH",
"-913 750 OFFCURVE",
"-945 738 OFFCURVE",
"-969 720 CURVE"
);
},
{
closed = 1;
nodes = (
"-598 459 LINE",
"-595 421 LINE",
"-544 428 LINE",
"-544 38 LINE",
"-598 32 LINE",
"-598 0 LINE",
"-338 0 LINE",
"-338 32 LINE",
"-392 38 LINE",
"-392 515 LINE"
);
},
{
closed = 1;
nodes = (
"-529 601 LINE",
"-484 624 OFFCURVE",
"-440 643 OFFCURVE",
"-396 654 CURVE",
"-448 785 LINE",
"-493 772 OFFCURVE",
"-538 754 OFFCURVE",
"-581 729 CURVE"
);
},
{
closed = 1;
nodes = (
"-76 627 LINE",
"-76 550 LINE",
"-254 494 LINE",
"-254 555 LINE"
);
},
{
closed = 1;
nodes = (
"202 670 LINE",
"202 556 LINE",
"74 537 LINE",
"74 641 LINE"
);
}
);
};
components = (
{
name = _part.tallstem;
transform = "{1, 0, 0, 1, -8, 0}";
piece = {
XHeight = 100;
};
}
);
layerId = "FABFC9D4-E17A-4CB6-8F8E-4923CD579275";
name = Regular;
paths = (
{
closed = 1;
nodes = (
"202 690 LINE",
"202 576 LINE",
"74 557 LINE",
"74 661 LINE"
);
}
);
width = 269;
}
);
unicode = 0069;
},
{
glyphname = dotlessi;
lastChange = "2016-01-23 17:21:45 +0000";
layers = (
{
anchors = (
{
name = bottom;
position = "{152, -80}";
},
{
name = ogonek;
position = "{264, 10}";
},
{
name = top;
position = "{147, 574}";
}
);
guideLines = (
{
angle = 270;
position = "{152, 112}";
}
);
layerId = "FABFC9D4-E17A-4CB6-8F8E-4923CD579275";
name = Regular;
paths = (
{
closed = 1;
nodes = (
"209 465 LINE",
"28 409 LINE",
"38 380 LINE",
"76 388 LINE",
"79 32 LINE",
"42 29 LINE",
"42 0 LINE",
"257 0 LINE",
"257 29 LINE",
"220 32 LINE",
"223 441 LINE"
);
}
);
width = 293;
}
);
unicode = 0131;
},
{
glyphname = iogonek;
lastChange = "2016-01-23 17:17:26 +0000";
layers = (
{
components = (
{
name = dotlessi;
}
);
layerId = "FABFC9D4-E17A-4CB6-8F8E-4923CD579275";
name = Regular;
paths = (
{
closed = 1;
nodes = (
"109 -40 OFFCURVE",
"47 -95 OFFCURVE",
"47 -153 CURVE SMOOTH",
"47 -212 OFFCURVE",
"94 -251 OFFCURVE",
"159 -251 CURVE SMOOTH",
"198 -251 OFFCURVE",
"231 -237 OFFCURVE",
"257 -218 CURVE",
"249 -193 LINE",
"182 -199 OFFCURVE",
"154 -177 OFFCURVE",
"154 -129 CURVE SMOOTH",
"154 -71 OFFCURVE",
"193 -32 OFFCURVE",
"257 0 CURVE",
"202 0 LINE"
);
}
);
width = 293;
}
);
unicode = 012F;
},
{
glyphname = j;
lastChange = "2016-01-18 13:53:00 +0000";
layers = (
{
background = {
paths = (
{
closed = 1;
nodes = (
"-833 109 OFFCURVE",
"-835 295 OFFCURVE",
"-839 390 CURVE",
"-877 381 LINE",
"-887 411 LINE",
"-700 471 LINE",
"-700 114 LINE SMOOTH",
"-700 -99 OFFCURVE",
"-765 -217 OFFCURVE",
"-829 -250 CURVE",
"-892 -250 OFFCURVE",
"-968 -221 OFFCURVE",
"-1020 -181 CURVE",
"-945 -57 LINE",
"-906 -103 OFFCURVE",
"-857 -158 OFFCURVE",
"-800 -200 CURVE",
"-835 -201 LINE",
"-832 -129 OFFCURVE",
"-831 -58 OFFCURVE",
"-832 14 CURVE SMOOTH"
);
},
{
closed = 1;
nodes = (
"-433 89 OFFCURVE",
"-435 285 OFFCURVE",
"-439 380 CURVE",
"-477 371 LINE",
"-487 401 LINE",
"-300 461 LINE",
"-300 94 LINE SMOOTH",
"-300 2 OFFCURVE",
"-305 -110 OFFCURVE",
"-315 -166 CURVE",
"-335 -201 OFFCURVE",
"-396 -250 OFFCURVE",
"-462 -250 CURVE SMOOTH",
"-521 -250 OFFCURVE",
"-571 -236 OFFCURVE",
"-620 -206 CURVE",
"-545 -77 LINE",
"-506 -123 OFFCURVE",
"-457 -178 OFFCURVE",
"-400 -220 CURVE",
"-435 -221 LINE",
"-432 -149 OFFCURVE",
"-431 -78 OFFCURVE",
"-432 -6 CURVE SMOOTH"
);
},
{
closed = 1;
nodes = (
"-359 676 OFFCURVE",
"-400 672 OFFCURVE",
"-441 665 CURVE",
"-430 540 LINE",
"-390 550 OFFCURVE",
"-349 552 OFFCURVE",
"-305 553 CURVE",
"-315 673 LINE"
);
},
{
closed = 1;
nodes = (
"59 -93 OFFCURVE",
"60 135 OFFCURVE",
"57 388 CURVE",
"19 380 LINE",
"9 409 LINE",
"194 465 LINE",
"208 441 LINE",
"208 388 LINE SMOOTH",
"205 8 OFFCURVE",
"196 -120 OFFCURVE",
"178 -157 CURVE SMOOTH",
"160 -194 OFFCURVE",
"92 -237 OFFCURVE",
"30 -250 CURVE",
"-23 -250 OFFCURVE",
"-79 -236 OFFCURVE",
"-128 -206 CURVE",
"-53 -77 LINE",
"-14 -123 OFFCURVE",
"35 -178 OFFCURVE",
"92 -220 CURVE",
"54 -221 LINE"
);
},
{
closed = 1;
nodes = (
"195 670 LINE",
"195 556 LINE",
"67 537 LINE",
"67 641 LINE"
);
}
);
};
layerId = "FABFC9D4-E17A-4CB6-8F8E-4923CD579275";
name = Regular;
paths = (
{
closed = 1;
nodes = (
"59 -93 OFFCURVE",
"60 135 OFFCURVE",
"57 388 CURVE",
"19 380 LINE",
"9 409 LINE",
"194 465 LINE",
"208 441 LINE",
"208 388 LINE SMOOTH",
"205 8 OFFCURVE",
"196 -120 OFFCURVE",
"178 -157 CURVE SMOOTH",
"160 -194 OFFCURVE",
"92 -237 OFFCURVE",
"30 -250 CURVE",
"-23 -250 OFFCURVE",
"-79 -236 OFFCURVE",
"-128 -206 CURVE",
"-56 -92 LINE",
"-13 -137 OFFCURVE",
"38 -180 OFFCURVE",
"92 -220 CURVE",
"54 -221 LINE"
);
},
{
closed = 1;
nodes = (
"195 670 LINE",
"195 556 LINE",
"67 537 LINE",
"67 641 LINE"
);
}
);
width = 245;
}
);
unicode = 006A;
},
{
glyphname = k;
lastChange = "2016-01-26 13:33:50 +0000";
layers = (
{
anchors = (
{
name = bottom;
position = "{268, -80}";
},
{
name = top;
position = "{268, 770}";
}
);
background = {
components = (
{
name = _part.tallstem;
transform = "{1, 0, 0, 1, -10, 0}";
}
);
paths = (
{
closed = 1;
nodes = (
"-1897 790 LINE",
"-2111 709 LINE",
"-2101 677 LINE",
"-2049 687 LINE",
"-2049 38 LINE",
"-2103 32 LINE",
"-2103 0 LINE",
"-1843 0 LINE",
"-1843 32 LINE",
"-1897 38 LINE"
);
},
{
closed = 1;
nodes = (
"-1752 38 LINE",
"-1806 32 LINE",
"-1806 0 LINE",
"-1527 0 LINE",
"-1527 32 LINE",
"-1581 38 LINE",
"-1711 280 LINE",
"-1833 219 LINE"
);
},
{
closed = 1;
nodes = (
"-1601 426 OFFCURVE",
"-1648 494 OFFCURVE",
"-1750 522 CURVE",
"-1916 318 LINE",
"-1902 287 LINE",
"-1814 366 LINE",
"-1780 359 OFFCURVE",
"-1755 317 OFFCURVE",
"-1755 291 CURVE",
"-1915 212 LINE",
"-1913 173 LINE",
"-1601 310 LINE"
);
},
{
closed = 1;
nodes = (
"-1197 790 LINE",
"-1401 724 LINE",
"-1391 692 LINE",
"-1349 701 LINE",
"-1349 35 LINE",
"-1386 32 LINE",
"-1386 0 LINE",
"-1160 0 LINE",
"-1160 32 LINE",
"-1197 35 LINE"
);
},
{
closed = 1;
nodes = (
"-982 256 OFFCURVE",
"-916 321 OFFCURVE",
"-916 352 CURVE SMOOTH",
"-916 415 OFFCURVE",
"-959 488 OFFCURVE",
"-1050 513 CURVE",
"-1216 309 LINE",
"-1202 278 LINE",
"-1116 359 LINE",
"-1080 349 OFFCURVE",
"-1055 301 OFFCURVE",
"-1055 272 CURVE",
"-1215 193 LINE",
"-1213 154 LINE",
"-1021 239 LINE SMOOTH"
);
},
{
closed = 1;
nodes = (
"-1070 53 OFFCURVE",
"-1037 9 OFFCURVE",
"-1008 -15 CURVE",
"-851 75 LINE",
"-863 107 LINE",
"-896 91 LINE",
"-915 107 OFFCURVE",
"-943 140 OFFCURVE",
"-989 232 CURVE SMOOTH",
"-1011 280 LINE",
"-1133 219 LINE",
"-1110 158 LINE SMOOTH"
);
},
{
closed = 1;
nodes = (
"-391 721 LINE",
"-577 661 LINE",
"-568 631 LINE",
"-530 640 LINE",
"-530 31 LINE",
"-564 28 LINE",
"-564 -1 LINE",
"-357 -1 LINE",
"-357 28 LINE",
"-391 31 LINE"
);
},
{
closed = 1;
nodes = (
"-120 375 OFFCURVE",
"-163 441 OFFCURVE",
"-257 468 CURVE",
"-408 281 LINE",
"-395 253 LINE",
"-317 327 LINE",
"-284 318 OFFCURVE",
"-261 274 OFFCURVE",
"-261 247 CURVE",
"-407 175 LINE",
"-406 140 LINE",
"-120 265 LINE"
);
},
{
closed = 1;
nodes = (
"-275 47 OFFCURVE",
"-245 7 OFFCURVE",
"-218 -15 CURVE",
"-75 67 LINE",
"-86 97 LINE",
"-116 82 LINE",
"-133 97 OFFCURVE",
"-159 127 OFFCURVE",
"-201 211 CURVE SMOOTH",
"-221 255 LINE",
"-332 199 LINE",
"-311 143 LINE SMOOTH"
);
},
{
closed = 1;
nodes = (
"480 375 OFFCURVE",
"437 441 OFFCURVE",
"343 468 CURVE",
"192 281 LINE",
"205 253 LINE",
"283 327 LINE",
"316 318 OFFCURVE",
"339 274 OFFCURVE",
"339 247 CURVE",
"193 175 LINE",
"194 140 LINE",
"480 265 LINE"
);
},
{
closed = 1;
nodes = (
"330 50 OFFCURVE",
"360 10 OFFCURVE",
"387 -12 CURVE",
"530 70 LINE",
"519 100 LINE",
"489 85 LINE",
"472 100 OFFCURVE",
"446 130 OFFCURVE",
"404 214 CURVE SMOOTH",
"384 258 LINE",
"273 202 LINE",
"294 146 LINE SMOOTH"
);
}
);
};
components = (
{
name = _part.tallstem;
transform = "{1, 0, 0, 1, -10, 0}";
}
);
layerId = "FABFC9D4-E17A-4CB6-8F8E-4923CD579275";
name = Regular;
paths = (
{
closed = 1;
nodes = (
"486 375 OFFCURVE",
"443 441 OFFCURVE",
"349 468 CURVE",
"192 281 LINE",
"205 253 LINE",
"289 327 LINE",
"322 318 OFFCURVE",
"345 274 OFFCURVE",
"345 247 CURVE",
"193 175 LINE",
"194 140 LINE",
"486 265 LINE"
);
},
{
closed = 1;
nodes = (
"336 50 OFFCURVE",
"366 10 OFFCURVE",
"393 -12 CURVE",
"536 70 LINE",
"525 100 LINE",
"495 85 LINE",
"478 100 OFFCURVE",
"452 130 OFFCURVE",
"410 214 CURVE SMOOTH",
"390 258 LINE",
"279 202 LINE",
"300 146 LINE SMOOTH"
);
}
);
width = 540;
}
);
unicode = 006B;
},
{
glyphname = l;
lastChange = "2016-01-23 17:03:16 +0000";
layers = (
{
anchors = (
{
name = bottom;
position = "{141, -80}";
},
{
name = center;
position = "{136, 365}";
},
{
name = top;
position = "{136, 770}";
},
{
name = topright;
position = "{251, 450}";
}
);
background = {
paths = (
{
closed = 1;
nodes = (
"216 790 LINE",
"2 709 LINE",
"12 677 LINE",
"64 687 LINE",
"64 38 LINE",
"10 32 LINE",
"10 0 LINE",
"270 0 LINE",
"270 32 LINE",
"216 38 LINE"
);
}
);
};
components = (
{
name = _part.tallstem;
transform = "{1, 0, 0, 1, -10, 0}";
}
);
layerId = "FABFC9D4-E17A-4CB6-8F8E-4923CD579275";
name = Regular;
width = 271;
}
);
unicode = 006C;
},
{
glyphname = m;
lastChange = "2016-01-18 13:36:42 +0000";
layers = (
{
background = {
components = (
{
name = _part.shortstem;
transform = "{1, 0, 0, 1, -1028, 0}";
},
{
name = _part.shoulder;
transform = "{1, 0, 0, 1, -1028, 0}";
piece = {
shoulderWidth = 20.2407;
};
},
{
name = _part.shoulder;
transform = "{1, 0, 0, 1, -755, 0}";
piece = {
shoulderWidth = 20.2407;
};
}
);
paths = (
{
closed = 1;
nodes = (
"1115 286 LINE",
"1115 307 LINE",
"1115 515 LINE",
"901 434 LINE",
"911 402 LINE",
"963 412 LINE",
"963 38 LINE",
"909 32 LINE",
"909 0 LINE",
"1169 0 LINE",
"1169 32 LINE",
"1115 38 LINE"
);
},
{
closed = 1;
nodes = (
"1237 38 LINE",
"1183 32 LINE",
"1183 0 LINE",
"1443 0 LINE",
"1443 32 LINE",
"1389 38 LINE",
"1389 300 LINE SMOOTH",
"1389 436 OFFCURVE",
"1334 525 OFFCURVE",
"1214 525 CURVE",
"1090 267 LINE",
"1103 250 LINE",
"1178 354 LINE",
"1213 354 OFFCURVE",
"1237 318 OFFCURVE",
"1237 236 CURVE SMOOTH"
);
},
{
closed = 1;
nodes = (
"1508 38 LINE",
"1454 32 LINE",
"1454 0 LINE",
"1714 0 LINE",
"1714 32 LINE",
"1660 38 LINE",
"1660 300 LINE SMOOTH",
"1660 436 OFFCURVE",
"1605 525 OFFCURVE",
"1485 525 CURVE",
"1361 267 LINE",
"1374 250 LINE",
"1449 354 LINE",
"1484 354 OFFCURVE",
"1508 318 OFFCURVE",
"1508 236 CURVE SMOOTH"
);
},
{
closed = 1;
nodes = (
"215 274 LINE",
"215 295 LINE",
"215 503 LINE",
"1 432 LINE",
"11 400 LINE",
"63 410 LINE",
"63 38 LINE",
"9 32 LINE",
"9 0 LINE",
"264 0 LINE",
"264 32 LINE",
"215 38 LINE"
);
},
{
closed = 1;
nodes = (
"337 38 LINE",
"288 32 LINE",
"288 0 LINE",
"538 0 LINE",
"538 32 LINE",
"489 38 LINE",
"489 288 LINE SMOOTH",
"489 439 OFFCURVE",
"443 513 OFFCURVE",
"314 513 CURVE",
"273 429 OFFCURVE",
"231 344 OFFCURVE",
"190 260 CURVE",
"203 238 LINE",
"272 342 LINE",
"321 342 OFFCURVE",
"337 311 OFFCURVE",
"337 224 CURVE SMOOTH"
);
},
{
closed = 1;
nodes = (
"607 38 LINE",
"558 32 LINE",
"558 0 LINE",
"813 0 LINE",
"813 32 LINE",
"759 38 LINE",
"759 288 LINE SMOOTH",
"759 439 OFFCURVE",
"713 513 OFFCURVE",
"584 513 CURVE",
"460 260 LINE",
"473 238 LINE",
"542 342 LINE",
"591 342 OFFCURVE",
"607 311 OFFCURVE",
"607 224 CURVE SMOOTH"
);
}
);
};
components = (
{
name = _part.shoulder;
transform = "{1, 0, 0, 1, -46, 0}";
piece = {
shoulderWidth = 75.1284;
};
},
{
name = _part.shoulder;
transform = "{1, 0, 0, 1, 217, 0}";
piece = {
shoulderWidth = 74.8316;
};
},
{
name = _part.shortstem;
transform = "{1, 0, 0, 1, -28, 0}";
}
);
guideLines = (
{
position = "{551, 469}";
}
);
layerId = "FABFC9D4-E17A-4CB6-8F8E-4923CD579275";
name = Regular;
width = 790;
}
);
unicode = 006D;
},
{
glyphname = n;
lastChange = "2016-01-23 17:27:01 +0000";
layers = (
{
anchors = (
{
name = bottom;
position = "{276, -80}";
},
{
name = top;
position = "{272, 574}";
}
);
background = {
components = (
{
name = _part.shoulder;
transform = "{1, 0, 0, 1, 1173, 0}";
},
{
name = _part.shortstem;
transform = "{1, 0, 0, 1, 1173, 0}";
},
{
name = _part.shoulder;
transform = "{1, 0, 0, 1, -1226, 0}";
}
);
paths = (
{
closed = 1;
nodes = (
"831 127 OFFCURVE",
"831 216 OFFCURVE",
"831 305 CURVE SMOOTH",
"831 395 OFFCURVE",
"810 461 OFFCURVE",
"780 510 CURVE",
"595 404 LINE",
"606 370 LINE",
"650 385 LINE",
"665 359 OFFCURVE",
"677 303 OFFCURVE",
"677 237 CURVE SMOOTH",
"677 171 OFFCURVE",
"675 104 OFFCURVE",
"672 38 CURVE",
"618 32 LINE",
"618 0 LINE",
"882 0 LINE",
"882 32 LINE",
"828 38 LINE"
);
},
{
closed = 1;
nodes = (
"968 182 OFFCURVE",
"965 110 OFFCURVE",
"962 38 CURVE",
"908 32 LINE",
"908 0 LINE",
"1172 0 LINE",
"1172 32 LINE",
"1118 38 LINE",
"1120 137 OFFCURVE",
"1122 236 OFFCURVE",
"1122 335 CURVE SMOOTH",
"1122 441 OFFCURVE",
"1073 499 OFFCURVE",
"1010 522 CURVE",
"813 370 LINE",
"819 336 LINE",
"900 381 LINE",
"934 372 OFFCURVE",
"968 323 OFFCURVE",
"968 254 CURVE SMOOTH"
);
},
{
closed = 1;
nodes = (
"-384 300 LINE SMOOTH",
"-384 390 OFFCURVE",
"-401 456 OFFCURVE",
"-430 505 CURVE",
"-615 399 LINE",
"-605 367 LINE",
"-561 382 LINE",
"-544 354 OFFCURVE",
"-536 298 OFFCURVE",
"-536 232 CURVE SMOOTH",
"-536 38 LINE",
"-590 32 LINE",
"-590 0 LINE",
"-330 0 LINE",
"-330 32 LINE",
"-384 38 LINE"
);
},
{
closed = 1;
nodes = (
"-246 38 LINE",
"-300 32 LINE",
"-300 0 LINE",
"-40 0 LINE",
"-40 32 LINE",
"-94 38 LINE",
"-94 300 LINE SMOOTH",
"-94 436 OFFCURVE",
"-138 491 OFFCURVE",
"-231 525 CURVE",
"-401 333 LINE",
"-389 301 LINE",
"-311 371 LINE",
"-276 362 OFFCURVE",
"-246 318 OFFCURVE",
"-246 249 CURVE SMOOTH"
);
},
{
closed = 1;
nodes = (
"216 274 LINE",
"216 295 LINE",
"216 503 LINE",
"2 432 LINE",
"12 400 LINE",
"64 410 LINE",
"64 38 LINE",
"10 32 LINE",
"10 0 LINE",
"270 0 LINE",
"270 32 LINE",
"216 38 LINE"
);
},
{
closed = 1;
nodes = (
"350 38 LINE",
"296 32 LINE",
"296 0 LINE",
"556 0 LINE",
"556 32 LINE",
"502 38 LINE",
"502 288 LINE SMOOTH",
"502 439 OFFCURVE",
"453 513 OFFCURVE",
"315 513 CURVE",
"191 260 LINE",
"204 238 LINE",
"273 342 LINE",
"331 342 OFFCURVE",
"350 311 OFFCURVE",
"350 224 CURVE SMOOTH"
);
},
{
closed = 1;
nodes = (
"-984 274 LINE",
"-984 295 LINE",
"-984 503 LINE",
"-1198 432 LINE",
"-1188 400 LINE",
"-1136 410 LINE",
"-1136 38 LINE",
"-1190 32 LINE",
"-1190 0 LINE",
"-930 0 LINE",
"-930 32 LINE",
"-984 38 LINE"
);
}
);
};
components = (
{
name = _part.shortstem;
transform = "{1, 0, 0, 1, -28, 0}";
},
{
name = _part.shoulder;
transform = "{1, 0, 0, 1, -46, 0}";
}
);
guideLines = (
{
angle = 270;
position = "{278, 196}";
}
);
layerId = "FABFC9D4-E17A-4CB6-8F8E-4923CD579275";
name = Regular;
width = 533;
}
);
unicode = 006E;
},
{
glyphname = o;
lastChange = "2016-01-26 13:34:27 +0000";
layers = (
{
anchors = (
{
name = top;
position = "{268, 574}";
}
);
background = {
paths = (
{
closed = 1;
nodes = (
"-2087 39 OFFCURVE",
"-2103 35 OFFCURVE",
"-2113 35 CURVE SMOOTH",
"-2153 35 OFFCURVE",
"-2206 104 OFFCURVE",
"-2206 261 CURVE SMOOTH",
"-2206 342 OFFCURVE",
"-2198 411 OFFCURVE",
"-2189 454 CURVE",
"-2176 461 OFFCURVE",
"-2160 465 OFFCURVE",
"-2150 465 CURVE SMOOTH",
"-2110 465 OFFCURVE",
"-2057 396 OFFCURVE",
"-2057 239 CURVE SMOOTH",
"-2057 158 OFFCURVE",
"-2065 89 OFFCURVE",
"-2074 46 CURVE"
);
},
{
closed = 1;
nodes = (
"-2167 515 OFFCURVE",
"-2265 470 OFFCURVE",
"-2309 432 CURVE",
"-2349 378 OFFCURVE",
"-2370 306 OFFCURVE",
"-2370 221 CURVE SMOOTH",
"-2370 68 OFFCURVE",
"-2282 -15 OFFCURVE",
"-2154 -15 CURVE SMOOTH",
"-2096 -15 OFFCURVE",
"-1998 30 OFFCURVE",
"-1954 68 CURVE",
"-1914 122 OFFCURVE",
"-1893 194 OFFCURVE",
"-1893 279 CURVE SMOOTH",
"-1893 432 OFFCURVE",
"-1981 515 OFFCURVE",
"-2109 515 CURVE"
);
},
{
closed = 1;
nodes = (
"-1780 302 OFFCURVE",
"-1759 368 OFFCURVE",
"-1719 422 CURVE",
"-1675 460 OFFCURVE",
"-1570 515 OFFCURVE",
"-1509 515 CURVE SMOOTH",
"-1375 515 OFFCURVE",
"-1283 426 OFFCURVE",
"-1283 279 CURVE SMOOTH",
"-1283 194 OFFCURVE",
"-1304 129 OFFCURVE",
"-1344 78 CURVE",
"-1388 40 OFFCURVE",
"-1493 -15 OFFCURVE",
"-1554 -15 CURVE SMOOTH",
"-1688 -15 OFFCURVE",
"-1780 68 OFFCURVE",
"-1780 221 CURVE SMOOTH"
);
},
{
closed = 1;
nodes = (
"-1447 337 OFFCURVE",
"-1491 414 OFFCURVE",
"-1579 414 CURVE SMOOTH",
"-1634 414 LINE",
"-1600 439 LINE",
"-1610 388 OFFCURVE",
"-1616 337 OFFCURVE",
"-1616 271 CURVE SMOOTH",
"-1616 144 OFFCURVE",
"-1561 84 OFFCURVE",
"-1480 83 CURVE SMOOTH",
"-1478 83 LINE",
"-1457 131 OFFCURVE",
"-1447 171 OFFCURVE",
"-1447 239 CURVE SMOOTH"
);
},
{
closed = 1;
nodes = (
"-704 179 OFFCURVE",
"-723 119 OFFCURVE",
"-760 70 CURVE",
"-800 35 OFFCURVE",
"-896 -15 OFFCURVE",
"-952 -15 CURVE SMOOTH",
"-1075 -15 OFFCURVE",
"-1159 65 OFFCURVE",
"-1159 199 CURVE SMOOTH",
"-1159 272 OFFCURVE",
"-1140 331 OFFCURVE",
"-1103 381 CURVE",
"-1063 415 OFFCURVE",
"-967 465 OFFCURVE",
"-911 465 CURVE SMOOTH",
"-788 465 OFFCURVE",
"-704 384 OFFCURVE",
"-704 252 CURVE SMOOTH"
);
},
{
closed = 1;
nodes = (
"-1016 147 OFFCURVE",
"-962 77 OFFCURVE",
"-888 77 CURVE SMOOTH",
"-838 77 LINE",
"-864 54 LINE",
"-851 102 OFFCURVE",
"-847 157 OFFCURVE",
"-847 205 CURVE SMOOTH",
"-847 304 OFFCURVE",
"-901 373 OFFCURVE",
"-975 373 CURVE SMOOTH",
"-1025 373 LINE",
"-999 396 LINE",
"-1012 349 OFFCURVE",
"-1016 294 OFFCURVE",
"-1016 245 CURVE SMOOTH"
);
},
{
closed = 1;
nodes = (
"-318 383 OFFCURVE",
"-242 334 OFFCURVE",
"-242 190 CURVE SMOOTH",
"-242 159 OFFCURVE",
"-249 90 OFFCURVE",
"-263 47 CURVE",
"-219 67 LINE",
"-344 67 OFFCURVE",
"-421 116 OFFCURVE",
"-421 260 CURVE SMOOTH",
"-421 291 OFFCURVE",
"-413 360 OFFCURVE",
"-399 403 CURVE",
"-440 383 LINE"
);
},
{
closed = 1;
nodes = (
"-396 465 OFFCURVE",
"-459 434 OFFCURVE",
"-499 396 CURVE",
"-543 343 OFFCURVE",
"-565 270 OFFCURVE",
"-565 212 CURVE SMOOTH",
"-565 63 OFFCURVE",
"-469 -15 OFFCURVE",
"-335 -15 CURVE SMOOTH",
"-266 -15 OFFCURVE",
"-203 16 OFFCURVE",
"-163 54 CURVE",
"-118 107 OFFCURVE",
"-98 180 OFFCURVE",
"-98 238 CURVE SMOOTH",
"-98 387 OFFCURVE",
"-194 465 OFFCURVE",
"-328 465 CURVE SMOOTH"
);
},
{
closed = 1;
nodes = (
"280 383 OFFCURVE",
"355 334 OFFCURVE",
"355 190 CURVE SMOOTH",
"355 159 OFFCURVE",
"348 90 OFFCURVE",
"334 47 CURVE",
"381 67 LINE",
"258 67 OFFCURVE",
"182 116 OFFCURVE",
"182 260 CURVE SMOOTH",
"182 291 OFFCURVE",
"190 360 OFFCURVE",
"204 403 CURVE",
"160 383 LINE"
);
},
{
closed = 1;
nodes = (
"205 465 OFFCURVE",
"144 434 OFFCURVE",
"104 396 CURVE",
"60 343 OFFCURVE",
"38 270 OFFCURVE",
"38 212 CURVE SMOOTH",
"38 63 OFFCURVE",
"133 -15 OFFCURVE",
"265 -15 CURVE SMOOTH",
"333 -15 OFFCURVE",
"394 16 OFFCURVE",
"434 54 CURVE",
"479 107 OFFCURVE",
"499 180 OFFCURVE",
"499 238 CURVE SMOOTH",
"499 387 OFFCURVE",
"404 465 OFFCURVE",
"272 465 CURVE SMOOTH"
);
}
);
};
backgroundImage = {
crop = "{{0, 0}, {3024, 4032}}";
imagePath = ../../../../var/folders/xp/9k2g5rln0g3214w24ld01r0h0000gn/T/com.apple.iChat/Messages/Transfers/IMG_0293.JPG;
locked = "1";
transform = "{0.465, 0, 0, 0.465, -212, -174}";
};
guideLines = (
{
angle = 270;
position = "{268, 421}";
}
);
layerId = "FABFC9D4-E17A-4CB6-8F8E-4923CD579275";
name = Regular;
paths = (
{
closed = 1;
nodes = (
"280 390 OFFCURVE",
"355 339 OFFCURVE",
"355 190 CURVE SMOOTH",
"355 157 OFFCURVE",
"348 83 OFFCURVE",
"334 40 CURVE",
"381 60 LINE",
"258 60 OFFCURVE",
"182 111 OFFCURVE",
"182 260 CURVE SMOOTH",
"182 293 OFFCURVE",
"190 367 OFFCURVE",
"204 410 CURVE",
"160 390 LINE"
);
},
{
closed = 1;
nodes = (
"205 465 OFFCURVE",
"144 434 OFFCURVE",
"104 396 CURVE",
"60 343 OFFCURVE",
"38 270 OFFCURVE",
"38 212 CURVE SMOOTH",
"38 63 OFFCURVE",
"133 -15 OFFCURVE",
"265 -15 CURVE SMOOTH",
"333 -15 OFFCURVE",
"394 16 OFFCURVE",
"434 54 CURVE",
"479 107 OFFCURVE",
"499 180 OFFCURVE",
"499 238 CURVE SMOOTH",
"499 387 OFFCURVE",
"404 465 OFFCURVE",
"272 465 CURVE SMOOTH"
);
}
);
width = 537;
}
);
unicode = 006F;
},
{
glyphname = oslash;
lastChange = "2016-01-22 14:54:44 +0000";
layers = (
{
components = (
{
name = o;
}
);
layerId = "FABFC9D4-E17A-4CB6-8F8E-4923CD579275";
name = Regular;
paths = (
{
closed = 1;
nodes = (
"198 52 LINE",
"356 368 LINE",
"326 388 LINE",
"170 77 LINE"
);
}
);
width = 537;
}
);
unicode = 00F8;
},
{
glyphname = oe;
lastChange = "2016-01-22 20:13:21 +0000";
layers = (
{
background = {
paths = (
{
closed = 1;
nodes = (
"531 425 LINE",
"575 424 OFFCURVE",
"609 355 OFFCURVE",
"611 263 CURVE",
"484 252 LINE",
"484 220 LINE",
"768 230 LINE",
"769 374 OFFCURVE",
"696 465 OFFCURVE",
"580 465 CURVE SMOOTH",
"532 465 OFFCURVE",
"471 450 OFFCURVE",
"436 430 CURVE",
"386 378 OFFCURVE",
"354 292 OFFCURVE",
"354 209 CURVE SMOOTH",
"354 76 OFFCURVE",
"434 -15 OFFCURVE",
"552 -15 CURVE SMOOTH",
"638 -15 OFFCURVE",
"721 36 OFFCURVE",
"768 117 CURVE",
"750 133 LINE",
"719 114 OFFCURVE",
"678 103 OFFCURVE",
"638 103 CURVE SMOOTH",
"547 103 OFFCURVE",
"499 156 OFFCURVE",
"499 255 CURVE SMOOTH",
"499 325 OFFCURVE",
"520 395 OFFCURVE",
"551 428 CURVE"
);
},
{
closed = 1;
nodes = (
"280 383 OFFCURVE",
"355 334 OFFCURVE",
"355 190 CURVE SMOOTH",
"355 159 OFFCURVE",
"348 90 OFFCURVE",
"334 47 CURVE",
"381 67 LINE",
"258 67 OFFCURVE",
"182 116 OFFCURVE",
"182 260 CURVE SMOOTH",
"182 291 OFFCURVE",
"190 360 OFFCURVE",
"204 403 CURVE",
"160 383 LINE"
);
},
{
closed = 1;
nodes = (
"205 465 OFFCURVE",
"144 434 OFFCURVE",
"104 396 CURVE",
"60 343 OFFCURVE",
"38 270 OFFCURVE",
"38 212 CURVE SMOOTH",
"38 63 OFFCURVE",
"133 -15 OFFCURVE",
"265 -15 CURVE SMOOTH",
"333 -15 OFFCURVE",
"394 16 OFFCURVE",
"434 54 CURVE",
"479 107 OFFCURVE",
"499 180 OFFCURVE",
"499 238 CURVE SMOOTH",
"499 387 OFFCURVE",
"404 465 OFFCURVE",
"272 465 CURVE SMOOTH"
);
}
);
};
layerId = "FABFC9D4-E17A-4CB6-8F8E-4923CD579275";
name = Regular;
paths = (
{
closed = 1;
nodes = (
"531 425 LINE",
"575 424 OFFCURVE",
"609 355 OFFCURVE",
"611 263 CURVE",
"484 252 LINE",
"484 220 LINE",
"768 230 LINE",
"769 374 OFFCURVE",
"696 465 OFFCURVE",
"580 465 CURVE SMOOTH",
"440 465 OFFCURVE",
"354 367 OFFCURVE",
"354 209 CURVE SMOOTH",
"354 76 OFFCURVE",
"434 -15 OFFCURVE",
"552 -15 CURVE SMOOTH",
"638 -15 OFFCURVE",
"721 36 OFFCURVE",
"768 117 CURVE",
"750 133 LINE",
"719 114 OFFCURVE",
"678 103 OFFCURVE",
"638 103 CURVE SMOOTH",
"547 103 OFFCURVE",
"499 156 OFFCURVE",
"499 255 CURVE SMOOTH",
"499 325 OFFCURVE",
"520 395 OFFCURVE",
"551 428 CURVE"
);
},
{
closed = 1;
nodes = (
"495 238 LINE",
"495 387 OFFCURVE",
"402 465 OFFCURVE",
"272 465 CURVE SMOOTH",
"209 465 OFFCURVE",
"154 434 OFFCURVE",
"114 396 CURVE",
"70 343 OFFCURVE",
"48 270 OFFCURVE",
"48 212 CURVE SMOOTH",
"48 63 OFFCURVE",
"139 -15 OFFCURVE",
"265 -15 CURVE SMOOTH",
"333 -15 OFFCURVE",
"394 16 OFFCURVE",
"434 54 CURVE",
"413 65 LINE",
"276 65 OFFCURVE",
"192 114 OFFCURVE",
"192 260 CURVE SMOOTH",
"192 291 OFFCURVE",
"200 360 OFFCURVE",
"214 403 CURVE",
"170 383 LINE",
"284 383 OFFCURVE",
"355 334 OFFCURVE",
"354 209 CURVE"
);
}
);
width = 803;
}
);
unicode = 0153;
},
{
glyphname = p;
lastChange = "2016-01-18 13:41:47 +0000";
layers = (
{
background = {
paths = (
{
closed = 1;
nodes = (
"-541 -257 LINE",
"-358 -197 LINE",
"-367 -169 LINE",
"-405 -177 LINE",
"-405 339 LINE",
"-405 400 OFFCURVE",
"-421 438 OFFCURVE",
"-459 460 CURVE",
"-601 381 LINE",
"-589 354 LINE",
"-559 368 LINE",
"-547 352 OFFCURVE",
"-541 334 OFFCURVE",
"-541 284 CURVE"
);
},
{
closed = 1;
nodes = (
"-140 123 OFFCURVE",
"-124 204 OFFCURVE",
"-124 254 CURVE SMOOTH",
"-124 392 OFFCURVE",
"-184 465 OFFCURVE",
"-306 465 CURVE",
"-428 322 LINE",
"-414 296 LINE",
"-360 350 LINE",
"-306 350 OFFCURVE",
"-264 307 OFFCURVE",
"-264 206 CURVE SMOOTH",
"-264 142 OFFCURVE",
"-275 87 OFFCURVE",
"-292 44 CURVE",
"-266 58 LINE",
"-310 68 OFFCURVE",
"-376 111 OFFCURVE",
"-425 177 CURVE",
"-478 66 LINE",
"-437 16 OFFCURVE",
"-364 -15 OFFCURVE",
"-302 -15 CURVE SMOOTH",
"-276 -15 OFFCURVE",
"-186 49 OFFCURVE",
"-166 83 CURVE"
);
},
{
closed = 1;
nodes = (
"59 -218 LINE",
"22 -221 LINE",
"22 -250 LINE",
"275 -250 LINE",
"275 -221 LINE",
"198 -218 LINE",
"198 342 LINE",
"165 462 LINE",
"11 413 LINE",
"21 383 LINE",
"59 392 LINE"
);
},
{
closed = 1;
nodes = (
"467 115 OFFCURVE",
"492 192 OFFCURVE",
"492 260 CURVE SMOOTH",
"492 378 OFFCURVE",
"413 465 OFFCURVE",
"297 465 CURVE",
"175 322 LINE",
"189 296 LINE",
"243 350 LINE",
"299 350 OFFCURVE",
"352 296 OFFCURVE",
"352 200 CURVE SMOOTH",
"352 145 OFFCURVE",
"341 85 OFFCURVE",
"316 44 CURVE",
"342 58 LINE",
"283 65 OFFCURVE",
"194 100 OFFCURVE",
"144 136 CURVE",
"63 37 LINE",
"109 12 OFFCURVE",
"225 -15 OFFCURVE",
"283 -15 CURVE SMOOTH",
"329 -15 OFFCURVE",
"411 38 OFFCURVE",
"436 73 CURVE"
);
}
);
};
layerId = "FABFC9D4-E17A-4CB6-8F8E-4923CD579275";
name = Regular;
paths = (
{
closed = 1;
nodes = (
"53 -218 LINE",
"16 -221 LINE",
"16 -250 LINE",
"281 -250 LINE",
"281 -221 LINE",
"204 -218 LINE",
"199 342 LINE",
"165 462 LINE",
"10 413 LINE",
"20 383 LINE",
"58 392 LINE"
);
},
{
closed = 1;
nodes = (
"468 105 OFFCURVE",
"493 192 OFFCURVE",
"493 260 CURVE SMOOTH",
"493 378 OFFCURVE",
"414 465 OFFCURVE",
"297 465 CURVE",
"175 322 LINE",
"189 296 LINE",
"243 350 LINE",
"298 350 OFFCURVE",
"350 296 OFFCURVE",
"350 200 CURVE SMOOTH",
"350 145 OFFCURVE",
"340 85 OFFCURVE",
"316 44 CURVE",
"342 58 LINE",
"283 65 OFFCURVE",
"194 100 OFFCURVE",
"144 136 CURVE",
"63 37 LINE",
"109 12 OFFCURVE",
"225 -15 OFFCURVE",
"283 -15 CURVE SMOOTH",
"329 -15 OFFCURVE",
"411 28 OFFCURVE",
"436 63 CURVE"
);
}
);
width = 528;
}
);
unicode = 0070;
},
{
glyphname = thorn;
lastChange = "2016-01-22 15:11:49 +0000";
layers = (
{
background = {
paths = (
{
closed = 1;
nodes = (
"67 -218 LINE",
"30 -221 LINE",
"30 -250 LINE",
"295 -250 LINE",
"295 -221 LINE",
"218 -218 LINE",
"213 342 LINE",
"179 462 LINE",
"24 413 LINE",
"34 383 LINE",
"72 392 LINE"
);
},
{
closed = 1;
nodes = (
"482 105 OFFCURVE",
"507 192 OFFCURVE",
"507 260 CURVE SMOOTH",
"507 378 OFFCURVE",
"428 465 OFFCURVE",
"311 465 CURVE",
"189 322 LINE",
"203 296 LINE",
"257 350 LINE",
"312 350 OFFCURVE",
"364 296 OFFCURVE",
"364 200 CURVE SMOOTH",
"364 145 OFFCURVE",
"354 85 OFFCURVE",
"330 44 CURVE",
"356 58 LINE",
"297 65 OFFCURVE",
"208 100 OFFCURVE",
"158 136 CURVE",
"77 37 LINE",
"123 12 OFFCURVE",
"239 -15 OFFCURVE",
"297 -15 CURVE SMOOTH",
"343 -15 OFFCURVE",
"425 28 OFFCURVE",
"450 63 CURVE"
);
}
);
};
layerId = "FABFC9D4-E17A-4CB6-8F8E-4923CD579275";
name = Regular;
paths = (
{
closed = 1;
nodes = (
"203 708 LINE",
"22 652 LINE",
"32 623 LINE",
"70 631 LINE",
"71 -218 LINE",
"34 -221 LINE",
"34 -250 LINE",
"253 -250 LINE",
"253 -221 LINE",
"216 -218 LINE",
"217 684 LINE"
);
},
{
closed = 1;
nodes = (
"482 105 OFFCURVE",
"507 192 OFFCURVE",
"507 260 CURVE SMOOTH",
"507 378 OFFCURVE",
"428 465 OFFCURVE",
"311 465 CURVE",
"189 322 LINE",
"203 296 LINE",
"257 350 LINE",
"312 350 OFFCURVE",
"364 296 OFFCURVE",
"364 200 CURVE SMOOTH",
"364 145 OFFCURVE",
"354 85 OFFCURVE",
"330 44 CURVE",
"356 58 LINE",
"297 65 OFFCURVE",
"208 100 OFFCURVE",
"158 136 CURVE",
"77 37 LINE",
"123 12 OFFCURVE",
"239 -15 OFFCURVE",
"297 -15 CURVE SMOOTH",
"343 -15 OFFCURVE",
"425 28 OFFCURVE",
"450 63 CURVE"
);
}
);
width = 600;
}
);
unicode = 00FE;
},
{
glyphname = q;
lastChange = "2016-01-18 13:41:53 +0000";
layers = (
{
background = {
paths = (
{
closed = 1;
nodes = (
"-268 -257 LINE",
"-85 -197 LINE",
"-94 -169 LINE",
"-132 -177 LINE",
"-132 450 LINE",
"-157 450 LINE",
"-209 361 LINE",
"-268 308 LINE"
);
},
{
closed = 1;
nodes = (
"-534 327 OFFCURVE",
"-550 246 OFFCURVE",
"-550 196 CURVE SMOOTH",
"-550 58 OFFCURVE",
"-490 -15 OFFCURVE",
"-367 -15 CURVE",
"-245 128 LINE",
"-259 154 LINE",
"-313 100 LINE",
"-368 100 OFFCURVE",
"-410 143 OFFCURVE",
"-410 244 CURVE SMOOTH",
"-410 308 OFFCURVE",
"-398 363 OFFCURVE",
"-381 406 CURVE",
"-407 392 LINE",
"-363 382 OFFCURVE",
"-297 339 OFFCURVE",
"-248 273 CURVE",
"-195 384 LINE",
"-236 434 OFFCURVE",
"-309 465 OFFCURVE",
"-371 465 CURVE SMOOTH",
"-397 465 OFFCURVE",
"-487 401 OFFCURVE",
"-507 367 CURVE"
);
},
{
closed = 1;
nodes = (
"330 -255 LINE",
"513 -195 LINE",
"504 -167 LINE",
"466 -175 LINE",
"466 415 LINE",
"330 394 LINE"
);
},
{
closed = 1;
nodes = (
"61 337 OFFCURVE",
"36 260 OFFCURVE",
"36 192 CURVE SMOOTH",
"36 74 OFFCURVE",
"115 -13 OFFCURVE",
"231 -13 CURVE",
"353 130 LINE",
"339 156 LINE",
"285 102 LINE",
"229 102 OFFCURVE",
"176 156 OFFCURVE",
"176 252 CURVE SMOOTH",
"176 307 OFFCURVE",
"187 367 OFFCURVE",
"212 408 CURVE",
"186 394 LINE",
"245 387 OFFCURVE",
"334 352 OFFCURVE",
"384 316 CURVE",
"465 415 LINE",
"419 440 OFFCURVE",
"303 467 OFFCURVE",
"245 467 CURVE SMOOTH",
"199 467 OFFCURVE",
"117 414 OFFCURVE",
"92 379 CURVE"
);
}
);
};
layerId = "FABFC9D4-E17A-4CB6-8F8E-4923CD579275";
name = Regular;
paths = (
{
closed = 1;
nodes = (
"61 345 OFFCURVE",
"35 258 OFFCURVE",
"35 190 CURVE SMOOTH",
"35 72 OFFCURVE",
"115 -15 OFFCURVE",
"232 -15 CURVE",
"354 128 LINE",
"340 154 LINE",
"286 100 LINE",
"231 100 OFFCURVE",
"179 154 OFFCURVE",
"179 250 CURVE SMOOTH",
"179 305 OFFCURVE",
"189 365 OFFCURVE",
"213 406 CURVE",
"187 392 LINE",
"246 385 OFFCURVE",
"335 350 OFFCURVE",
"385 314 CURVE",
"470 413 LINE",
"423 438 OFFCURVE",
"305 465 OFFCURVE",
"246 465 CURVE SMOOTH",
"200 465 OFFCURVE",
"118 422 OFFCURVE",
"93 387 CURVE"
);
},
{
closed = 1;
nodes = (
"470 413 LINE",
"329 391 LINE",
"324 -218 LINE",
"247 -221 LINE",
"247 -250 LINE",
"512 -250 LINE",
"512 -221 LINE",
"475 -218 LINE"
);
}
);
width = 522;
}
);
unicode = 0071;
},
{
glyphname = r;
lastChange = "2016-01-24 20:02:56 +0000";
layers = (
{
anchors = (
{
name = bottom;
position = "{209, -80}";
},
{
name = top;
position = "{268, 574}";
}
);
background = {
components = (
{
name = _part.shortstem;
transform = "{1, 0, 0, 1, -1028, 0}";
},
{
name = _part.shortstem;
transform = "{1, 0, 0, 1, -528, 0}";
},
{
name = _part.shortstem;
transform = "{1, 0, 0, 1, -28, 0}";
piece = {
WideSerif = 73.6197;
};
}
);
paths = (
{
closed = 1;
nodes = (
"-1643 416 LINE",
"-1676 475 OFFCURVE",
"-1732 512 OFFCURVE",
"-1813 512 CURVE",
"-1906 217 LINE",
"-1889 198 LINE",
"-1826 348 LINE",
"-1804 348 OFFCURVE",
"-1773 327 OFFCURVE",
"-1759 304 CURVE"
);
},
{
closed = 1;
nodes = (
"-1385 274 LINE",
"-1385 295 LINE",
"-1385 503 LINE",
"-1599 432 LINE",
"-1589 400 LINE",
"-1537 410 LINE",
"-1537 38 LINE",
"-1591 32 LINE",
"-1591 0 LINE",
"-1266 0 LINE",
"-1266 32 LINE",
"-1385 38 LINE"
);
},
{
closed = 1;
nodes = (
"-1131 399 LINE",
"-1172 474 OFFCURVE",
"-1230 506 OFFCURVE",
"-1311 506 CURVE",
"-1407 237 LINE",
"-1397 208 LINE",
"-1326 339 LINE",
"-1299 339 OFFCURVE",
"-1273 318 OFFCURVE",
"-1251 278 CURVE"
);
},
{
closed = 1;
nodes = (
"-541 332 LINE",
"-540 445 OFFCURVE",
"-589 513 OFFCURVE",
"-696 513 CURVE",
"-797 337 LINE",
"-790 307 LINE",
"-771 321 OFFCURVE",
"-742 341 OFFCURVE",
"-716 341 CURVE SMOOTH",
"-696 341 OFFCURVE",
"-678 319 OFFCURVE",
"-674 285 CURVE"
);
},
{
closed = 1;
nodes = (
"-299 302 LINE",
"-270 319 OFFCURVE",
"-185 327 OFFCURVE",
"-124 311 CURVE",
"-106 464 LINE",
"-193 464 OFFCURVE",
"-270 414 OFFCURVE",
"-309 322 CURVE"
);
},
{
closed = 1;
nodes = (
"436 300 LINE",
"433 403 OFFCURVE",
"388 465 OFFCURVE",
"298 465 CURVE",
"198 312 LINE",
"206 275 LINE",
"258 331 LINE",
"278 331 OFFCURVE",
"307 301 OFFCURVE",
"310 257 CURVE"
);
}
);
};
components = (
{
name = _part.shortstem;
transform = "{1, 0, 0, 1, -28, 0}";
piece = {
WideSerif = 73.6197;
};
}
);
layerId = "FABFC9D4-E17A-4CB6-8F8E-4923CD579275";
name = Regular;
paths = (
{
closed = 1;
nodes = (
"413 450 LINE",
"391 459 OFFCURVE",
"362 465 OFFCURVE",
"334 465 CURVE SMOOTH",
"317 465 OFFCURVE",
"295 462 OFFCURVE",
"281 457 CURVE",
"250 427 OFFCURVE",
"218 377 OFFCURVE",
"198 329 CURVE",
"206 305 LINE",
"233 338 LINE",
"270 336 OFFCURVE",
"341 328 OFFCURVE",
"381 320 CURVE"
);
}
);
width = 418;
}
);
unicode = 0072;
},
{
glyphname = s;
lastChange = "2016-01-22 12:30:02 +0000";
layers = (
{
anchors = (
{
name = bottom;
position = "{190, -80}";
},
{
name = top;
position = "{224, 574}";
}
);
background = {
paths = (
{
closed = 1;
nodes = (
"1831 161 OFFCURVE",
"1729 124 OFFCURVE",
"1676 124 CURVE",
"1652 169 LINE",
"1623 154 LINE",
"1699 -23 LINE",
"1778 -17 OFFCURVE",
"1954 36 OFFCURVE",
"1954 142 CURVE",
"1924 206 OFFCURVE",
"1752 262 OFFCURVE",
"1749 313 CURVE SMOOTH",
"1748 331 OFFCURVE",
"1850 368 OFFCURVE",
"1903 368 CURVE",
"1927 323 LINE",
"1956 338 LINE",
"1880 515 LINE",
"1801 509 OFFCURVE",
"1625 456 OFFCURVE",
"1625 350 CURVE",
"1655 286 OFFCURVE",
"1827 230 OFFCURVE",
"1830 179 CURVE SMOOTH"
);
},
{
closed = 1;
nodes = (
"1159 124 OFFCURVE",
"1108 108 OFFCURVE",
"1079 108 CURVE",
"1055 153 LINE",
"1026 138 LINE",
"1093 -22 LINE",
"1172 -16 OFFCURVE",
"1339 35 OFFCURVE",
"1339 145 CURVE SMOOTH",
"1339 218 OFFCURVE",
"1213 294 OFFCURVE",
"1213 344 CURVE SMOOTH",
"1213 366 OFFCURVE",
"1264 387 OFFCURVE",
"1293 387 CURVE",
"1317 342 LINE",
"1346 357 LINE",
"1279 517 LINE",
"1200 511 OFFCURVE",
"1025 455 OFFCURVE",
"1025 345 CURVE SMOOTH",
"1025 268 OFFCURVE",
"1159 194 OFFCURVE",
"1159 146 CURVE SMOOTH"
);
},
{
closed = 1;
nodes = (
"661 118 OFFCURVE",
"615 104 OFFCURVE",
"588 104 CURVE",
"566 145 LINE",
"540 131 LINE",
"601 -15 LINE",
"673 -10 OFFCURVE",
"826 37 OFFCURVE",
"826 138 CURVE SMOOTH",
"826 202 OFFCURVE",
"711 263 OFFCURVE",
"711 307 CURVE SMOOTH",
"711 327 OFFCURVE",
"757 346 OFFCURVE",
"784 346 CURVE",
"806 305 LINE",
"832 319 LINE",
"771 465 LINE",
"699 459 OFFCURVE",
"539 408 OFFCURVE",
"539 308 CURVE SMOOTH",
"539 240 OFFCURVE",
"661 181 OFFCURVE",
"661 139 CURVE SMOOTH"
);
},
{
closed = 1;
nodes = (
"233 45 OFFCURVE",
"180 0 OFFCURVE",
"146 0 CURVE",
"210 1 LINE",
"169 44 OFFCURVE",
"136 91 OFFCURVE",
"111 143 CURVE",
"25 74 LINE",
"54 18 OFFCURVE",
"111 -15 OFFCURVE",
"192 -15 CURVE SMOOTH",
"304 -15 OFFCURVE",
"376 55 OFFCURVE",
"376 133 CURVE SMOOTH",
"376 255 OFFCURVE",
"179 286 OFFCURVE",
"179 375 CURVE SMOOTH",
"179 421 OFFCURVE",
"202 445 OFFCURVE",
"224 453 CURVE",
"177 448 LINE",
"227 407 OFFCURVE",
"263 366 OFFCURVE",
"302 317 CURVE",
"380 400 LINE",
"350 436 OFFCURVE",
"296 465 OFFCURVE",
"236 465 CURVE SMOOTH",
"119 465 OFFCURVE",
"43 390 OFFCURVE",
"43 318 CURVE SMOOTH",
"43 197 OFFCURVE",
"233 175 OFFCURVE",
"233 85 CURVE SMOOTH"
);
}
);
};
guideLines = (
{
angle = 270;
position = "{204, 369}";
}
);
layerId = "FABFC9D4-E17A-4CB6-8F8E-4923CD579275";
name = Regular;
paths = (
{
closed = 1;
nodes = (
"233 45 OFFCURVE",
"180 0 OFFCURVE",
"146 0 CURVE",
"210 1 LINE",
"169 44 OFFCURVE",
"137 95 OFFCURVE",
"111 143 CURVE",
"25 74 LINE",
"54 23 OFFCURVE",
"121 -15 OFFCURVE",
"192 -15 CURVE SMOOTH",
"304 -15 OFFCURVE",
"376 55 OFFCURVE",
"376 133 CURVE SMOOTH",
"376 255 OFFCURVE",
"179 286 OFFCURVE",
"179 375 CURVE SMOOTH",
"179 421 OFFCURVE",
"202 445 OFFCURVE",
"224 453 CURVE",
"177 448 LINE",
"227 407 OFFCURVE",
"263 372 OFFCURVE",
"302 323 CURVE",
"380 400 LINE",
"350 436 OFFCURVE",
"296 465 OFFCURVE",
"236 465 CURVE SMOOTH",
"119 465 OFFCURVE",
"43 390 OFFCURVE",
"43 318 CURVE SMOOTH",
"43 197 OFFCURVE",
"233 175 OFFCURVE",
"233 85 CURVE SMOOTH"
);
}
);
width = 409;
}
);
unicode = 0073;
},
{
glyphname = germandbls;
lastChange = "2016-01-22 15:29:10 +0000";
layers = (
{
background = {
paths = (
{
closed = 1;
nodes = (
"341 551 OFFCURVE",
"296 594 OFFCURVE",
"217 655 CURVE",
"233 664 LINE",
"235 21 LINE",
"188 22 LINE",
"287 49 OFFCURVE",
"387 85 OFFCURVE",
"486 128 CURVE",
"488 178 LINE",
"527 179 LINE",
"527 0 LINE",
"20 0 LINE",
"20 35 LINE",
"69 36 LINE",
"66 537 LINE",
"66 589 OFFCURVE",
"86 633 OFFCURVE",
"125 659 CURVE",
"165 675 OFFCURVE",
"221 685 OFFCURVE",
"260 685 CURVE SMOOTH",
"361 685 OFFCURVE",
"436 636 OFFCURVE",
"486 579 CURVE",
"384 483 LINE"
);
},
{
closed = 1;
nodes = (
"35 345 LINE",
"459 345 LINE",
"459 308 LINE",
"35 308 LINE"
);
},
{
closed = 0;
nodes = (
"188 668 LINE",
"334 680 LINE",
"467 680 OFFCURVE",
"532 616 OFFCURVE",
"532 529 CURVE SMOOTH",
"532 434 OFFCURVE",
"459 366 OFFCURVE",
"319 331 CURVE",
"319 341 LINE",
"416 347 LINE",
"528 347 OFFCURVE",
"582 270 OFFCURVE",
"582 198 CURVE SMOOTH",
"582 76 OFFCURVE",
"478 0 OFFCURVE",
"270 0 CURVE SMOOTH"
);
},
{
closed = 1;
nodes = (
"201 346 LINE",
"305 351 OFFCURVE",
"354 397 OFFCURVE",
"354 491 CURVE SMOOTH",
"354 586 OFFCURVE",
"305 635 OFFCURVE",
"210 635 CURVE",
"210 35 LINE",
"346 35 OFFCURVE",
"404 75 OFFCURVE",
"404 169 CURVE SMOOTH",
"404 263 OFFCURVE",
"348 311 OFFCURVE",
"240 311 CURVE SMOOTH",
"201 311 LINE"
);
}
);
};
layerId = "FABFC9D4-E17A-4CB6-8F8E-4923CD579275";
name = Regular;
paths = (
{
closed = 1;
nodes = (
"416 387 LINE",
"528 387 OFFCURVE",
"582 310 OFFCURVE",
"582 238 CURVE SMOOTH",
"582 91 OFFCURVE",
"478 0 OFFCURVE",
"251 0 CURVE SMOOTH",
"244 37 LINE",
"356 37 OFFCURVE",
"404 87 OFFCURVE",
"404 209 CURVE SMOOTH",
"404 303 OFFCURVE",
"350 351 OFFCURVE",
"260 351 CURVE SMOOTH",
"228 351 LINE",
"228 386 LINE",
"261 386 LINE SMOOTH",
"338 386 OFFCURVE",
"374 430 OFFCURVE",
"374 511 CURVE SMOOTH",
"374 597 OFFCURVE",
"305 641 OFFCURVE",
"210 641 CURVE",
"248 664 LINE",
"231 636 OFFCURVE",
"214 559 OFFCURVE",
"214 287 CURVE SMOOTH",
"214 0 LINE",
"20 0 LINE",
"20 35 LINE",
"69 36 LINE",
"67 287 LINE SMOOTH",
"65 559 OFFCURVE",
"86 633 OFFCURVE",
"125 659 CURVE",
"165 675 OFFCURVE",
"221 685 OFFCURVE",
"320 685 CURVE SMOOTH",
"445 685 OFFCURVE",
"518 627 OFFCURVE",
"518 549 CURVE SMOOTH",
"518 464 OFFCURVE",
"457 406 OFFCURVE",
"339 371 CURVE",
"339 381 LINE"
);
}
);
width = 600;
}
);
unicode = 00DF;
},
{
glyphname = t;
lastChange = "2016-01-31 17:21:21 +0000";
layers = (
{
background = {
paths = (
{
closed = 1;
nodes = (
"-421 460 LINE",
"-338 460 LINE",
"-338 159 LINE SMOOTH",
"-338 49 OFFCURVE",
"-276 -12 OFFCURVE",
"-164 -12 CURVE",
"-48 154 LINE",
"-74 176 LINE",
"-107 138 LINE",
"-161 138 OFFCURVE",
"-186 170 OFFCURVE",
"-186 240 CURVE SMOOTH",
"-186 660 LINE",
"-223 660 LINE",
"-276 587 OFFCURVE",
"-344 527 OFFCURVE",
"-421 495 CURVE"
);
},
{
closed = 1;
nodes = (
"-233 460 LINE",
"-65 460 LINE",
"-65 506 LINE",
"-233 501 LINE"
);
},
{
closed = 1;
nodes = (
"-5 420 LINE",
"70 420 LINE",
"70 165 LINE SMOOTH",
"70 38 OFFCURVE",
"127 -8 OFFCURVE",
"230 -8 CURVE",
"329 137 LINE",
"306 157 LINE",
"280 126 LINE",
"240 126 OFFCURVE",
"211 158 OFFCURVE",
"211 223 CURVE SMOOTH",
"211 603 LINE",
"176 603 LINE",
"127 536 OFFCURVE",
"65 482 OFFCURVE",
"-5 452 CURVE"
);
},
{
closed = 1;
nodes = (
"166 420 LINE",
"320 420 LINE",
"320 462 LINE",
"166 457 LINE"
);
}
);
};
layerId = "FABFC9D4-E17A-4CB6-8F8E-4923CD579275";
name = Regular;
paths = (
{
closed = 1;
nodes = (
"-5 418 LINE",
"70 418 LINE",
"70 165 LINE SMOOTH",
"70 37 OFFCURVE",
"132 -9 OFFCURVE",
"244 -9 CURVE",
"334 111 LINE",
"311 131 LINE",
"286 106 LINE",
"250 106 OFFCURVE",
"211 145 OFFCURVE",
"211 223 CURVE SMOOTH",
"211 603 LINE",
"176 603 LINE",
"127 535 OFFCURVE",
"65 480 OFFCURVE",
"-5 450 CURVE"
);
},
{
closed = 1;
nodes = (
"166 418 LINE",
"320 418 LINE",
"320 460 LINE",
"166 455 LINE"
);
}
);
width = 334;
}
);
unicode = 0074;
},
{
glyphname = u;
lastChange = "2016-01-22 12:18:43 +0000";
layers = (
{
anchors = (
{
name = bottom;
position = "{268, 0}";
},
{
name = ogonek;
position = "{481, 10}";
},
{
name = top;
position = "{263, 574}";
},
{
name = topright;
position = "{515, 450}";
}
);
background = {
paths = (
{
closed = 1;
nodes = (
"-1067 200 LINE SMOOTH",
"-1067 114 OFFCURVE",
"-1052 47 OFFCURVE",
"-1021 -5 CURVE",
"-836 101 LINE",
"-846 133 LINE",
"-890 118 LINE",
"-906 144 OFFCURVE",
"-915 198 OFFCURVE",
"-915 268 CURVE SMOOTH",
"-915 500 LINE",
"-1121 500 LINE",
"-1121 468 LINE",
"-1067 462 LINE"
);
},
{
closed = 1;
nodes = (
"-1200 500 LINE",
"-1406 500 LINE",
"-1406 468 LINE",
"-1352 462 LINE",
"-1352 220 LINE SMOOTH",
"-1352 83 OFFCURVE",
"-1305 9 OFFCURVE",
"-1203 -22 CURVE",
"-1047 182 LINE",
"-1061 213 LINE",
"-1139 134 LINE",
"-1178 144 OFFCURVE",
"-1200 197 OFFCURVE",
"-1200 281 CURVE SMOOTH"
);
},
{
closed = 1;
nodes = (
"-214 500 LINE",
"-420 500 LINE",
"-420 468 LINE",
"-366 462 LINE",
"-366 126 LINE SMOOTH",
"-366 58 OFFCURVE",
"-346 15 OFFCURVE",
"-299 -10 CURVE",
"-149 77 LINE",
"-161 109 LINE",
"-194 93 LINE",
"-208 111 OFFCURVE",
"-214 131 OFFCURVE",
"-214 187 CURVE SMOOTH"
);
},
{
closed = 1;
nodes = (
"-352 117 LINE",
"-359 148 LINE",
"-378 142 OFFCURVE",
"-403 139 OFFCURVE",
"-420 139 CURVE SMOOTH",
"-476 139 OFFCURVE",
"-501 175 OFFCURVE",
"-501 245 CURVE SMOOTH",
"-501 500 LINE",
"-707 500 LINE",
"-707 468 LINE",
"-653 462 LINE",
"-653 190 LINE SMOOTH",
"-653 59 OFFCURVE",
"-601 -13 OFFCURVE",
"-463 -13 CURVE"
);
},
{
closed = 1;
nodes = (
"59 171 LINE SMOOTH",
"59 44 OFFCURVE",
"117 -15 OFFCURVE",
"243 -15 CURVE",
"364 161 LINE",
"352 178 LINE",
"286 116 LINE",
"234 117 OFFCURVE",
"198 150 OFFCURVE",
"198 211 CURVE SMOOTH",
"198 450 LINE",
"22 450 LINE",
"22 421 LINE",
"59 418 LINE"
);
},
{
closed = 1;
nodes = (
"329 50 OFFCURVE",
"348 11 OFFCURVE",
"391 -12 CURVE",
"528 67 LINE",
"517 97 LINE",
"487 82 LINE",
"474 98 OFFCURVE",
"468 117 OFFCURVE",
"468 168 CURVE SMOOTH",
"468 450 LINE",
"293 450 LINE",
"293 421 LINE",
"329 418 LINE",
"329 112 LINE SMOOTH"
);
}
);
};
guideLines = (
{
angle = 270;
position = "{263, 548}";
}
);
layerId = "FABFC9D4-E17A-4CB6-8F8E-4923CD579275";
name = Regular;
paths = (
{
closed = 1;
nodes = (
"59 171 LINE SMOOTH",
"59 44 OFFCURVE",
"117 -15 OFFCURVE",
"243 -15 CURVE",
"364 161 LINE",
"352 178 LINE",
"286 116 LINE",
"235 117 OFFCURVE",
"200 150 OFFCURVE",
"200 211 CURVE SMOOTH",
"200 450 LINE",
"22 450 LINE",
"22 421 LINE",
"59 418 LINE"
);
},
{
closed = 1;
nodes = (
"329 50 OFFCURVE",
"348 11 OFFCURVE",
"391 -12 CURVE",
"530 67 LINE",
"519 97 LINE",
"489 82 LINE",
"476 98 OFFCURVE",
"470 117 OFFCURVE",
"470 168 CURVE SMOOTH",
"470 450 LINE",
"293 450 LINE",
"293 421 LINE",
"329 418 LINE",
"329 112 LINE SMOOTH"
);
}
);
width = 535;
}
);
unicode = 0075;
},
{
glyphname = uogonek;
lastChange = "2016-01-23 17:20:23 +0000";
layers = (
{
background = {
components = (
{
name = aogonek;
transform = "{1, 0, 0, 1, 80, 0}";
}
);
};
components = (
{
name = u;
}
);
layerId = "FABFC9D4-E17A-4CB6-8F8E-4923CD579275";
name = Regular;
paths = (
{
closed = 1;
nodes = (
"378 18 OFFCURVE",
"321 -58 OFFCURVE",
"321 -133 CURVE SMOOTH",
"321 -202 OFFCURVE",
"368 -251 OFFCURVE",
"433 -251 CURVE SMOOTH",
"472 -251 OFFCURVE",
"505 -237 OFFCURVE",
"531 -218 CURVE",
"523 -193 LINE",
"456 -201 OFFCURVE",
"424 -157 OFFCURVE",
"424 -102 CURVE SMOOTH",
"424 -41 OFFCURVE",
"459 20 OFFCURVE",
"507 54 CURVE",
"503 60 LINE"
);
}
);
width = 535;
}
);
unicode = 0173;
},
{
glyphname = v;
lastChange = "2016-01-26 13:45:52 +0000";
layers = (
{
background = {
paths = (
{
closed = 1;
nodes = (
"-98 418 LINE",
"-98 450 LINE",
"-276 450 LINE",
"-276 418 LINE",
"-237 417 LINE",
"-311 62 LINE",
"-294 68 LINE",
"-400 417 LINE",
"-361 418 LINE",
"-361 450 LINE",
"-607 450 LINE",
"-607 418 LINE",
"-568 417 LINE",
"-404 0 LINE",
"-303 6 LINE",
"-136 417 LINE"
);
},
{
closed = 1;
nodes = (
"503 418 LINE",
"503 450 LINE",
"325 450 LINE",
"325 418 LINE",
"364 417 LINE",
"279 52 LINE",
"306 68 LINE",
"200 417 LINE",
"239 418 LINE",
"239 450 LINE",
"-10 450 LINE",
"-10 418 LINE",
"29 417 LINE",
"196 0 LINE",
"297 6 LINE",
"465 417 LINE"
);
}
);
};
guideLines = (
{
angle = 270;
position = "{281, 430}";
}
);
layerId = "FABFC9D4-E17A-4CB6-8F8E-4923CD579275";
name = Regular;
paths = (
{
closed = 1;
nodes = (
"503 418 LINE",
"503 450 LINE",
"325 450 LINE",
"325 418 LINE",
"364 417 LINE",
"279 52 LINE",
"306 68 LINE",
"195 417 LINE",
"234 418 LINE",
"234 450 LINE",
"-10 450 LINE",
"-10 418 LINE",
"29 417 LINE",
"196 0 LINE",
"297 6 LINE",
"465 417 LINE"
);
}
);
width = 491;
}
);
unicode = 0076;
},
{
glyphname = w;
lastChange = "2016-01-26 13:38:28 +0000";
layers = (
{
anchors = (
{
name = bottom;
position = "{387, 0}";
},
{
name = top;
position = "{424, 574}";
}
);
background = {
paths = (
{
closed = 1;
nodes = (
"-322 418 LINE",
"-322 450 LINE",
"-500 450 LINE",
"-500 418 LINE",
"-461 417 LINE",
"-521 62 LINE",
"-504 68 LINE",
"-600 417 LINE",
"-561 418 LINE",
"-561 450 LINE",
"-800 450 LINE",
"-800 418 LINE",
"-761 417 LINE",
"-614 0 LINE",
"-513 6 LINE",
"-360 417 LINE"
);
},
{
closed = 1;
nodes = (
"-22 418 LINE",
"-22 450 LINE",
"-200 450 LINE",
"-200 418 LINE",
"-161 417 LINE",
"-221 62 LINE",
"-204 68 LINE",
"-300 417 LINE",
"-261 418 LINE",
"-261 450 LINE",
"-500 450 LINE",
"-500 418 LINE",
"-461 417 LINE",
"-314 0 LINE",
"-213 6 LINE",
"-60 417 LINE"
);
},
{
closed = 1;
nodes = (
"478 418 LINE",
"478 450 LINE",
"300 450 LINE",
"300 418 LINE",
"339 417 LINE",
"269 52 LINE",
"296 68 LINE",
"200 417 LINE",
"239 418 LINE",
"239 450 LINE",
"-10 450 LINE",
"-10 418 LINE",
"29 417 LINE",
"186 0 LINE",
"287 6 LINE",
"440 417 LINE"
);
},
{
closed = 1;
nodes = (
"788 418 LINE",
"788 450 LINE",
"610 450 LINE",
"610 418 LINE",
"649 417 LINE",
"577 52 LINE",
"604 68 LINE",
"510 417 LINE",
"549 418 LINE",
"549 450 LINE",
"300 450 LINE",
"300 418 LINE",
"339 417 LINE",
"494 0 LINE",
"595 6 LINE",
"750 417 LINE"
);
}
);
};
guideLines = (
{
angle = 270;
position = "{425, 502}";
}
);
layerId = "FABFC9D4-E17A-4CB6-8F8E-4923CD579275";
name = Regular;
paths = (
{
closed = 1;
nodes = (
"540 418 LINE",
"540 450 LINE",
"301 450 LINE",
"301 418 LINE",
"340 417 LINE",
"267 52 LINE",
"294 68 LINE",
"200 417 LINE",
"239 418 LINE",
"239 450 LINE",
"-10 450 LINE",
"-10 418 LINE",
"29 417 LINE",
"184 0 LINE",
"285 6 LINE",
"436 417 LINE",
"345 391 LINE",
"488 0 LINE",
"587 6 LINE",
"742 417 LINE",
"780 418 LINE",
"780 450 LINE",
"602 450 LINE",
"602 418 LINE",
"641 417 LINE",
"569 52 LINE",
"598 68 LINE",
"501 417 LINE"
);
}
);
width = 774;
}
);
unicode = 0077;
},
{
glyphname = x;
lastChange = "2016-01-26 13:45:16 +0000";
layers = (
{
background = {
paths = (
{
closed = 1;
nodes = (
"-407 417 LINE",
"-368 418 LINE",
"-368 450 LINE",
"-607 450 LINE",
"-607 418 LINE",
"-568 417 LINE",
"-326 33 LINE",
"-365 32 LINE",
"-365 0 LINE",
"-126 0 LINE",
"-126 32 LINE",
"-165 33 LINE"
);
},
{
closed = 1;
nodes = (
"-355 216 LINE",
"-190 417 LINE",
"-152 418 LINE",
"-152 450 LINE",
"-327 450 LINE",
"-327 418 LINE",
"-288 417 LINE",
"-353 242 LINE"
);
},
{
closed = 1;
nodes = (
"-389 254 LINE",
"-557 33 LINE",
"-595 32 LINE",
"-595 0 LINE",
"-417 0 LINE",
"-417 32 LINE",
"-456 33 LINE",
"-391 228 LINE"
);
},
{
closed = 1;
nodes = (
"200 417 LINE",
"239 418 LINE",
"239 450 LINE",
"-7 450 LINE",
"-7 418 LINE",
"32 417 LINE",
"267 33 LINE",
"228 32 LINE",
"228 0 LINE",
"474 0 LINE",
"474 32 LINE",
"435 33 LINE"
);
},
{
closed = 1;
nodes = (
"245 216 LINE",
"410 417 LINE",
"448 418 LINE",
"448 450 LINE",
"273 450 LINE",
"273 418 LINE",
"312 417 LINE",
"247 242 LINE"
);
},
{
closed = 1;
nodes = (
"211 254 LINE",
"43 33 LINE",
"5 32 LINE",
"5 0 LINE",
"183 0 LINE",
"183 32 LINE",
"144 33 LINE",
"209 228 LINE"
);
}
);
};
layerId = "FABFC9D4-E17A-4CB6-8F8E-4923CD579275";
name = Regular;
paths = (
{
closed = 1;
nodes = (
"200 417 LINE",
"239 418 LINE",
"239 450 LINE",
"-4 450 LINE",
"-4 418 LINE",
"35 417 LINE",
"267 33 LINE",
"228 32 LINE",
"228 0 LINE",
"472 0 LINE",
"472 32 LINE",
"433 33 LINE"
);
},
{
closed = 1;
nodes = (
"245 216 LINE",
"410 417 LINE",
"448 418 LINE",
"448 450 LINE",
"273 450 LINE",
"273 418 LINE",
"312 417 LINE",
"247 242 LINE"
);
},
{
closed = 1;
nodes = (
"211 254 LINE",
"41 33 LINE",
"3 32 LINE",
"3 0 LINE",
"181 0 LINE",
"181 32 LINE",
"142 33 LINE",
"209 228 LINE"
);
}
);
width = 462;
}
);
unicode = 0078;
},
{
glyphname = y;
lastChange = "2016-01-26 13:46:15 +0000";
layers = (
{
anchors = (
{
name = bottom;
position = "{248, 0}";
},
{
name = top;
position = "{278, 574}";
}
);
background = {
paths = (
{
closed = 1;
nodes = (
"-2461 450 LINE",
"-2461 421 LINE",
"-2424 418 LINE",
"-2424 171 LINE SMOOTH",
"-2424 44 OFFCURVE",
"-2369 -15 OFFCURVE",
"-2250 -15 CURVE",
"-2129 161 LINE",
"-2141 178 LINE",
"-2207 116 LINE",
"-2253 117 OFFCURVE",
"-2285 150 OFFCURVE",
"-2285 211 CURVE SMOOTH",
"-2285 419 LINE",
"-2248 422 LINE",
"-2248 450 LINE"
);
},
{
closed = 1;
nodes = (
"-2200 450 LINE",
"-2200 421 LINE",
"-2164 418 LINE",
"-2164 152 LINE SMOOTH",
"-2164 -12 OFFCURVE",
"-2182 -59 OFFCURVE",
"-2240 -85 CURVE SMOOTH",
"-2271 -96 OFFCURVE",
"-2311 -101 OFFCURVE",
"-2341 -101 CURVE",
"-2364 -70 LINE",
"-2391 -88 LINE",
"-2285 -250 LINE",
"-2132 -250 OFFCURVE",
"-2025 -142 OFFCURVE",
"-2025 58 CURVE SMOOTH",
"-2025 419 LINE",
"-1988 422 LINE",
"-1988 450 LINE"
);
},
{
closed = 1;
nodes = (
"-1401 418 LINE",
"-1401 450 LINE",
"-1579 450 LINE",
"-1579 418 LINE",
"-1540 417 LINE",
"-1609 62 LINE",
"-1592 68 LINE",
"-1693 417 LINE",
"-1654 418 LINE",
"-1654 450 LINE",
"-1893 450 LINE",
"-1893 418 LINE",
"-1854 417 LINE",
"-1702 0 LINE",
"-1601 6 LINE",
"-1439 417 LINE"
);
},
{
closed = 1;
nodes = (
"-1793 -220 LINE",
"-1835 -221 LINE",
"-1837 -250 LINE",
"-1672 -250 LINE",
"-1585 49 LINE",
"-1617 41 LINE"
);
},
{
closed = 1;
nodes = (
"-795 418 LINE",
"-794 450 LINE",
"-972 450 LINE",
"-973 418 LINE",
"-934 417 LINE",
"-1021 62 LINE",
"-1004 68 LINE",
"-1101 417 LINE",
"-1062 418 LINE",
"-1061 450 LINE",
"-1302 450 LINE",
"-1303 418 LINE",
"-1264 417 LINE",
"-1117 0 LINE",
"-1015 6 LINE",
"-833 417 LINE"
);
},
{
closed = 1;
nodes = (
"-1225 -220 LINE",
"-1267 -221 LINE",
"-1270 -250 LINE",
"-1095 -250 LINE",
"-998 49 LINE",
"-1030 41 LINE"
);
},
{
closed = 1;
nodes = (
"-133 417 LINE",
"-95 418 LINE",
"-94 450 LINE",
"-272 450 LINE",
"-273 418 LINE",
"-234 417 LINE",
"-327 62 LINE",
"-307 88 LINE",
"-400 417 LINE",
"-361 418 LINE",
"-360 450 LINE",
"-609 450 LINE",
"-610 418 LINE",
"-571 417 LINE",
"-417 0 LINE",
"-326 5 LINE",
"-326 35 LINE",
"-405 -46 OFFCURVE",
"-488 -110 OFFCURVE",
"-585 -179 CURVE",
"-468 -256 LINE",
"-407 -180 OFFCURVE",
"-328 -42 OFFCURVE",
"-258 122 CURVE SMOOTH"
);
},
{
closed = 1;
nodes = (
"469 417 LINE",
"507 418 LINE",
"508 450 LINE",
"330 450 LINE",
"329 418 LINE",
"368 417 LINE",
"273 62 LINE",
"293 88 LINE",
"200 417 LINE",
"239 418 LINE",
"240 450 LINE",
"-9 450 LINE",
"-10 418 LINE",
"29 417 LINE",
"183 0 LINE",
"274 5 LINE",
"274 35 LINE",
"199 -39 OFFCURVE",
"120 -100 OFFCURVE",
"29 -161 CURVE",
"132 -256 LINE",
"193 -180 OFFCURVE",
"271 -42 OFFCURVE",
"342 122 CURVE SMOOTH"
);
}
);
};
layerId = "FABFC9D4-E17A-4CB6-8F8E-4923CD579275";
name = Regular;
paths = (
{
closed = 1;
nodes = (
"469 417 LINE",
"507 418 LINE",
"508 450 LINE",
"330 450 LINE",
"329 418 LINE",
"368 417 LINE",
"273 62 LINE",
"293 88 LINE",
"195 417 LINE",
"234 418 LINE",
"235 450 LINE",
"-9 450 LINE",
"-10 418 LINE",
"29 417 LINE",
"183 0 LINE",
"274 5 LINE",
"274 35 LINE",
"199 -39 OFFCURVE",
"120 -100 OFFCURVE",
"29 -161 CURVE",
"132 -256 LINE",
"193 -180 OFFCURVE",
"271 -42 OFFCURVE",
"342 122 CURVE SMOOTH"
);
}
);
width = 496;
}
);
unicode = 0079;
},
{
glyphname = z;
lastChange = "2016-01-23 18:53:39 +0000";
layers = (
{
anchors = (
{
name = bottom;
position = "{207, -80}";
},
{
name = top;
position = "{211, 574}";
}
);
background = {
paths = (
{
closed = 1;
nodes = (
"369 328 LINE",
"106 116 LINE",
"346 155 LINE",
"349 183 LINE",
"378 183 LINE",
"378 0 LINE",
"35 -1 LINE",
"35 104 LINE",
"317 329 LINE",
"70 302 LINE",
"66 267 LINE",
"37 267 LINE",
"37 450 LINE",
"369 450 LINE"
);
}
);
};
layerId = "FABFC9D4-E17A-4CB6-8F8E-4923CD579275";
name = Regular;
paths = (
{
closed = 1;
nodes = (
"369 328 LINE",
"106 116 LINE",
"346 155 LINE",
"349 183 LINE",
"378 183 LINE",
"378 0 LINE",
"35 -1 LINE",
"35 104 LINE",
"288 329 LINE",
"70 302 LINE",
"66 267 LINE",
"37 267 LINE",
"37 450 LINE",
"369 450 LINE"
);
}
);
width = 413;
}
);
unicode = 007A;
},
{
glyphname = s.alt;
lastChange = "2016-01-15 14:10:18 +0000";
layers = (
{
background = {
paths = (
{
closed = 1;
nodes = (
"2325 161 OFFCURVE",
"2223 124 OFFCURVE",
"2170 124 CURVE",
"2146 169 LINE",
"2117 154 LINE",
"2193 -23 LINE",
"2272 -17 OFFCURVE",
"2448 36 OFFCURVE",
"2448 142 CURVE",
"2418 206 OFFCURVE",
"2246 262 OFFCURVE",
"2243 313 CURVE SMOOTH",
"2242 331 OFFCURVE",
"2344 368 OFFCURVE",
"2397 368 CURVE",
"2421 323 LINE",
"2450 338 LINE",
"2374 515 LINE",
"2295 509 OFFCURVE",
"2119 456 OFFCURVE",
"2119 350 CURVE",
"2149 286 OFFCURVE",
"2321 230 OFFCURVE",
"2324 179 CURVE SMOOTH"
);
},
{
closed = 1;
nodes = (
"1653 124 OFFCURVE",
"1602 108 OFFCURVE",
"1573 108 CURVE",
"1549 153 LINE",
"1520 138 LINE",
"1587 -22 LINE",
"1666 -16 OFFCURVE",
"1833 35 OFFCURVE",
"1833 145 CURVE SMOOTH",
"1833 218 OFFCURVE",
"1707 294 OFFCURVE",
"1707 344 CURVE SMOOTH",
"1707 366 OFFCURVE",
"1758 387 OFFCURVE",
"1787 387 CURVE",
"1811 342 LINE",
"1840 357 LINE",
"1773 517 LINE",
"1694 511 OFFCURVE",
"1519 455 OFFCURVE",
"1519 345 CURVE SMOOTH",
"1519 268 OFFCURVE",
"1653 194 OFFCURVE",
"1653 146 CURVE SMOOTH"
);
},
{
closed = 1;
nodes = (
"1155 118 OFFCURVE",
"1109 104 OFFCURVE",
"1082 104 CURVE",
"1060 145 LINE",
"1034 131 LINE",
"1095 -15 LINE",
"1167 -10 OFFCURVE",
"1320 37 OFFCURVE",
"1320 138 CURVE SMOOTH",
"1320 202 OFFCURVE",
"1205 263 OFFCURVE",
"1205 307 CURVE SMOOTH",
"1205 327 OFFCURVE",
"1251 346 OFFCURVE",
"1278 346 CURVE",
"1300 305 LINE",
"1326 319 LINE",
"1265 465 LINE",
"1193 459 OFFCURVE",
"1033 408 OFFCURVE",
"1033 308 CURVE SMOOTH",
"1033 240 OFFCURVE",
"1155 181 OFFCURVE",
"1155 139 CURVE SMOOTH"
);
},
{
closed = 1;
nodes = (
"727 45 OFFCURVE",
"674 0 OFFCURVE",
"640 0 CURVE",
"704 1 LINE",
"663 44 OFFCURVE",
"630 91 OFFCURVE",
"605 143 CURVE",
"519 74 LINE",
"548 18 OFFCURVE",
"605 -15 OFFCURVE",
"686 -15 CURVE SMOOTH",
"798 -15 OFFCURVE",
"870 55 OFFCURVE",
"870 133 CURVE SMOOTH",
"870 255 OFFCURVE",
"673 286 OFFCURVE",
"673 375 CURVE SMOOTH",
"673 421 OFFCURVE",
"696 445 OFFCURVE",
"718 453 CURVE",
"671 448 LINE",
"721 407 OFFCURVE",
"757 366 OFFCURVE",
"796 317 CURVE",
"874 400 LINE",
"844 436 OFFCURVE",
"790 465 OFFCURVE",
"730 465 CURVE SMOOTH",
"613 465 OFFCURVE",
"537 390 OFFCURVE",
"537 318 CURVE SMOOTH",
"537 197 OFFCURVE",
"727 175 OFFCURVE",
"727 85 CURVE SMOOTH"
);
},
{
closed = 1;
nodes = (
"121 467 OFFCURVE",
"35 405 OFFCURVE",
"35 334 CURVE SMOOTH",
"35 202 OFFCURVE",
"260 230 OFFCURVE",
"260 162 CURVE SMOOTH",
"260 141 OFFCURVE",
"232 124 OFFCURVE",
"180 124 CURVE SMOOTH",
"148 124 OFFCURVE",
"107 129 OFFCURVE",
"79 134 CURVE",
"74 173 LINE",
"42 171 LINE",
"48 16 LINE",
"94 -3 OFFCURVE",
"139 -15 OFFCURVE",
"215 -15 CURVE SMOOTH",
"342 -15 OFFCURVE",
"397 51 OFFCURVE",
"397 112 CURVE SMOOTH",
"397 238 OFFCURVE",
"176 219 OFFCURVE",
"176 285 CURVE SMOOTH",
"176 314 OFFCURVE",
"205 334 OFFCURVE",
"267 334 CURVE SMOOTH",
"297 334 OFFCURVE",
"329 330 OFFCURVE",
"343 326 CURVE",
"350 291 LINE",
"379 294 LINE",
"375 452 LINE",
"336 462 OFFCURVE",
"286 467 OFFCURVE",
"241 467 CURVE SMOOTH"
);
}
);
};
layerId = "FABFC9D4-E17A-4CB6-8F8E-4923CD579275";
name = Regular;
paths = (
{
closed = 1;
nodes = (
"124 467 OFFCURVE",
"38 405 OFFCURVE",
"38 294 CURVE",
"260 182 LINE",
"260 141 OFFCURVE",
"232 124 OFFCURVE",
"180 124 CURVE SMOOTH",
"148 124 OFFCURVE",
"107 129 OFFCURVE",
"79 134 CURVE",
"74 173 LINE",
"42 171 LINE",
"48 16 LINE",
"94 -3 OFFCURVE",
"144 -15 OFFCURVE",
"215 -15 CURVE SMOOTH",
"342 -15 OFFCURVE",
"397 51 OFFCURVE",
"397 152 CURVE",
"179 262 LINE",
"179 314 OFFCURVE",
"208 334 OFFCURVE",
"270 334 CURVE SMOOTH",
"300 334 OFFCURVE",
"332 330 OFFCURVE",
"346 326 CURVE",
"353 291 LINE",
"382 294 LINE",
"378 452 LINE",
"339 462 OFFCURVE",
"289 467 OFFCURVE",
"244 467 CURVE SMOOTH"
);
}
);
width = 432;
}
);
},
{
glyphname = f_f_i;
lastChange = "2016-01-26 14:25:13 +0000";
layers = (
{
anchors = (
{
name = bottom;
position = "{757, 0}";
}
);
background = {
components = (
{
name = f;
},
{
name = f;
transform = "{1, 0, 0, 1, 311, 0}";
},
{
name = i;
transform = "{1, 0, 0, 1, 622, 0}";
}
);
};
components = (
{
name = fi;
transform = "{1, 0, 0, 1, 310, 0}";
}
);
layerId = "FABFC9D4-E17A-4CB6-8F8E-4923CD579275";
name = Regular;
paths = (
{
closed = 1;
nodes = (
"78 32 LINE",
"41 29 LINE",
"41 0 LINE",
"296 0 LINE",
"296 29 LINE",
"219 32 LINE",
"221 416 LINE",
"340 416 LINE",
"340 450 LINE",
"223 450 LINE",
"197 486 OFFCURVE",
"154 606 OFFCURVE",
"154 669 CURVE",
"120 664 LINE",
"159 647 OFFCURVE",
"231 586 OFFCURVE",
"266 545 CURVE",
"349 664 LINE",
"309 686 OFFCURVE",
"252 702 OFFCURVE",
"198 702 CURVE SMOOTH",
"147 702 OFFCURVE",
"71 662 OFFCURVE",
"53 608 CURVE",
"52 599 OFFCURVE",
"52 590 OFFCURVE",
"52 580 CURVE SMOOTH",
"52 538 OFFCURVE",
"62 484 OFFCURVE",
"76 450 CURVE",
"20 450 LINE",
"20 416 LINE",
"76 416 LINE"
);
}
);
width = 891;
}
);
leftMetricsKey = f;
},
{
glyphname = f_f_l;
lastChange = "2016-01-26 14:25:31 +0000";
layers = (
{
anchors = (
{
name = bottom;
position = "{757, 0}";
}
);
background = {
components = (
{
name = f;
},
{
name = f;
transform = "{1, 0, 0, 1, 311, 0}";
},
{
name = i;
transform = "{1, 0, 0, 1, 622, 0}";
}
);
};
components = (
{
name = fl;
transform = "{1, 0, 0, 1, 311, 0}";
}
);
layerId = "FABFC9D4-E17A-4CB6-8F8E-4923CD579275";
name = Regular;
paths = (
{
closed = 1;
nodes = (
"78 32 LINE",
"41 29 LINE",
"41 0 LINE",
"296 0 LINE",
"296 29 LINE",
"219 32 LINE",
"221 416 LINE",
"350 416 LINE",
"350 450 LINE",
"223 450 LINE",
"197 486 OFFCURVE",
"154 606 OFFCURVE",
"154 669 CURVE",
"120 664 LINE",
"159 647 OFFCURVE",
"231 586 OFFCURVE",
"266 545 CURVE",
"349 664 LINE",
"309 686 OFFCURVE",
"252 702 OFFCURVE",
"198 702 CURVE SMOOTH",
"147 702 OFFCURVE",
"71 662 OFFCURVE",
"53 608 CURVE",
"52 599 OFFCURVE",
"52 590 OFFCURVE",
"52 580 CURVE SMOOTH",
"52 538 OFFCURVE",
"62 484 OFFCURVE",
"76 450 CURVE",
"20 450 LINE",
"20 416 LINE",
"76 416 LINE"
);
}
);
width = 891;
}
);
leftMetricsKey = f;
},
{
glyphname = f_j;
lastChange = "2016-01-26 14:26:50 +0000";
layers = (
{
background = {
paths = (
{
closed = 1;
nodes = (
"78 32 LINE",
"41 29 LINE",
"41 0 LINE",
"296 0 LINE",
"296 29 LINE",
"219 32 LINE",
"221 416 LINE",
"310 416 LINE",
"310 450 LINE",
"223 450 LINE",
"197 486 OFFCURVE",
"154 606 OFFCURVE",
"154 669 CURVE",
"120 664 LINE",
"197 645 OFFCURVE",
"371 550 OFFCURVE",
"424 513 CURVE",
"484 659 LINE",
"428 677 OFFCURVE",
"304 702 OFFCURVE",
"198 702 CURVE SMOOTH",
"147 702 OFFCURVE",
"71 662 OFFCURVE",
"53 608 CURVE",
"52 599 OFFCURVE",
"52 590 OFFCURVE",
"52 580 CURVE SMOOTH",
"52 538 OFFCURVE",
"62 484 OFFCURVE",
"76 450 CURVE",
"20 450 LINE",
"20 416 LINE",
"76 416 LINE"
);
},
{
closed = 1;
nodes = (
"379 -93 OFFCURVE",
"380 135 OFFCURVE",
"377 388 CURVE",
"339 380 LINE",
"329 409 LINE",
"514 465 LINE",
"528 441 LINE",
"528 388 LINE SMOOTH",
"525 8 OFFCURVE",
"516 -120 OFFCURVE",
"498 -157 CURVE SMOOTH",
"480 -194 OFFCURVE",
"412 -237 OFFCURVE",
"350 -250 CURVE",
"297 -250 OFFCURVE",
"241 -236 OFFCURVE",
"192 -206 CURVE",
"264 -92 LINE",
"307 -137 OFFCURVE",
"358 -180 OFFCURVE",
"412 -220 CURVE",
"374 -221 LINE"
);
}
);
};
components = (
{
disableAlignment = 1;
name = j;
transform = "{1, 0, 0, 1, 322, 0}";
}
);
layerId = "FABFC9D4-E17A-4CB6-8F8E-4923CD579275";
name = Regular;
paths = (
{
closed = 1;
nodes = (
"78 32 LINE",
"41 29 LINE",
"41 0 LINE",
"296 0 LINE",
"296 29 LINE",
"219 32 LINE",
"221 416 LINE",
"310 416 LINE",
"310 450 LINE",
"223 450 LINE",
"197 486 OFFCURVE",
"154 606 OFFCURVE",
"154 669 CURVE",
"120 664 LINE",
"159 647 OFFCURVE",
"231 586 OFFCURVE",
"266 545 CURVE",
"349 664 LINE",
"309 686 OFFCURVE",
"252 702 OFFCURVE",
"198 702 CURVE SMOOTH",
"147 702 OFFCURVE",
"71 662 OFFCURVE",
"53 608 CURVE",
"52 599 OFFCURVE",
"52 590 OFFCURVE",
"52 580 CURVE SMOOTH",
"52 538 OFFCURVE",
"62 484 OFFCURVE",
"76 450 CURVE",
"20 450 LINE",
"20 416 LINE",
"76 416 LINE"
);
}
);
width = 550;
}
);
leftMetricsKey = f;
},
{
glyphname = f_t;
lastChange = "2016-01-31 17:25:49 +0000";
layers = (
{
background = {
components = (
{
name = f;
},
{
name = t;
transform = "{1, 0, 0, 1, 311, 0}";
}
);
};
layerId = "FABFC9D4-E17A-4CB6-8F8E-4923CD579275";
name = Regular;
paths = (
{
closed = 1;
nodes = (
"477 418 LINE",
"631 418 LINE",
"631 460 LINE",
"477 455 LINE"
);
},
{
closed = 1;
nodes = (
"381 165 LINE SMOOTH",
"381 37 OFFCURVE",
"443 -9 OFFCURVE",
"555 -9 CURVE",
"645 111 LINE",
"622 131 LINE",
"597 106 LINE",
"561 106 OFFCURVE",
"522 145 OFFCURVE",
"522 223 CURVE SMOOTH",
"522 603 LINE",
"487 603 LINE",
"453 530 OFFCURVE",
"376 465 OFFCURVE",
"299 450 CURVE",
"223 450 LINE",
"197 486 OFFCURVE",
"154 606 OFFCURVE",
"154 669 CURVE",
"120 664 LINE",
"163 645 OFFCURVE",
"244 579 OFFCURVE",
"283 534 CURVE",
"366 653 LINE",
"321 682 OFFCURVE",
"258 702 OFFCURVE",
"198 702 CURVE SMOOTH",
"147 702 OFFCURVE",
"71 662 OFFCURVE",
"53 608 CURVE",
"52 599 OFFCURVE",
"52 590 OFFCURVE",
"52 580 CURVE SMOOTH",
"52 538 OFFCURVE",
"62 484 OFFCURVE",
"76 450 CURVE",
"20 450 LINE",
"20 416 LINE",
"76 416 LINE",
"78 32 LINE",
"41 29 LINE",
"41 0 LINE",
"296 0 LINE",
"296 29 LINE",
"219 32 LINE",
"221 416 LINE",
"381 416 LINE"
);
}
);
width = 645;
}
);
leftMetricsKey = f;
rightMetricsKey = t;
},
{
glyphname = fi;
lastChange = "2016-01-26 14:24:25 +0000";
layers = (
{
background = {
components = (
{
name = _part.tallstem;
transform = "{1, 0, 0, 1, 303, 0}";
piece = {
XHeight = 100;
};
}
);
paths = (
{
closed = 1;
nodes = (
"78 32 LINE",
"41 29 LINE",
"41 0 LINE",
"296 0 LINE",
"296 29 LINE",
"219 32 LINE",
"221 416 LINE",
"310 416 LINE",
"310 450 LINE",
"223 450 LINE",
"197 486 OFFCURVE",
"154 606 OFFCURVE",
"154 669 CURVE",
"120 664 LINE",
"197 645 OFFCURVE",
"371 550 OFFCURVE",
"424 513 CURVE",
"484 659 LINE",
"428 677 OFFCURVE",
"304 702 OFFCURVE",
"198 702 CURVE SMOOTH",
"147 702 OFFCURVE",
"71 662 OFFCURVE",
"53 608 CURVE",
"52 599 OFFCURVE",
"52 590 OFFCURVE",
"52 580 CURVE SMOOTH",
"52 538 OFFCURVE",
"62 484 OFFCURVE",
"76 450 CURVE",
"20 450 LINE",
"20 416 LINE",
"76 416 LINE"
);
}
);
};
components = (
{
name = i;
transform = "{1, 0, 0, 1, 310, 0}";
}
);
layerId = "FABFC9D4-E17A-4CB6-8F8E-4923CD579275";
name = Regular;
paths = (
{
closed = 1;
nodes = (
"78 32 LINE",
"41 29 LINE",
"41 0 LINE",
"296 0 LINE",
"296 29 LINE",
"219 32 LINE",
"221 416 LINE",
"310 416 LINE",
"310 450 LINE",
"223 450 LINE",
"197 486 OFFCURVE",
"154 606 OFFCURVE",
"154 669 CURVE",
"120 664 LINE",
"159 647 OFFCURVE",
"231 586 OFFCURVE",
"266 545 CURVE",
"349 664 LINE",
"309 686 OFFCURVE",
"252 702 OFFCURVE",
"198 702 CURVE SMOOTH",
"147 702 OFFCURVE",
"71 662 OFFCURVE",
"53 608 CURVE",
"52 599 OFFCURVE",
"52 590 OFFCURVE",
"52 580 CURVE SMOOTH",
"52 538 OFFCURVE",
"62 484 OFFCURVE",
"76 450 CURVE",
"20 450 LINE",
"20 416 LINE",
"76 416 LINE"
);
}
);
width = 579;
}
);
leftMetricsKey = f;
unicode = FB01;
},
{
glyphname = fl;
lastChange = "2016-01-22 19:59:22 +0000";
layers = (
{
background = {
paths = (
{
closed = 1;
nodes = (
"516 708 LINE",
"331 652 LINE",
"341 623 LINE",
"379 631 LINE",
"384 32 LINE",
"347 29 LINE",
"347 0 LINE",
"562 0 LINE",
"562 29 LINE",
"525 32 LINE",
"530 684 LINE"
);
},
{
closed = 1;
nodes = (
"78 32 LINE",
"41 29 LINE",
"41 0 LINE",
"296 0 LINE",
"296 29 LINE",
"219 32 LINE",
"221 416 LINE",
"310 416 LINE",
"310 450 LINE",
"223 450 LINE",
"197 486 OFFCURVE",
"154 606 OFFCURVE",
"154 669 CURVE",
"120 664 LINE",
"163 645 OFFCURVE",
"244 579 OFFCURVE",
"283 534 CURVE",
"366 653 LINE",
"321 682 OFFCURVE",
"258 702 OFFCURVE",
"198 702 CURVE SMOOTH",
"147 702 OFFCURVE",
"71 662 OFFCURVE",
"53 608 CURVE",
"52 599 OFFCURVE",
"52 590 OFFCURVE",
"52 580 CURVE SMOOTH",
"52 538 OFFCURVE",
"62 484 OFFCURVE",
"76 450 CURVE",
"20 450 LINE",
"20 416 LINE",
"76 416 LINE"
);
},
{
closed = 1;
nodes = (
"-73 571 OFFCURVE",
"-133 702 OFFCURVE",
"-352 702 CURVE SMOOTH",
"-453 702 OFFCURVE",
"-529 662 OFFCURVE",
"-547 608 CURVE",
"-548 599 OFFCURVE",
"-548 590 OFFCURVE",
"-548 580 CURVE SMOOTH",
"-548 538 OFFCURVE",
"-538 484 OFFCURVE",
"-524 450 CURVE",
"-580 450 LINE",
"-580 416 LINE",
"-524 416 LINE",
"-522 32 LINE",
"-559 29 LINE",
"-559 0 LINE",
"-304 0 LINE",
"-304 29 LINE",
"-381 32 LINE",
"-379 416 LINE",
"-290 416 LINE",
"-290 450 LINE",
"-377 450 LINE",
"-403 486 OFFCURVE",
"-446 606 OFFCURVE",
"-446 669 CURVE",
"-480 664 LINE",
"-304 664 OFFCURVE",
"-218 568 OFFCURVE",
"-218 321 CURVE SMOOTH",
"-216 32 LINE",
"-253 29 LINE",
"-253 0 LINE",
"-38 0 LINE",
"-38 29 LINE",
"-75 32 LINE",
"-73 321 LINE SMOOTH"
);
}
);
};
layerId = "FABFC9D4-E17A-4CB6-8F8E-4923CD579275";
name = Regular;
paths = (
{
closed = 1;
nodes = (
"384 32 LINE",
"347 29 LINE",
"347 0 LINE",
"562 0 LINE",
"562 29 LINE",
"525 32 LINE",
"530 684 LINE",
"441 695 OFFCURVE",
"287 709 OFFCURVE",
"208 709 CURVE SMOOTH",
"147 709 OFFCURVE",
"71 662 OFFCURVE",
"53 608 CURVE",
"52 599 OFFCURVE",
"52 590 OFFCURVE",
"52 580 CURVE SMOOTH",
"52 538 OFFCURVE",
"62 484 OFFCURVE",
"76 450 CURVE",
"20 450 LINE",
"20 416 LINE",
"76 416 LINE",
"78 32 LINE",
"41 29 LINE",
"41 0 LINE",
"296 0 LINE",
"296 29 LINE",
"219 32 LINE",
"221 416 LINE",
"310 416 LINE",
"310 450 LINE",
"223 450 LINE",
"197 486 OFFCURVE",
"154 606 OFFCURVE",
"154 669 CURVE",
"120 664 LINE",
"188 654 OFFCURVE",
"317 613 OFFCURVE",
"379 593 CURVE"
);
}
);
width = 582;
}
);
leftMetricsKey = f;
unicode = FB02;
},
{
glyphname = "hamza-ar";
lastChange = "2016-01-31 18:11:14 +0000";
layers = (
{
anchors = (
{
name = bottom;
position = "{103, -80}";
},
{
name = top;
position = "{103, 450}";
}
);
background = {
paths = (
{
closed = 1;
nodes = (
"185 61 LINE",
"149 61 OFFCURVE",
"114 71 OFFCURVE",
"114 99 CURVE",
"119 109 LINE",
"107 96 LINE",
"116 98 OFFCURVE",
"144 102 OFFCURVE",
"170 100 CURVE",
"185 136 LINE",
"98 128 OFFCURVE",
"36 89 OFFCURVE",
"36 49 CURVE SMOOTH",
"36 26 OFFCURVE",
"56 8 OFFCURVE",
"78 2 CURVE",
"20 -51 LINE",
"33 -64 LINE",
"186 46 LINE"
);
}
);
};
layerId = "FABFC9D4-E17A-4CB6-8F8E-4923CD579275";
name = Regular;
paths = (
{
closed = 1;
nodes = (
"185 61 LINE",
"149 61 OFFCURVE",
"114 71 OFFCURVE",
"114 99 CURVE",
"119 109 LINE",
"107 96 LINE",
"116 98 OFFCURVE",
"144 102 OFFCURVE",
"170 100 CURVE",
"185 136 LINE",
"98 128 OFFCURVE",
"36 89 OFFCURVE",
"36 49 CURVE SMOOTH",
"36 26 OFFCURVE",
"56 8 OFFCURVE",
"78 2 CURVE",
"20 -51 LINE",
"33 -64 LINE",
"186 46 LINE"
);
}
);
width = 206;
}
);
unicode = 0621;
},
{
glyphname = "alef-ar";
lastChange = "2016-01-31 18:22:20 +0000";
layers = (
{
anchors = (
{
name = bottom;
position = "{91, 30}";
},
{
name = top;
position = "{84, 580}";
}
);
background = {
paths = (
{
closed = 1;
nodes = (
"-375 326 OFFCURVE",
"-371 95 OFFCURVE",
"-367 -8 CURVE",
"-276 69 LINE",
"-260 180 OFFCURVE",
"-254 418 OFFCURVE",
"-258 592 CURVE",
"-379 492 LINE"
);
},
{
closed = 1;
nodes = (
"-156 399 OFFCURVE",
"-134 170 OFFCURVE",
"-134 35 CURVE",
"-52 114 LINE",
"-38 246 OFFCURVE",
"-33 499 OFFCURVE",
"-44 633 CURVE",
"-181 529 LINE"
);
},
{
closed = 1;
nodes = (
"56 532 OFFCURVE",
"107 579 OFFCURVE",
"146 599 CURVE",
"163 536 OFFCURVE",
"138 175 OFFCURVE",
"128 156 CURVE",
"63 5 LINE",
"41 13 LINE",
"42 140 OFFCURVE",
"33 346 OFFCURVE",
"20 488 CURVE"
);
}
);
};
layerId = "FABFC9D4-E17A-4CB6-8F8E-4923CD579275";
name = Regular;
paths = (
{
closed = 1;
nodes = (
"56 532 OFFCURVE",
"107 579 OFFCURVE",
"146 599 CURVE",
"150 584 OFFCURVE",
"152 552 OFFCURVE",
"152 512 CURVE SMOOTH",
"152 383 OFFCURVE",
"135 181 OFFCURVE",
"128 156 CURVE",
"63 5 LINE",
"41 13 LINE",
"42 140 OFFCURVE",
"33 346 OFFCURVE",
"20 488 CURVE"
);
}
);
width = 167;
}
);
unicode = 0627;
},
{
glyphname = "alef-ar.fina";
lastChange = "2016-02-01 14:08:59 +0000";
layers = (
{
anchors = (
{
name = bottom;
position = "{112, -20}";
},
{
name = entry;
position = "{199, 87}";
},
{
name = top;
position = "{84, 580}";
}
);
background = {
paths = (
{
closed = 1;
nodes = (
"33 336 OFFCURVE",
"42 127 OFFCURVE",
"44 -1 CURVE",
"65 -1 LINE",
"119 142 LINE",
"127 164 OFFCURVE",
"153 402 OFFCURVE",
"151 526 CURVE SMOOTH",
"151 555 OFFCURVE",
"149 577 OFFCURVE",
"146 589 CURVE",
"107 569 OFFCURVE",
"56 522 OFFCURVE",
"20 478 CURVE"
);
},
{
closed = 1;
nodes = (
"234 145 LINE",
"228 162 LINE",
"115 150 LINE",
"65 -1 LINE",
"170 10 LINE",
"191 28 LINE"
);
}
);
};
guideLines = (
{
angle = 69;
position = "{329, 62}";
},
{
angle = 6;
position = "{170, -43}";
}
);
layerId = "FABFC9D4-E17A-4CB6-8F8E-4923CD579275";
name = Regular;
paths = (
{
closed = 1;
nodes = (
"33 336 OFFCURVE",
"42 127 OFFCURVE",
"44 -1 CURVE",
"65 -1 LINE",
"119 142 LINE",
"127 164 OFFCURVE",
"153 402 OFFCURVE",
"151 526 CURVE SMOOTH",
"151 555 OFFCURVE",
"149 577 OFFCURVE",
"146 589 CURVE",
"107 569 OFFCURVE",
"56 522 OFFCURVE",
"20 478 CURVE"
);
},
{
closed = 1;
nodes = (
"234 145 LINE",
"228 162 LINE",
"115 150 LINE",
"65 -1 LINE",
"170 10 LINE",
"191 28 LINE"
);
}
);
width = 234;
}
);
unicode = FE8E;
},
{
glyphname = "dotlessbeh-ar";
lastChange = "2016-02-01 16:23:13 +0000";
layers = (
{
anchors = (
{
name = bottom;
position = "{369, -80}";
},
{
name = top;
position = "{406, 340}";
}
);
background = {
paths = (
{
closed = 1;
nodes = (
"2320 186 OFFCURVE",
"2320 236 CURVE SMOOTH",
"2320 281 OFFCURVE",
"2285 337 OFFCURVE",
"2259 357 CURVE",
"2147 255 LINE",
"2191 216 OFFCURVE",
"2231 164 OFFCURVE",
"2253 115 CURVE",
"2259 138 LINE",
"2165 107 OFFCURVE",
"2043 89 OFFCURVE",
"1929 89 CURVE SMOOTH",
"1803 89 OFFCURVE",
"1731 129 OFFCURVE",
"1706 204 CURVE",
"1739 308 LINE",
"1713 320 LINE",
"1684 251 OFFCURVE",
"1659 195 OFFCURVE",
"1625 114 CURVE",
"1625 20 OFFCURVE",
"1698 -56 OFFCURVE",
"1880 -56 CURVE SMOOTH",
"2036 -56 OFFCURVE",
"2205 0 OFFCURVE",
"2263 54 CURVE",
"2299 99 OFFCURVE"
);
},
{
closed = 1;
nodes = (
"1520 210 OFFCURVE",
"1520 243 CURVE SMOOTH",
"1520 294 OFFCURVE",
"1473 357 OFFCURVE",
"1442 381 CURVE",
"1333 264 LINE",
"1375 229 OFFCURVE",
"1427 181 OFFCURVE",
"1448 137 CURVE",
"1454 155 LINE",
"1359 111 OFFCURVE",
"1220 102 OFFCURVE",
"1145 102 CURVE SMOOTH",
"1020 102 OFFCURVE",
"943 127 OFFCURVE",
"909 201 CURVE",
"929 248 OFFCURVE",
"975 296 OFFCURVE",
"1020 347 CURVE",
"994 363 LINE",
"914 284 OFFCURVE",
"860 212 OFFCURVE",
"825 114 CURVE",
"825 25 OFFCURVE",
"897 -56 OFFCURVE",
"1082 -56 CURVE SMOOTH",
"1235 -56 OFFCURVE",
"1405 0 OFFCURVE",
"1458 56 CURVE",
"1500 115 OFFCURVE"
);
},
{
closed = 1;
nodes = (
"-80 210 OFFCURVE",
"-80 243 CURVE SMOOTH",
"-80 291 OFFCURVE",
"-122 355 OFFCURVE",
"-150 378 CURVE",
"-267 264 LINE",
"-225 229 OFFCURVE",
"-173 181 OFFCURVE",
"-152 137 CURVE",
"-146 155 LINE",
"-241 111 OFFCURVE",
"-380 102 OFFCURVE",
"-455 102 CURVE SMOOTH",
"-580 102 OFFCURVE",
"-657 127 OFFCURVE",
"-691 201 CURVE",
"-676 248 OFFCURVE",
"-653 296 OFFCURVE",
"-622 347 CURVE",
"-644 363 LINE",
"-704 276 OFFCURVE",
"-746 204 OFFCURVE",
"-775 114 CURVE",
"-775 25 OFFCURVE",
"-703 -56 OFFCURVE",
"-518 -56 CURVE SMOOTH",
"-365 -56 OFFCURVE",
"-195 0 OFFCURVE",
"-142 56 CURVE",
"-100 115 OFFCURVE"
);
},
{
closed = 1;
nodes = (
"689 100 OFFCURVE",
"720 193 OFFCURVE",
"720 243 CURVE SMOOTH",
"720 284 OFFCURVE",
"683 349 OFFCURVE",
"642 381 CURVE",
"533 264 LINE",
"592 215 OFFCURVE",
"632 171 OFFCURVE",
"648 137 CURVE",
"654 155 LINE",
"584 123 OFFCURVE",
"462 102 OFFCURVE",
"345 102 CURVE SMOOTH",
"197 102 OFFCURVE",
"126 139 OFFCURVE",
"100 225 CURVE",
"100 176 LINE",
"128 220 OFFCURVE",
"177 266 OFFCURVE",
"225 305 CURVE",
"194 363 LINE",
"106 276 OFFCURVE",
"57 204 OFFCURVE",
"25 114 CURVE",
"25 8 OFFCURVE",
"122 -56 OFFCURVE",
"282 -56 CURVE SMOOTH",
"426 -56 OFFCURVE",
"601 -4 OFFCURVE",
"658 56 CURVE"
);
}
);
};
layerId = "FABFC9D4-E17A-4CB6-8F8E-4923CD579275";
name = Regular;
paths = (
{
closed = 1;
nodes = (
"689 105 OFFCURVE",
"720 198 OFFCURVE",
"720 248 CURVE SMOOTH",
"720 289 OFFCURVE",
"683 354 OFFCURVE",
"642 386 CURVE",
"533 269 LINE",
"592 220 OFFCURVE",
"632 176 OFFCURVE",
"648 142 CURVE",
"654 160 LINE",
"584 128 OFFCURVE",
"462 102 OFFCURVE",
"345 102 CURVE SMOOTH",
"197 102 OFFCURVE",
"126 139 OFFCURVE",
"100 225 CURVE",
"100 176 LINE",
"126 206 OFFCURVE",
"173 248 OFFCURVE",
"213 277 CURVE",
"194 363 LINE",
"106 276 OFFCURVE",
"57 204 OFFCURVE",
"25 114 CURVE",
"25 12 OFFCURVE",
"122 -50 OFFCURVE",
"282 -50 CURVE SMOOTH",
"426 -50 OFFCURVE",
"601 4 OFFCURVE",
"658 61 CURVE"
);
}
);
width = 750;
}
);
unicode = 066E;
},
{
glyphname = "dotlessbeh-ar.all1";
lastChange = "2016-02-01 16:23:43 +0000";
layers = (
{
anchors = (
{
name = bottom;
position = "{367, -52}";
},
{
name = top;
position = "{446, 330}";
}
);
background = {
paths = (
{
closed = 1;
nodes = (
"359 125 OFFCURVE",
"584 181 OFFCURVE",
"703 230 CURVE",
"641 23 LINE",
"613 22 LINE",
"631 76 LINE",
"512 16 OFFCURVE",
"332 -42 OFFCURVE",
"197 -42 CURVE SMOOTH",
"133 -42 OFFCURVE",
"72 -27 OFFCURVE",
"25 4 CURVE",
"25 73 OFFCURVE",
"46 133 OFFCURVE",
"72 176 CURVE SMOOTH",
"107 234 OFFCURVE",
"171 295 OFFCURVE",
"231 331 CURVE",
"249 246 LINE",
"194 218 OFFCURVE",
"133 172 OFFCURVE",
"93 132 CURVE",
"87 165 LINE",
"119 139 OFFCURVE",
"167 125 OFFCURVE",
"226 125 CURVE SMOOTH"
);
}
);
};
guideLines = (
{
angle = 6;
position = "{707, 22}";
},
{
angle = 69.6476;
position = "{759, 100}";
}
);
layerId = "FABFC9D4-E17A-4CB6-8F8E-4923CD579275";
name = Regular;
paths = (
{
closed = 1;
nodes = (
"694 199 LINE",
"638 15 LINE",
"609 19 LINE",
"619 69 LINE",
"510 15 OFFCURVE",
"331 -42 OFFCURVE",
"197 -42 CURVE SMOOTH",
"133 -42 OFFCURVE",
"72 -27 OFFCURVE",
"25 4 CURVE",
"25 73 OFFCURVE",
"46 133 OFFCURVE",
"72 176 CURVE SMOOTH",
"107 234 OFFCURVE",
"171 295 OFFCURVE",
"231 331 CURVE",
"249 246 LINE",
"194 218 OFFCURVE",
"133 172 OFFCURVE",
"93 132 CURVE",
"87 165 LINE",
"119 139 OFFCURVE",
"167 125 OFFCURVE",
"226 125 CURVE SMOOTH",
"351 125 OFFCURVE",
"557 174 OFFCURVE",
"680 221 CURVE"
);
}
);
width = 799;
}
);
},
{
glyphname = "dotlessbeh-ar.fina";
lastChange = "2016-02-01 16:23:47 +0000";
layers = (
{
anchors = (
{
name = bottom;
position = "{367, -52}";
},
{
name = top;
position = "{446, 330}";
}
);
background = {
paths = (
{
closed = 1;
nodes = (
"359 125 OFFCURVE",
"584 181 OFFCURVE",
"703 230 CURVE",
"641 23 LINE",
"613 22 LINE",
"631 76 LINE",
"512 16 OFFCURVE",
"332 -42 OFFCURVE",
"197 -42 CURVE SMOOTH",
"133 -42 OFFCURVE",
"72 -27 OFFCURVE",
"25 4 CURVE",
"25 73 OFFCURVE",
"46 133 OFFCURVE",
"72 176 CURVE SMOOTH",
"107 234 OFFCURVE",
"171 295 OFFCURVE",
"231 331 CURVE",
"249 246 LINE",
"194 218 OFFCURVE",
"133 172 OFFCURVE",
"93 132 CURVE",
"87 165 LINE",
"119 139 OFFCURVE",
"167 125 OFFCURVE",
"226 125 CURVE SMOOTH"
);
},
{
closed = 1;
nodes = (
"697 21 LINE",
"600 11 LINE",
"656 163 LINE",
"755 173 LINE",
"761 156 LINE",
"718 39 LINE"
);
}
);
};
guideLines = (
{
angle = 6;
position = "{656, 163}";
},
{
angle = 69.6476;
position = "{740, 99}";
}
);
layerId = "FABFC9D4-E17A-4CB6-8F8E-4923CD579275";
name = Regular;
paths = (
{
closed = 1;
nodes = (
"359 125 OFFCURVE",
"584 181 OFFCURVE",
"703 230 CURVE",
"641 23 LINE",
"613 22 LINE",
"631 76 LINE",
"512 16 OFFCURVE",
"332 -42 OFFCURVE",
"197 -42 CURVE SMOOTH",
"133 -42 OFFCURVE",
"72 -27 OFFCURVE",
"25 4 CURVE",
"25 73 OFFCURVE",
"46 133 OFFCURVE",
"72 176 CURVE SMOOTH",
"107 234 OFFCURVE",
"171 295 OFFCURVE",
"231 331 CURVE",
"249 246 LINE",
"194 218 OFFCURVE",
"133 172 OFFCURVE",
"93 132 CURVE",
"87 165 LINE",
"119 139 OFFCURVE",
"167 125 OFFCURVE",
"226 125 CURVE SMOOTH"
);
},
{
closed = 1;
nodes = (
"697 21 LINE",
"600 11 LINE",
"656 163 LINE",
"755 173 LINE",
"761 156 LINE",
"718 39 LINE"
);
}
);
width = 799;
}
);
},
{
glyphname = "dotlessbeh-ar.medi";
lastChange = "2016-02-02 00:18:45 +0000";
layers = (
{
anchors = (
{
name = bottom;
position = "{126, -20}";
},
{
name = top;
position = "{221, 330}";
}
);
background = {
paths = (
{
closed = 1;
nodes = (
"-1806 153 LINE",
"-1735 153 OFFCURVE",
"-1688 159 OFFCURVE",
"-1636 174 CURVE",
"-1660 153 LINE",
"-1647 193 OFFCURVE",
"-1639 226 OFFCURVE",
"-1635 255 CURVE",
"-1603 254 LINE",
"-1614 164 OFFCURVE",
"-1641 82 OFFCURVE",
"-1678 30 CURVE",
"-1720 15 OFFCURVE",
"-1768 10 OFFCURVE",
"-1861 10 CURVE"
);
},
{
closed = 1;
nodes = (
"-1488 220 LINE",
"-1544 77 LINE",
"-1676 77 LINE",
"-1620 220 LINE"
);
},
{
closed = 1;
nodes = (
"-1396 151 LINE",
"-1341 157 OFFCURVE",
"-1284 164 OFFCURVE",
"-1235 176 CURVE",
"-1260 153 LINE",
"-1250 185 OFFCURVE",
"-1239 234 OFFCURVE",
"-1233 263 CURVE",
"-1201 262 LINE",
"-1211 165 OFFCURVE",
"-1237 85 OFFCURVE",
"-1266 29 CURVE",
"-1319 16 OFFCURVE",
"-1383 6 OFFCURVE",
"-1454 -1 CURVE"
);
},
{
closed = 1;
nodes = (
"-1078 226 LINE",
"-1134 74 LINE",
"-1278 59 LINE",
"-1222 211 LINE"
);
},
{
closed = 1;
nodes = (
"-966 182 LINE",
"-908 188 OFFCURVE",
"-844 198 OFFCURVE",
"-803 208 CURVE",
"-815 162 OFFCURVE",
"-833 103 OFFCURVE",
"-856 59 CURVE",
"-909 46 OFFCURVE",
"-958 37 OFFCURVE",
"-1024 30 CURVE"
);
},
{
closed = 1;
nodes = (
"-665 177 LINE",
"-721 25 LINE",
"-878 9 LINE",
"-822 161 LINE"
);
},
{
closed = 1;
nodes = (
"-825 153 LINE",
"-815 185 OFFCURVE",
"-801 235 OFFCURVE",
"-794 264 CURVE",
"-762 261 LINE",
"-770 222 OFFCURVE",
"-779 185 OFFCURVE",
"-786 151 CURVE"
);
},
{
closed = 1;
nodes = (
"-466 182 LINE",
"-408 188 OFFCURVE",
"-344 198 OFFCURVE",
"-303 208 CURVE",
"-315 162 OFFCURVE",
"-333 103 OFFCURVE",
"-356 59 CURVE",
"-409 46 OFFCURVE",
"-458 37 OFFCURVE",
"-524 30 CURVE"
);
},
{
closed = 1;
nodes = (
"-325 153 LINE",
"-315 185 OFFCURVE",
"-301 235 OFFCURVE",
"-294 264 CURVE",
"-262 261 LINE",
"-270 222 OFFCURVE",
"-279 185 OFFCURVE",
"-286 151 CURVE"
);
},
{
closed = 1;
nodes = (
"-236 24 LINE",
"-378 9 LINE",
"-322 161 LINE",
"-178 176 LINE",
"-172 159 LINE",
"-215 42 LINE"
);
},
{
closed = 1;
nodes = (
"48 166 LINE",
"97 171 OFFCURVE",
"155 181 OFFCURVE",
"191 191 CURVE",
"180 145 OFFCURVE",
"163 86 OFFCURVE",
"142 42 CURVE",
"97 29 OFFCURVE",
"43 19 OFFCURVE",
"-10 14 CURVE"
);
},
{
closed = 1;
nodes = (
"175 151 LINE",
"184 180 OFFCURVE",
"196 222 OFFCURVE",
"203 251 CURVE",
"235 248 LINE",
"227 209 OFFCURVE",
"220 180 OFFCURVE",
"214 149 CURVE"
);
},
{
closed = 1;
nodes = (
"254 23 LINE",
"130 10 LINE",
"178 161 LINE",
"312 175 LINE",
"318 158 LINE",
"275 41 LINE"
);
}
);
};
guideLines = (
{
angle = 70;
position = "{293, 118}";
},
{
angle = 6;
position = "{254, 23}";
},
{
angle = 6;
position = "{48, 166}";
}
);
layerId = "FABFC9D4-E17A-4CB6-8F8E-4923CD579275";
name = Regular;
paths = (
{
closed = 1;
nodes = (
"58 167 LINE",
"107 172 OFFCURVE",
"158 181 OFFCURVE",
"191 191 CURVE",
"180 145 OFFCURVE",
"163 86 OFFCURVE",
"142 42 CURVE",
"100 29 OFFCURVE",
"53 20 OFFCURVE",
"0 15 CURVE"
);
},
{
closed = 1;
nodes = (
"175 151 LINE",
"184 180 OFFCURVE",
"196 222 OFFCURVE",
"203 251 CURVE",
"235 248 LINE",
"227 209 OFFCURVE",
"220 180 OFFCURVE",
"214 149 CURVE"
);
},
{
closed = 1;
nodes = (
"254 23 LINE",
"130 10 LINE",
"178 161 LINE",
"312 175 LINE",
"318 158 LINE",
"275 41 LINE"
);
}
);
width = 318;
}
);
},
{
glyphname = "dotlessbeh-ar.medi.all1";
lastChange = "2016-02-02 00:18:51 +0000";
layers = (
{
anchors = (
{
name = bottom;
position = "{157, -20}";
},
{
name = entry;
position = "{332, 93}";
},
{
name = exit;
position = "{29, 77}";
},
{
name = top;
position = "{231, 330}";
}
);
background = {
paths = (
{
closed = 1;
nodes = (
"88 172 LINE",
"142 178 OFFCURVE",
"203 187 OFFCURVE",
"241 197 CURVE",
"229 151 OFFCURVE",
"211 92 OFFCURVE",
"188 48 CURVE",
"138 35 OFFCURVE",
"96 27 OFFCURVE",
"30 20 CURVE"
);
},
{
closed = 1;
nodes = (
"223 153 LINE",
"232 182 OFFCURVE",
"244 224 OFFCURVE",
"251 253 CURVE",
"283 250 LINE",
"275 211 OFFCURVE",
"268 182 OFFCURVE",
"262 151 CURVE"
);
},
{
closed = 1;
nodes = (
"302 23 LINE",
"170 9 LINE",
"226 161 LINE",
"360 175 LINE",
"366 158 LINE",
"323 41 LINE"
);
}
);
};
guideLines = (
{
angle = 70;
position = "{389, -22}";
},
{
angle = 6;
position = "{170, 9}";
},
{
angle = 6;
position = "{48, 206}";
}
);
layerId = "FABFC9D4-E17A-4CB6-8F8E-4923CD579275";
name = Regular;
paths = (
{
closed = 1;
nodes = (
"293 318 LINE",
"289 116 LINE",
"217 153 LINE",
"361 168 LINE",
"367 151 LINE",
"324 34 LINE",
"303 16 LINE",
"170 2 LINE",
"174 256 LINE"
);
},
{
closed = 1;
nodes = (
"58 152 LINE",
"101 157 OFFCURVE",
"150 167 OFFCURVE",
"181 177 CURVE",
"169 131 OFFCURVE",
"151 72 OFFCURVE",
"128 28 CURVE",
"96 16 OFFCURVE",
"54 6 OFFCURVE",
"0 0 CURVE"
);
}
);
width = 367;
}
);
},
{
glyphname = "dotlessbeh-ar.init";
lastChange = "2016-01-31 19:08:22 +0000";
layers = (
{
anchors = (
{
name = bottom;
position = "{117, -20}";
},
{
name = top;
position = "{218, 326}";
}
);
background = {
paths = (
{
closed = 1;
nodes = (
"217 370 LINE",
"262 314 OFFCURVE",
"288 269 OFFCURVE",
"288 192 CURVE SMOOTH",
"288 115 OFFCURVE",
"225 4 OFFCURVE",
"59 6 CURVE SMOOTH",
"39 6 LINE",
"61 138 LINE",
"97 137 OFFCURVE",
"175 139 OFFCURVE",
"218 145 CURVE",
"203 123 LINE",
"189 175 OFFCURVE",
"161 215 OFFCURVE",
"116 267 CURVE"
);
},
{
closed = 1;
nodes = (
"-245 151 LINE",
"-182 153 OFFCURVE",
"-133 159 OFFCURVE",
"-75 172 CURVE",
"-99 151 LINE",
"-89 182 OFFCURVE",
"-80 216 OFFCURVE",
"-74 253 CURVE",
"-42 252 LINE",
"-51 178 OFFCURVE",
"-74 90 OFFCURVE",
"-117 28 CURVE",
"-177 15 OFFCURVE",
"-230 10 OFFCURVE",
"-300 8 CURVE"
);
}
);
};
guideLines = (
{
position = "{144, 123}";
},
{
angle = 69;
position = "{7, -1}";
},
{
angle = 6;
position = "{27, -1}";
}
);
layerId = "FABFC9D4-E17A-4CB6-8F8E-4923CD579275";
name = Regular;
paths = (
{
closed = 1;
nodes = (
"85 151 LINE",
"133 156 OFFCURVE",
"195 167 OFFCURVE",
"226 176 CURVE",
"201 153 LINE",
"211 185 OFFCURVE",
"222 234 OFFCURVE",
"228 263 CURVE",
"260 262 LINE",
"250 165 OFFCURVE",
"224 85 OFFCURVE",
"195 29 CURVE",
"148 16 OFFCURVE",
"84 5 OFFCURVE",
"27 -1 CURVE"
);
}
);
width = 288;
}
);
},
{
glyphname = "dotlessbeh-ar.init.all1";
lastChange = "2016-02-01 15:43:08 +0000";
layers = (
{
anchors = (
{
name = bottom;
position = "{105, -20}";
},
{
name = top;
position = "{153, 400}";
}
);
background = {
paths = (
{
closed = 1;
nodes = (
"-183 370 LINE",
"-138 314 OFFCURVE",
"-112 269 OFFCURVE",
"-112 192 CURVE SMOOTH",
"-112 115 OFFCURVE",
"-175 4 OFFCURVE",
"-341 6 CURVE SMOOTH",
"-361 6 LINE",
"-339 138 LINE",
"-303 137 OFFCURVE",
"-225 139 OFFCURVE",
"-182 145 CURVE",
"-197 123 LINE",
"-211 175 OFFCURVE",
"-239 215 OFFCURVE",
"-284 267 CURVE"
);
},
{
closed = 1;
nodes = (
"-645 151 LINE",
"-582 153 OFFCURVE",
"-533 159 OFFCURVE",
"-475 172 CURVE",
"-499 151 LINE",
"-489 182 OFFCURVE",
"-480 216 OFFCURVE",
"-474 253 CURVE",
"-442 252 LINE",
"-451 178 OFFCURVE",
"-474 90 OFFCURVE",
"-517 28 CURVE",
"-577 15 OFFCURVE",
"-630 10 OFFCURVE",
"-700 8 CURVE"
);
},
{
closed = 1;
nodes = (
"75 151 LINE",
"133 157 OFFCURVE",
"180 164 OFFCURVE",
"226 176 CURVE",
"201 153 LINE",
"211 185 OFFCURVE",
"222 234 OFFCURVE",
"228 263 CURVE",
"260 262 LINE",
"250 165 OFFCURVE",
"224 85 OFFCURVE",
"195 29 CURVE",
"145 16 OFFCURVE",
"85 6 OFFCURVE",
"17 -1 CURVE"
);
}
);
};
guideLines = (
{
angle = 69;
position = "{4, 2}";
},
{
angle = 6;
position = "{4, 2}";
}
);
layerId = "FABFC9D4-E17A-4CB6-8F8E-4923CD579275";
name = Regular;
paths = (
{
closed = 1;
nodes = (
"4 2 LINE",
"83 10 OFFCURVE",
"164 38 OFFCURVE",
"198 61 CURVE",
"229 105 OFFCURVE",
"260 198 OFFCURVE",
"260 248 CURVE SMOOTH",
"260 289 OFFCURVE",
"223 354 OFFCURVE",
"182 386 CURVE",
"73 269 LINE",
"137 224 OFFCURVE",
"181 183 OFFCURVE",
"198 152 CURVE",
"214 170 LINE",
"62 154 LINE"
);
}
);
width = 288;
}
);
},
{
glyphname = "dotlessbeh-ar.init.all2";
lastChange = "2016-01-31 19:05:15 +0000";
layers = (
{
anchors = (
{
name = bottom;
position = "{128, 0}";
},
{
name = exit;
position = "{29, 57}";
},
{
name = top;
position = "{222, 330}";
}
);
background = {
paths = (
{
closed = 1;
nodes = (
"-665 370 LINE",
"-620 314 OFFCURVE",
"-594 269 OFFCURVE",
"-594 192 CURVE SMOOTH",
"-594 115 OFFCURVE",
"-657 4 OFFCURVE",
"-823 6 CURVE SMOOTH",
"-843 6 LINE",
"-821 138 LINE",
"-785 137 OFFCURVE",
"-707 139 OFFCURVE",
"-664 145 CURVE",
"-679 123 LINE",
"-693 175 OFFCURVE",
"-721 215 OFFCURVE",
"-766 267 CURVE"
);
},
{
closed = 1;
nodes = (
"-1127 151 LINE",
"-1064 153 OFFCURVE",
"-1015 159 OFFCURVE",
"-957 172 CURVE",
"-981 151 LINE",
"-971 182 OFFCURVE",
"-962 216 OFFCURVE",
"-956 253 CURVE",
"-924 252 LINE",
"-933 178 OFFCURVE",
"-956 90 OFFCURVE",
"-999 28 CURVE",
"-1059 15 OFFCURVE",
"-1112 10 OFFCURVE",
"-1182 8 CURVE"
);
},
{
closed = 1;
nodes = (
"-407 151 LINE",
"-349 157 OFFCURVE",
"-302 164 OFFCURVE",
"-256 176 CURVE",
"-281 153 LINE",
"-271 185 OFFCURVE",
"-260 234 OFFCURVE",
"-254 263 CURVE",
"-222 262 LINE",
"-232 165 OFFCURVE",
"-258 85 OFFCURVE",
"-287 29 CURVE",
"-337 16 OFFCURVE",
"-397 6 OFFCURVE",
"-465 -1 CURVE"
);
},
{
closed = 1;
nodes = (
"-78 2 LINE",
"1 10 OFFCURVE",
"82 38 OFFCURVE",
"116 61 CURVE",
"147 105 OFFCURVE",
"178 198 OFFCURVE",
"178 248 CURVE SMOOTH",
"178 289 OFFCURVE",
"141 354 OFFCURVE",
"100 386 CURVE",
"-9 269 LINE",
"50 220 OFFCURVE",
"90 176 OFFCURVE",
"106 142 CURVE",
"112 160 LINE",
"-23 146 LINE"
);
}
);
};
guideLines = (
{
angle = 69;
position = "{35, -16}";
},
{
angle = 6;
position = "{0, -20}";
}
);
layerId = "FABFC9D4-E17A-4CB6-8F8E-4923CD579275";
name = Regular;
paths = (
{
closed = 1;
nodes = (
"222 122 OFFCURVE",
"195 126 OFFCURVE",
"178 126 CURVE SMOOTH",
"114 126 OFFCURVE",
"75 87 OFFCURVE",
"42 2 CURVE SMOOTH",
"35 -16 LINE",
"0 -20 LINE",
"12 11 LINE",
"58 132 LINE",
"118 239 OFFCURVE",
"170 278 OFFCURVE",
"247 278 CURVE SMOOTH",
"278 278 OFFCURVE",
"310 268 OFFCURVE",
"332 252 CURVE",
"256 64 LINE",
"225 68 LINE",
"227 81 OFFCURVE",
"232 101 OFFCURVE",
"235 116 CURVE"
);
}
);
width = 376;
}
);
},
{
glyphname = "beh-ar.fina";
lastChange = "2015-11-08 17:57:48 +0000";
layers = (
{
anchors = (
{
name = entry;
position = "{726, 98}";
}
);
background = {
anchors = (
{
name = entry;
position = "{859, 85}";
}
);
components = (
{
name = "dotlessbeh-ar.fina";
},
{
name = "dotbelow-ar";
transform = "{1, 0, 0, 1, 130, -70}";
}
);
};
components = (
{
name = "dotlessbeh-ar.fina";
},
{
name = "dotbelow-ar";
transform = "{1, 0, 0, 1, 90, -70}";
}
);
guideLines = (
{
angle = 6;
position = "{250, -26}";
},
{
angle = 6;
position = "{308, 126}";
}
);
layerId = "FABFC9D4-E17A-4CB6-8F8E-4923CD579275";
name = Regular;
paths = (
{
closed = 0;
nodes = (
"697 21 LINE"
);
}
);
width = 799;
}
);
unicode = FE90;
},
{
glyphname = "beh-ar.medi.all1";
lastChange = "2015-12-10 15:42:18 +0000";
layers = (
{
anchors = (
{
name = entry;
position = "{352, 93}";
},
{
name = exit;
position = "{49, 77}";
}
);
background = {
anchors = (
{
name = entry;
position = "{408, 85}";
},
{
name = exit;
position = "{133, 66}";
}
);
components = (
{
name = "dotlessbeh-ar.medi";
},
{
name = "dotbelow-ar";
transform = "{1, 0, 0, 1, 0, -30}";
}
);
};
components = (
{
name = "dotbelow-ar";
transform = "{1, 0, 0, 1, -70, -10}";
},
{
name = "dotlessbeh-ar.medi.all1";
}
);
guideLines = (
{
angle = 80.6594;
position = "{-116, 111}";
},
{
angle = 6;
position = "{250, 16}";
},
{
angle = 6;
position = "{308, 168}";
},
{
angle = 70;
position = "{325, 24}";
},
{
angle = 69.0925;
position = "{37, 30}";
}
);
layerId = "FABFC9D4-E17A-4CB6-8F8E-4923CD579275";
name = Regular;
paths = (
{
closed = 0;
nodes = (
"33 19 LINE"
);
}
);
width = 413;
}
);
},
{
glyphname = "jeem-ar.init.alt";
lastChange = "2015-11-08 18:45:27 +0000";
layers = (
{
anchors = (
{
name = exit;
position = "{39, 83}";
}
);
background = {
paths = (
{
closed = 1;
nodes = (
"499 203 LINE",
"443 51 LINE",
"10 6 LINE",
"66 158 LINE"
);
},
{
closed = 1;
nodes = (
"357 192 OFFCURVE",
"365 223 OFFCURVE",
"368 247 CURVE",
"361 249 OFFCURVE",
"342 252 OFFCURVE",
"332 252 CURVE SMOOTH",
"263 252 OFFCURVE",
"200 217 OFFCURVE",
"170 141 CURVE SMOOTH",
"146 80 OFFCURVE",
"128 -17 OFFCURVE",
"115 -135 CURVE",
"86 -130 LINE",
"96 -28 OFFCURVE",
"103 42 OFFCURVE",
"121 112 CURVE SMOOTH",
"175 322 OFFCURVE",
"286 411 OFFCURVE",
"398 411 CURVE SMOOTH",
"430 411 OFFCURVE",
"460 402 OFFCURVE",
"474 391 CURVE",
"473 320 OFFCURVE",
"443 220 OFFCURVE",
"412 149 CURVE",
"344 148 LINE"
);
}
);
};
components = (
{
name = "dotbelow-ar";
transform = "{1, 0, 0, 1, 31, 30}";
}
);
guideLines = (
{
angle = 69;
position = "{-36, 14}";
},
{
angle = 6;
position = "{41, 9}";
}
);
layerId = "FABFC9D4-E17A-4CB6-8F8E-4923CD579275";
name = Regular;
paths = (
{
closed = 1;
nodes = (
"10 6 LINE",
"68 158 LINE",
"141 166 LINE SMOOTH",
"285 180 OFFCURVE",
"397 208 OFFCURVE",
"446 243 CURVE",
"451 210 LINE",
"407 248 OFFCURVE",
"346 263 OFFCURVE",
"280 263 CURVE SMOOTH",
"245 263 OFFCURVE",
"221 254 OFFCURVE",
"186 235 CURVE",
"208 297 LINE",
"208 260 OFFCURVE",
"250 211 OFFCURVE",
"339 198 CURVE",
"222 81 LINE",
"171 92 OFFCURVE",
"146 128 OFFCURVE",
"146 188 CURVE SMOOTH",
"146 242 OFFCURVE",
"205 339 OFFCURVE",
"234 363 CURVE SMOOTH",
"264 385 OFFCURVE",
"315 397 OFFCURVE",
"364 397 CURVE SMOOTH",
"428 397 OFFCURVE",
"494 380 OFFCURVE",
"533 352 CURVE",
"511 196 OFFCURVE",
"384 45 OFFCURVE",
"173 23 CURVE SMOOTH"
);
}
);
width = 519;
}
);
},
